G04 #@! TF.GenerationSoftware,KiCad,Pcbnew,5.0.2+dfsg1-1~bpo9+1*
G04 #@! TF.CreationDate,2019-02-16T22:44:35+01:00*
G04 #@! TF.ProjectId,main,6d61696e-2e6b-4696-9361-645f70636258,v02*
G04 #@! TF.SameCoordinates,Original*
G04 #@! TF.FileFunction,Soldermask,Top*
G04 #@! TF.FilePolarity,Negative*
%FSLAX46Y46*%
G04 Gerber Fmt 4.6, Leading zero omitted, Abs format (unit mm)*
G04 Created by KiCad (PCBNEW 5.0.2+dfsg1-1~bpo9+1) date Sat 16 Feb 2019 10:44:35 PM CET*
%MOMM*%
%LPD*%
G01*
G04 APERTURE LIST*
%ADD10C,0.100000*%
G04 APERTURE END LIST*
D10*
G36*
X192018228Y-121101703D02*
X192173100Y-121165853D01*
X192312481Y-121258985D01*
X192431015Y-121377519D01*
X192524147Y-121516900D01*
X192588297Y-121671772D01*
X192621000Y-121836184D01*
X192621000Y-122003816D01*
X192588297Y-122168228D01*
X192524147Y-122323100D01*
X192431015Y-122462481D01*
X192312481Y-122581015D01*
X192173100Y-122674147D01*
X192018228Y-122738297D01*
X191853816Y-122771000D01*
X191686184Y-122771000D01*
X191521772Y-122738297D01*
X191366900Y-122674147D01*
X191227519Y-122581015D01*
X191108985Y-122462481D01*
X191015853Y-122323100D01*
X190951703Y-122168228D01*
X190919000Y-122003816D01*
X190919000Y-121836184D01*
X190951703Y-121671772D01*
X191015853Y-121516900D01*
X191108985Y-121377519D01*
X191227519Y-121258985D01*
X191366900Y-121165853D01*
X191521772Y-121101703D01*
X191686184Y-121069000D01*
X191853816Y-121069000D01*
X192018228Y-121101703D01*
X192018228Y-121101703D01*
G37*
G36*
X181776821Y-121081313D02*
X181776824Y-121081314D01*
X181776825Y-121081314D01*
X181937239Y-121129975D01*
X181937241Y-121129976D01*
X181937244Y-121129977D01*
X182085078Y-121208995D01*
X182214659Y-121315341D01*
X182321005Y-121444922D01*
X182400023Y-121592756D01*
X182400024Y-121592759D01*
X182400025Y-121592761D01*
X182448686Y-121753175D01*
X182448687Y-121753179D01*
X182465117Y-121920000D01*
X182448687Y-122086821D01*
X182448686Y-122086824D01*
X182448686Y-122086825D01*
X182423993Y-122168228D01*
X182400023Y-122247244D01*
X182321005Y-122395078D01*
X182214659Y-122524659D01*
X182085078Y-122631005D01*
X181937244Y-122710023D01*
X181937241Y-122710024D01*
X181937239Y-122710025D01*
X181776825Y-122758686D01*
X181776824Y-122758686D01*
X181776821Y-122758687D01*
X181651804Y-122771000D01*
X181568196Y-122771000D01*
X181443179Y-122758687D01*
X181443176Y-122758686D01*
X181443175Y-122758686D01*
X181282761Y-122710025D01*
X181282759Y-122710024D01*
X181282756Y-122710023D01*
X181134922Y-122631005D01*
X181005341Y-122524659D01*
X180898995Y-122395078D01*
X180819977Y-122247244D01*
X180796008Y-122168228D01*
X180771314Y-122086825D01*
X180771314Y-122086824D01*
X180771313Y-122086821D01*
X180754883Y-121920000D01*
X180771313Y-121753179D01*
X180771314Y-121753175D01*
X180819975Y-121592761D01*
X180819976Y-121592759D01*
X180819977Y-121592756D01*
X180898995Y-121444922D01*
X181005341Y-121315341D01*
X181134922Y-121208995D01*
X181282756Y-121129977D01*
X181282759Y-121129976D01*
X181282761Y-121129975D01*
X181443175Y-121081314D01*
X181443176Y-121081314D01*
X181443179Y-121081313D01*
X181568196Y-121069000D01*
X181651804Y-121069000D01*
X181776821Y-121081313D01*
X181776821Y-121081313D01*
G37*
G36*
X170346821Y-121081313D02*
X170346824Y-121081314D01*
X170346825Y-121081314D01*
X170507239Y-121129975D01*
X170507241Y-121129976D01*
X170507244Y-121129977D01*
X170655078Y-121208995D01*
X170784659Y-121315341D01*
X170891005Y-121444922D01*
X170970023Y-121592756D01*
X170970024Y-121592759D01*
X170970025Y-121592761D01*
X171018686Y-121753175D01*
X171018687Y-121753179D01*
X171035117Y-121920000D01*
X171018687Y-122086821D01*
X171018686Y-122086824D01*
X171018686Y-122086825D01*
X170993993Y-122168228D01*
X170970023Y-122247244D01*
X170891005Y-122395078D01*
X170784659Y-122524659D01*
X170655078Y-122631005D01*
X170507244Y-122710023D01*
X170507241Y-122710024D01*
X170507239Y-122710025D01*
X170346825Y-122758686D01*
X170346824Y-122758686D01*
X170346821Y-122758687D01*
X170221804Y-122771000D01*
X170138196Y-122771000D01*
X170013179Y-122758687D01*
X170013176Y-122758686D01*
X170013175Y-122758686D01*
X169852761Y-122710025D01*
X169852759Y-122710024D01*
X169852756Y-122710023D01*
X169704922Y-122631005D01*
X169575341Y-122524659D01*
X169468995Y-122395078D01*
X169389977Y-122247244D01*
X169366008Y-122168228D01*
X169341314Y-122086825D01*
X169341314Y-122086824D01*
X169341313Y-122086821D01*
X169324883Y-121920000D01*
X169341313Y-121753179D01*
X169341314Y-121753175D01*
X169389975Y-121592761D01*
X169389976Y-121592759D01*
X169389977Y-121592756D01*
X169468995Y-121444922D01*
X169575341Y-121315341D01*
X169704922Y-121208995D01*
X169852756Y-121129977D01*
X169852759Y-121129976D01*
X169852761Y-121129975D01*
X170013175Y-121081314D01*
X170013176Y-121081314D01*
X170013179Y-121081313D01*
X170138196Y-121069000D01*
X170221804Y-121069000D01*
X170346821Y-121081313D01*
X170346821Y-121081313D01*
G37*
G36*
X177966821Y-121081313D02*
X177966824Y-121081314D01*
X177966825Y-121081314D01*
X178127239Y-121129975D01*
X178127241Y-121129976D01*
X178127244Y-121129977D01*
X178275078Y-121208995D01*
X178404659Y-121315341D01*
X178511005Y-121444922D01*
X178590023Y-121592756D01*
X178590024Y-121592759D01*
X178590025Y-121592761D01*
X178638686Y-121753175D01*
X178638687Y-121753179D01*
X178655117Y-121920000D01*
X178638687Y-122086821D01*
X178638686Y-122086824D01*
X178638686Y-122086825D01*
X178613993Y-122168228D01*
X178590023Y-122247244D01*
X178511005Y-122395078D01*
X178404659Y-122524659D01*
X178275078Y-122631005D01*
X178127244Y-122710023D01*
X178127241Y-122710024D01*
X178127239Y-122710025D01*
X177966825Y-122758686D01*
X177966824Y-122758686D01*
X177966821Y-122758687D01*
X177841804Y-122771000D01*
X177758196Y-122771000D01*
X177633179Y-122758687D01*
X177633176Y-122758686D01*
X177633175Y-122758686D01*
X177472761Y-122710025D01*
X177472759Y-122710024D01*
X177472756Y-122710023D01*
X177324922Y-122631005D01*
X177195341Y-122524659D01*
X177088995Y-122395078D01*
X177009977Y-122247244D01*
X176986008Y-122168228D01*
X176961314Y-122086825D01*
X176961314Y-122086824D01*
X176961313Y-122086821D01*
X176944883Y-121920000D01*
X176961313Y-121753179D01*
X176961314Y-121753175D01*
X177009975Y-121592761D01*
X177009976Y-121592759D01*
X177009977Y-121592756D01*
X177088995Y-121444922D01*
X177195341Y-121315341D01*
X177324922Y-121208995D01*
X177472756Y-121129977D01*
X177472759Y-121129976D01*
X177472761Y-121129975D01*
X177633175Y-121081314D01*
X177633176Y-121081314D01*
X177633179Y-121081313D01*
X177758196Y-121069000D01*
X177841804Y-121069000D01*
X177966821Y-121081313D01*
X177966821Y-121081313D01*
G37*
G36*
X199071000Y-121601000D02*
X197169000Y-121601000D01*
X197169000Y-119699000D01*
X199071000Y-119699000D01*
X199071000Y-121601000D01*
X199071000Y-121601000D01*
G37*
G36*
X195857396Y-119735546D02*
X196030466Y-119807234D01*
X196186230Y-119911312D01*
X196318688Y-120043770D01*
X196422766Y-120199534D01*
X196494454Y-120372604D01*
X196531000Y-120556333D01*
X196531000Y-120743667D01*
X196494454Y-120927396D01*
X196422766Y-121100466D01*
X196318688Y-121256230D01*
X196186230Y-121388688D01*
X196030466Y-121492766D01*
X195857396Y-121564454D01*
X195673667Y-121601000D01*
X195486333Y-121601000D01*
X195302604Y-121564454D01*
X195129534Y-121492766D01*
X194973770Y-121388688D01*
X194841312Y-121256230D01*
X194737234Y-121100466D01*
X194665546Y-120927396D01*
X194629000Y-120743667D01*
X194629000Y-120556333D01*
X194665546Y-120372604D01*
X194737234Y-120199534D01*
X194841312Y-120043770D01*
X194973770Y-119911312D01*
X195129534Y-119807234D01*
X195302604Y-119735546D01*
X195486333Y-119699000D01*
X195673667Y-119699000D01*
X195857396Y-119735546D01*
X195857396Y-119735546D01*
G37*
G36*
X170346821Y-118541313D02*
X170346824Y-118541314D01*
X170346825Y-118541314D01*
X170507239Y-118589975D01*
X170507241Y-118589976D01*
X170507244Y-118589977D01*
X170655078Y-118668995D01*
X170784659Y-118775341D01*
X170891005Y-118904922D01*
X170970023Y-119052756D01*
X170970024Y-119052759D01*
X170970025Y-119052761D01*
X171017667Y-119209816D01*
X171018687Y-119213179D01*
X171035117Y-119380000D01*
X171018687Y-119546821D01*
X171018686Y-119546824D01*
X171018686Y-119546825D01*
X171002229Y-119601078D01*
X170970023Y-119707244D01*
X170891005Y-119855078D01*
X170784659Y-119984659D01*
X170655078Y-120091005D01*
X170507244Y-120170023D01*
X170507241Y-120170024D01*
X170507239Y-120170025D01*
X170346825Y-120218686D01*
X170346824Y-120218686D01*
X170346821Y-120218687D01*
X170221804Y-120231000D01*
X170138196Y-120231000D01*
X170013179Y-120218687D01*
X170013176Y-120218686D01*
X170013175Y-120218686D01*
X169852761Y-120170025D01*
X169852759Y-120170024D01*
X169852756Y-120170023D01*
X169704922Y-120091005D01*
X169575341Y-119984659D01*
X169468995Y-119855078D01*
X169389977Y-119707244D01*
X169357772Y-119601078D01*
X169341314Y-119546825D01*
X169341314Y-119546824D01*
X169341313Y-119546821D01*
X169324883Y-119380000D01*
X169341313Y-119213179D01*
X169342333Y-119209816D01*
X169389975Y-119052761D01*
X169389976Y-119052759D01*
X169389977Y-119052756D01*
X169468995Y-118904922D01*
X169575341Y-118775341D01*
X169704922Y-118668995D01*
X169852756Y-118589977D01*
X169852759Y-118589976D01*
X169852761Y-118589975D01*
X170013175Y-118541314D01*
X170013176Y-118541314D01*
X170013179Y-118541313D01*
X170138196Y-118529000D01*
X170221804Y-118529000D01*
X170346821Y-118541313D01*
X170346821Y-118541313D01*
G37*
G36*
X177966821Y-118541313D02*
X177966824Y-118541314D01*
X177966825Y-118541314D01*
X178127239Y-118589975D01*
X178127241Y-118589976D01*
X178127244Y-118589977D01*
X178275078Y-118668995D01*
X178404659Y-118775341D01*
X178511005Y-118904922D01*
X178590023Y-119052756D01*
X178590024Y-119052759D01*
X178590025Y-119052761D01*
X178637667Y-119209816D01*
X178638687Y-119213179D01*
X178655117Y-119380000D01*
X178638687Y-119546821D01*
X178638686Y-119546824D01*
X178638686Y-119546825D01*
X178622229Y-119601078D01*
X178590023Y-119707244D01*
X178511005Y-119855078D01*
X178404659Y-119984659D01*
X178275078Y-120091005D01*
X178127244Y-120170023D01*
X178127241Y-120170024D01*
X178127239Y-120170025D01*
X177966825Y-120218686D01*
X177966824Y-120218686D01*
X177966821Y-120218687D01*
X177841804Y-120231000D01*
X177758196Y-120231000D01*
X177633179Y-120218687D01*
X177633176Y-120218686D01*
X177633175Y-120218686D01*
X177472761Y-120170025D01*
X177472759Y-120170024D01*
X177472756Y-120170023D01*
X177324922Y-120091005D01*
X177195341Y-119984659D01*
X177088995Y-119855078D01*
X177009977Y-119707244D01*
X176977772Y-119601078D01*
X176961314Y-119546825D01*
X176961314Y-119546824D01*
X176961313Y-119546821D01*
X176944883Y-119380000D01*
X176961313Y-119213179D01*
X176962333Y-119209816D01*
X177009975Y-119052761D01*
X177009976Y-119052759D01*
X177009977Y-119052756D01*
X177088995Y-118904922D01*
X177195341Y-118775341D01*
X177324922Y-118668995D01*
X177472756Y-118589977D01*
X177472759Y-118589976D01*
X177472761Y-118589975D01*
X177633175Y-118541314D01*
X177633176Y-118541314D01*
X177633179Y-118541313D01*
X177758196Y-118529000D01*
X177841804Y-118529000D01*
X177966821Y-118541313D01*
X177966821Y-118541313D01*
G37*
G36*
X153328821Y-118287313D02*
X153328824Y-118287314D01*
X153328825Y-118287314D01*
X153489239Y-118335975D01*
X153489241Y-118335976D01*
X153489244Y-118335977D01*
X153637078Y-118414995D01*
X153766659Y-118521341D01*
X153873005Y-118650922D01*
X153952023Y-118798756D01*
X153952024Y-118798759D01*
X153952025Y-118798761D01*
X154000686Y-118959175D01*
X154000687Y-118959179D01*
X154017117Y-119126000D01*
X154000687Y-119292821D01*
X154000686Y-119292824D01*
X154000686Y-119292825D01*
X153974242Y-119380000D01*
X153952023Y-119453244D01*
X153873005Y-119601078D01*
X153766659Y-119730659D01*
X153637078Y-119837005D01*
X153489244Y-119916023D01*
X153489241Y-119916024D01*
X153489239Y-119916025D01*
X153328825Y-119964686D01*
X153328824Y-119964686D01*
X153328821Y-119964687D01*
X153203804Y-119977000D01*
X153120196Y-119977000D01*
X152995179Y-119964687D01*
X152995176Y-119964686D01*
X152995175Y-119964686D01*
X152834761Y-119916025D01*
X152834759Y-119916024D01*
X152834756Y-119916023D01*
X152686922Y-119837005D01*
X152557341Y-119730659D01*
X152450995Y-119601078D01*
X152371977Y-119453244D01*
X152349759Y-119380000D01*
X152323314Y-119292825D01*
X152323314Y-119292824D01*
X152323313Y-119292821D01*
X152306883Y-119126000D01*
X152323313Y-118959179D01*
X152323314Y-118959175D01*
X152371975Y-118798761D01*
X152371976Y-118798759D01*
X152371977Y-118798756D01*
X152450995Y-118650922D01*
X152557341Y-118521341D01*
X152686922Y-118414995D01*
X152834756Y-118335977D01*
X152834759Y-118335976D01*
X152834761Y-118335975D01*
X152995175Y-118287314D01*
X152995176Y-118287314D01*
X152995179Y-118287313D01*
X153120196Y-118275000D01*
X153203804Y-118275000D01*
X153328821Y-118287313D01*
X153328821Y-118287313D01*
G37*
G36*
X143250228Y-118307703D02*
X143405100Y-118371853D01*
X143544481Y-118464985D01*
X143663015Y-118583519D01*
X143756147Y-118722900D01*
X143820297Y-118877772D01*
X143853000Y-119042184D01*
X143853000Y-119209816D01*
X143820297Y-119374228D01*
X143756147Y-119529100D01*
X143663015Y-119668481D01*
X143544481Y-119787015D01*
X143405100Y-119880147D01*
X143250228Y-119944297D01*
X143085816Y-119977000D01*
X142918184Y-119977000D01*
X142753772Y-119944297D01*
X142598900Y-119880147D01*
X142459519Y-119787015D01*
X142340985Y-119668481D01*
X142247853Y-119529100D01*
X142183703Y-119374228D01*
X142151000Y-119209816D01*
X142151000Y-119042184D01*
X142183703Y-118877772D01*
X142247853Y-118722900D01*
X142340985Y-118583519D01*
X142459519Y-118464985D01*
X142598900Y-118371853D01*
X142753772Y-118307703D01*
X142918184Y-118275000D01*
X143085816Y-118275000D01*
X143250228Y-118307703D01*
X143250228Y-118307703D01*
G37*
G36*
X177966821Y-116001313D02*
X177966824Y-116001314D01*
X177966825Y-116001314D01*
X178127239Y-116049975D01*
X178127241Y-116049976D01*
X178127244Y-116049977D01*
X178275078Y-116128995D01*
X178404659Y-116235341D01*
X178511005Y-116364922D01*
X178590023Y-116512756D01*
X178638687Y-116673179D01*
X178655117Y-116840000D01*
X178638687Y-117006821D01*
X178590023Y-117167244D01*
X178511005Y-117315078D01*
X178404659Y-117444659D01*
X178275078Y-117551005D01*
X178127244Y-117630023D01*
X178127241Y-117630024D01*
X178127239Y-117630025D01*
X177966825Y-117678686D01*
X177966824Y-117678686D01*
X177966821Y-117678687D01*
X177841804Y-117691000D01*
X177758196Y-117691000D01*
X177633179Y-117678687D01*
X177633176Y-117678686D01*
X177633175Y-117678686D01*
X177472761Y-117630025D01*
X177472759Y-117630024D01*
X177472756Y-117630023D01*
X177324922Y-117551005D01*
X177195341Y-117444659D01*
X177088995Y-117315078D01*
X177009977Y-117167244D01*
X176961313Y-117006821D01*
X176944883Y-116840000D01*
X176961313Y-116673179D01*
X177009977Y-116512756D01*
X177088995Y-116364922D01*
X177195341Y-116235341D01*
X177324922Y-116128995D01*
X177472756Y-116049977D01*
X177472759Y-116049976D01*
X177472761Y-116049975D01*
X177633175Y-116001314D01*
X177633176Y-116001314D01*
X177633179Y-116001313D01*
X177758196Y-115989000D01*
X177841804Y-115989000D01*
X177966821Y-116001313D01*
X177966821Y-116001313D01*
G37*
G36*
X170346821Y-116001313D02*
X170346824Y-116001314D01*
X170346825Y-116001314D01*
X170507239Y-116049975D01*
X170507241Y-116049976D01*
X170507244Y-116049977D01*
X170655078Y-116128995D01*
X170784659Y-116235341D01*
X170891005Y-116364922D01*
X170970023Y-116512756D01*
X171018687Y-116673179D01*
X171035117Y-116840000D01*
X171018687Y-117006821D01*
X170970023Y-117167244D01*
X170891005Y-117315078D01*
X170784659Y-117444659D01*
X170655078Y-117551005D01*
X170507244Y-117630023D01*
X170507241Y-117630024D01*
X170507239Y-117630025D01*
X170346825Y-117678686D01*
X170346824Y-117678686D01*
X170346821Y-117678687D01*
X170221804Y-117691000D01*
X170138196Y-117691000D01*
X170013179Y-117678687D01*
X170013176Y-117678686D01*
X170013175Y-117678686D01*
X169852761Y-117630025D01*
X169852759Y-117630024D01*
X169852756Y-117630023D01*
X169704922Y-117551005D01*
X169575341Y-117444659D01*
X169468995Y-117315078D01*
X169389977Y-117167244D01*
X169341313Y-117006821D01*
X169324883Y-116840000D01*
X169341313Y-116673179D01*
X169389977Y-116512756D01*
X169468995Y-116364922D01*
X169575341Y-116235341D01*
X169704922Y-116128995D01*
X169852756Y-116049977D01*
X169852759Y-116049976D01*
X169852761Y-116049975D01*
X170013175Y-116001314D01*
X170013176Y-116001314D01*
X170013179Y-116001313D01*
X170138196Y-115989000D01*
X170221804Y-115989000D01*
X170346821Y-116001313D01*
X170346821Y-116001313D01*
G37*
G36*
X144946821Y-114731313D02*
X144946824Y-114731314D01*
X144946825Y-114731314D01*
X145107239Y-114779975D01*
X145107241Y-114779976D01*
X145107244Y-114779977D01*
X145255078Y-114858995D01*
X145384659Y-114965341D01*
X145491005Y-115094922D01*
X145570023Y-115242756D01*
X145618687Y-115403179D01*
X145635117Y-115570000D01*
X145618687Y-115736821D01*
X145570023Y-115897244D01*
X145491005Y-116045078D01*
X145384659Y-116174659D01*
X145255078Y-116281005D01*
X145107244Y-116360023D01*
X145107241Y-116360024D01*
X145107239Y-116360025D01*
X144946825Y-116408686D01*
X144946824Y-116408686D01*
X144946821Y-116408687D01*
X144821804Y-116421000D01*
X144738196Y-116421000D01*
X144613179Y-116408687D01*
X144613176Y-116408686D01*
X144613175Y-116408686D01*
X144452761Y-116360025D01*
X144452759Y-116360024D01*
X144452756Y-116360023D01*
X144304922Y-116281005D01*
X144175341Y-116174659D01*
X144068995Y-116045078D01*
X143989977Y-115897244D01*
X143941313Y-115736821D01*
X143924883Y-115570000D01*
X143941313Y-115403179D01*
X143989977Y-115242756D01*
X144068995Y-115094922D01*
X144175341Y-114965341D01*
X144304922Y-114858995D01*
X144452756Y-114779977D01*
X144452759Y-114779976D01*
X144452761Y-114779975D01*
X144613175Y-114731314D01*
X144613176Y-114731314D01*
X144613179Y-114731313D01*
X144738196Y-114719000D01*
X144821804Y-114719000D01*
X144946821Y-114731313D01*
X144946821Y-114731313D01*
G37*
G36*
X150026821Y-114731313D02*
X150026824Y-114731314D01*
X150026825Y-114731314D01*
X150187239Y-114779975D01*
X150187241Y-114779976D01*
X150187244Y-114779977D01*
X150335078Y-114858995D01*
X150464659Y-114965341D01*
X150571005Y-115094922D01*
X150650023Y-115242756D01*
X150698687Y-115403179D01*
X150715117Y-115570000D01*
X150698687Y-115736821D01*
X150650023Y-115897244D01*
X150571005Y-116045078D01*
X150464659Y-116174659D01*
X150335078Y-116281005D01*
X150187244Y-116360023D01*
X150187241Y-116360024D01*
X150187239Y-116360025D01*
X150026825Y-116408686D01*
X150026824Y-116408686D01*
X150026821Y-116408687D01*
X149901804Y-116421000D01*
X149818196Y-116421000D01*
X149693179Y-116408687D01*
X149693176Y-116408686D01*
X149693175Y-116408686D01*
X149532761Y-116360025D01*
X149532759Y-116360024D01*
X149532756Y-116360023D01*
X149384922Y-116281005D01*
X149255341Y-116174659D01*
X149148995Y-116045078D01*
X149069977Y-115897244D01*
X149021313Y-115736821D01*
X149004883Y-115570000D01*
X149021313Y-115403179D01*
X149069977Y-115242756D01*
X149148995Y-115094922D01*
X149255341Y-114965341D01*
X149384922Y-114858995D01*
X149532756Y-114779977D01*
X149532759Y-114779976D01*
X149532761Y-114779975D01*
X149693175Y-114731314D01*
X149693176Y-114731314D01*
X149693179Y-114731313D01*
X149818196Y-114719000D01*
X149901804Y-114719000D01*
X150026821Y-114731313D01*
X150026821Y-114731313D01*
G37*
G36*
X147486821Y-114731313D02*
X147486824Y-114731314D01*
X147486825Y-114731314D01*
X147647239Y-114779975D01*
X147647241Y-114779976D01*
X147647244Y-114779977D01*
X147795078Y-114858995D01*
X147924659Y-114965341D01*
X148031005Y-115094922D01*
X148110023Y-115242756D01*
X148158687Y-115403179D01*
X148175117Y-115570000D01*
X148158687Y-115736821D01*
X148110023Y-115897244D01*
X148031005Y-116045078D01*
X147924659Y-116174659D01*
X147795078Y-116281005D01*
X147647244Y-116360023D01*
X147647241Y-116360024D01*
X147647239Y-116360025D01*
X147486825Y-116408686D01*
X147486824Y-116408686D01*
X147486821Y-116408687D01*
X147361804Y-116421000D01*
X147278196Y-116421000D01*
X147153179Y-116408687D01*
X147153176Y-116408686D01*
X147153175Y-116408686D01*
X146992761Y-116360025D01*
X146992759Y-116360024D01*
X146992756Y-116360023D01*
X146844922Y-116281005D01*
X146715341Y-116174659D01*
X146608995Y-116045078D01*
X146529977Y-115897244D01*
X146481313Y-115736821D01*
X146464883Y-115570000D01*
X146481313Y-115403179D01*
X146529977Y-115242756D01*
X146608995Y-115094922D01*
X146715341Y-114965341D01*
X146844922Y-114858995D01*
X146992756Y-114779977D01*
X146992759Y-114779976D01*
X146992761Y-114779975D01*
X147153175Y-114731314D01*
X147153176Y-114731314D01*
X147153179Y-114731313D01*
X147278196Y-114719000D01*
X147361804Y-114719000D01*
X147486821Y-114731313D01*
X147486821Y-114731313D01*
G37*
G36*
X152566821Y-114731313D02*
X152566824Y-114731314D01*
X152566825Y-114731314D01*
X152727239Y-114779975D01*
X152727241Y-114779976D01*
X152727244Y-114779977D01*
X152875078Y-114858995D01*
X153004659Y-114965341D01*
X153111005Y-115094922D01*
X153190023Y-115242756D01*
X153238687Y-115403179D01*
X153255117Y-115570000D01*
X153238687Y-115736821D01*
X153190023Y-115897244D01*
X153111005Y-116045078D01*
X153004659Y-116174659D01*
X152875078Y-116281005D01*
X152727244Y-116360023D01*
X152727241Y-116360024D01*
X152727239Y-116360025D01*
X152566825Y-116408686D01*
X152566824Y-116408686D01*
X152566821Y-116408687D01*
X152441804Y-116421000D01*
X152358196Y-116421000D01*
X152233179Y-116408687D01*
X152233176Y-116408686D01*
X152233175Y-116408686D01*
X152072761Y-116360025D01*
X152072759Y-116360024D01*
X152072756Y-116360023D01*
X151924922Y-116281005D01*
X151795341Y-116174659D01*
X151688995Y-116045078D01*
X151609977Y-115897244D01*
X151561313Y-115736821D01*
X151544883Y-115570000D01*
X151561313Y-115403179D01*
X151609977Y-115242756D01*
X151688995Y-115094922D01*
X151795341Y-114965341D01*
X151924922Y-114858995D01*
X152072756Y-114779977D01*
X152072759Y-114779976D01*
X152072761Y-114779975D01*
X152233175Y-114731314D01*
X152233176Y-114731314D01*
X152233179Y-114731313D01*
X152358196Y-114719000D01*
X152441804Y-114719000D01*
X152566821Y-114731313D01*
X152566821Y-114731313D01*
G37*
G36*
X170346821Y-113461313D02*
X170346824Y-113461314D01*
X170346825Y-113461314D01*
X170507239Y-113509975D01*
X170507241Y-113509976D01*
X170507244Y-113509977D01*
X170655078Y-113588995D01*
X170784659Y-113695341D01*
X170891005Y-113824922D01*
X170970023Y-113972756D01*
X171018687Y-114133179D01*
X171035117Y-114300000D01*
X171018687Y-114466821D01*
X170970023Y-114627244D01*
X170891005Y-114775078D01*
X170784659Y-114904659D01*
X170655078Y-115011005D01*
X170507244Y-115090023D01*
X170507241Y-115090024D01*
X170507239Y-115090025D01*
X170346825Y-115138686D01*
X170346824Y-115138686D01*
X170346821Y-115138687D01*
X170221804Y-115151000D01*
X170138196Y-115151000D01*
X170013179Y-115138687D01*
X170013176Y-115138686D01*
X170013175Y-115138686D01*
X169852761Y-115090025D01*
X169852759Y-115090024D01*
X169852756Y-115090023D01*
X169704922Y-115011005D01*
X169575341Y-114904659D01*
X169468995Y-114775078D01*
X169389977Y-114627244D01*
X169341313Y-114466821D01*
X169324883Y-114300000D01*
X169341313Y-114133179D01*
X169389977Y-113972756D01*
X169468995Y-113824922D01*
X169575341Y-113695341D01*
X169704922Y-113588995D01*
X169852756Y-113509977D01*
X169852759Y-113509976D01*
X169852761Y-113509975D01*
X170013175Y-113461314D01*
X170013176Y-113461314D01*
X170013179Y-113461313D01*
X170138196Y-113449000D01*
X170221804Y-113449000D01*
X170346821Y-113461313D01*
X170346821Y-113461313D01*
G37*
G36*
X177966821Y-113461313D02*
X177966824Y-113461314D01*
X177966825Y-113461314D01*
X178127239Y-113509975D01*
X178127241Y-113509976D01*
X178127244Y-113509977D01*
X178275078Y-113588995D01*
X178404659Y-113695341D01*
X178511005Y-113824922D01*
X178590023Y-113972756D01*
X178638687Y-114133179D01*
X178655117Y-114300000D01*
X178638687Y-114466821D01*
X178590023Y-114627244D01*
X178511005Y-114775078D01*
X178404659Y-114904659D01*
X178275078Y-115011005D01*
X178127244Y-115090023D01*
X178127241Y-115090024D01*
X178127239Y-115090025D01*
X177966825Y-115138686D01*
X177966824Y-115138686D01*
X177966821Y-115138687D01*
X177841804Y-115151000D01*
X177758196Y-115151000D01*
X177633179Y-115138687D01*
X177633176Y-115138686D01*
X177633175Y-115138686D01*
X177472761Y-115090025D01*
X177472759Y-115090024D01*
X177472756Y-115090023D01*
X177324922Y-115011005D01*
X177195341Y-114904659D01*
X177088995Y-114775078D01*
X177009977Y-114627244D01*
X176961313Y-114466821D01*
X176944883Y-114300000D01*
X176961313Y-114133179D01*
X177009977Y-113972756D01*
X177088995Y-113824922D01*
X177195341Y-113695341D01*
X177324922Y-113588995D01*
X177472756Y-113509977D01*
X177472759Y-113509976D01*
X177472761Y-113509975D01*
X177633175Y-113461314D01*
X177633176Y-113461314D01*
X177633179Y-113461313D01*
X177758196Y-113449000D01*
X177841804Y-113449000D01*
X177966821Y-113461313D01*
X177966821Y-113461313D01*
G37*
G36*
X177966821Y-110921313D02*
X177966824Y-110921314D01*
X177966825Y-110921314D01*
X178127239Y-110969975D01*
X178127241Y-110969976D01*
X178127244Y-110969977D01*
X178275078Y-111048995D01*
X178404659Y-111155341D01*
X178511005Y-111284922D01*
X178590023Y-111432756D01*
X178590024Y-111432759D01*
X178590025Y-111432761D01*
X178638686Y-111593175D01*
X178638687Y-111593179D01*
X178655117Y-111760000D01*
X178638687Y-111926821D01*
X178638686Y-111926824D01*
X178638686Y-111926825D01*
X178613993Y-112008228D01*
X178590023Y-112087244D01*
X178511005Y-112235078D01*
X178404659Y-112364659D01*
X178275078Y-112471005D01*
X178127244Y-112550023D01*
X178127241Y-112550024D01*
X178127239Y-112550025D01*
X177966825Y-112598686D01*
X177966824Y-112598686D01*
X177966821Y-112598687D01*
X177841804Y-112611000D01*
X177758196Y-112611000D01*
X177633179Y-112598687D01*
X177633176Y-112598686D01*
X177633175Y-112598686D01*
X177472761Y-112550025D01*
X177472759Y-112550024D01*
X177472756Y-112550023D01*
X177324922Y-112471005D01*
X177195341Y-112364659D01*
X177088995Y-112235078D01*
X177009977Y-112087244D01*
X176986008Y-112008228D01*
X176961314Y-111926825D01*
X176961314Y-111926824D01*
X176961313Y-111926821D01*
X176944883Y-111760000D01*
X176961313Y-111593179D01*
X176961314Y-111593175D01*
X177009975Y-111432761D01*
X177009976Y-111432759D01*
X177009977Y-111432756D01*
X177088995Y-111284922D01*
X177195341Y-111155341D01*
X177324922Y-111048995D01*
X177472756Y-110969977D01*
X177472759Y-110969976D01*
X177472761Y-110969975D01*
X177633175Y-110921314D01*
X177633176Y-110921314D01*
X177633179Y-110921313D01*
X177758196Y-110909000D01*
X177841804Y-110909000D01*
X177966821Y-110921313D01*
X177966821Y-110921313D01*
G37*
G36*
X170346821Y-110921313D02*
X170346824Y-110921314D01*
X170346825Y-110921314D01*
X170507239Y-110969975D01*
X170507241Y-110969976D01*
X170507244Y-110969977D01*
X170655078Y-111048995D01*
X170784659Y-111155341D01*
X170891005Y-111284922D01*
X170970023Y-111432756D01*
X170970024Y-111432759D01*
X170970025Y-111432761D01*
X171018686Y-111593175D01*
X171018687Y-111593179D01*
X171035117Y-111760000D01*
X171018687Y-111926821D01*
X171018686Y-111926824D01*
X171018686Y-111926825D01*
X170993993Y-112008228D01*
X170970023Y-112087244D01*
X170891005Y-112235078D01*
X170784659Y-112364659D01*
X170655078Y-112471005D01*
X170507244Y-112550023D01*
X170507241Y-112550024D01*
X170507239Y-112550025D01*
X170346825Y-112598686D01*
X170346824Y-112598686D01*
X170346821Y-112598687D01*
X170221804Y-112611000D01*
X170138196Y-112611000D01*
X170013179Y-112598687D01*
X170013176Y-112598686D01*
X170013175Y-112598686D01*
X169852761Y-112550025D01*
X169852759Y-112550024D01*
X169852756Y-112550023D01*
X169704922Y-112471005D01*
X169575341Y-112364659D01*
X169468995Y-112235078D01*
X169389977Y-112087244D01*
X169366008Y-112008228D01*
X169341314Y-111926825D01*
X169341314Y-111926824D01*
X169341313Y-111926821D01*
X169324883Y-111760000D01*
X169341313Y-111593179D01*
X169341314Y-111593175D01*
X169389975Y-111432761D01*
X169389976Y-111432759D01*
X169389977Y-111432756D01*
X169468995Y-111284922D01*
X169575341Y-111155341D01*
X169704922Y-111048995D01*
X169852756Y-110969977D01*
X169852759Y-110969976D01*
X169852761Y-110969975D01*
X170013175Y-110921314D01*
X170013176Y-110921314D01*
X170013179Y-110921313D01*
X170138196Y-110909000D01*
X170221804Y-110909000D01*
X170346821Y-110921313D01*
X170346821Y-110921313D01*
G37*
G36*
X158998228Y-110941703D02*
X159153100Y-111005853D01*
X159292481Y-111098985D01*
X159411015Y-111217519D01*
X159504147Y-111356900D01*
X159568297Y-111511772D01*
X159601000Y-111676184D01*
X159601000Y-111843816D01*
X159568297Y-112008228D01*
X159504147Y-112163100D01*
X159411015Y-112302481D01*
X159292481Y-112421015D01*
X159153100Y-112514147D01*
X158998228Y-112578297D01*
X158833816Y-112611000D01*
X158666184Y-112611000D01*
X158501772Y-112578297D01*
X158346900Y-112514147D01*
X158207519Y-112421015D01*
X158088985Y-112302481D01*
X157995853Y-112163100D01*
X157931703Y-112008228D01*
X157899000Y-111843816D01*
X157899000Y-111676184D01*
X157931703Y-111511772D01*
X157995853Y-111356900D01*
X158088985Y-111217519D01*
X158207519Y-111098985D01*
X158346900Y-111005853D01*
X158501772Y-110941703D01*
X158666184Y-110909000D01*
X158833816Y-110909000D01*
X158998228Y-110941703D01*
X158998228Y-110941703D01*
G37*
G36*
X165333643Y-109539781D02*
X165479415Y-109600162D01*
X165610611Y-109687824D01*
X165722176Y-109799389D01*
X165809838Y-109930585D01*
X165870219Y-110076357D01*
X165901000Y-110231107D01*
X165901000Y-110388893D01*
X165870219Y-110543643D01*
X165809838Y-110689415D01*
X165722176Y-110820611D01*
X165610611Y-110932176D01*
X165479415Y-111019838D01*
X165333643Y-111080219D01*
X165178893Y-111111000D01*
X165021107Y-111111000D01*
X164866357Y-111080219D01*
X164720585Y-111019838D01*
X164589389Y-110932176D01*
X164477824Y-110820611D01*
X164390162Y-110689415D01*
X164329781Y-110543643D01*
X164299000Y-110388893D01*
X164299000Y-110231107D01*
X164329781Y-110076357D01*
X164390162Y-109930585D01*
X164477824Y-109799389D01*
X164589389Y-109687824D01*
X164720585Y-109600162D01*
X164866357Y-109539781D01*
X165021107Y-109509000D01*
X165178893Y-109509000D01*
X165333643Y-109539781D01*
X165333643Y-109539781D01*
G37*
G36*
X158998228Y-108441703D02*
X159153100Y-108505853D01*
X159292481Y-108598985D01*
X159411015Y-108717519D01*
X159504147Y-108856900D01*
X159568297Y-109011772D01*
X159601000Y-109176184D01*
X159601000Y-109343816D01*
X159568297Y-109508228D01*
X159504147Y-109663100D01*
X159411015Y-109802481D01*
X159292481Y-109921015D01*
X159153100Y-110014147D01*
X158998228Y-110078297D01*
X158833816Y-110111000D01*
X158666184Y-110111000D01*
X158501772Y-110078297D01*
X158346900Y-110014147D01*
X158207519Y-109921015D01*
X158088985Y-109802481D01*
X157995853Y-109663100D01*
X157931703Y-109508228D01*
X157899000Y-109343816D01*
X157899000Y-109176184D01*
X157931703Y-109011772D01*
X157995853Y-108856900D01*
X158088985Y-108717519D01*
X158207519Y-108598985D01*
X158346900Y-108505853D01*
X158501772Y-108441703D01*
X158666184Y-108409000D01*
X158833816Y-108409000D01*
X158998228Y-108441703D01*
X158998228Y-108441703D01*
G37*
G36*
X177966821Y-108381313D02*
X177966824Y-108381314D01*
X177966825Y-108381314D01*
X178127239Y-108429975D01*
X178127241Y-108429976D01*
X178127244Y-108429977D01*
X178275078Y-108508995D01*
X178404659Y-108615341D01*
X178511005Y-108744922D01*
X178590023Y-108892756D01*
X178590024Y-108892759D01*
X178590025Y-108892761D01*
X178638686Y-109053175D01*
X178638687Y-109053179D01*
X178655117Y-109220000D01*
X178638687Y-109386821D01*
X178638686Y-109386824D01*
X178638686Y-109386825D01*
X178601625Y-109509000D01*
X178590023Y-109547244D01*
X178511005Y-109695078D01*
X178404659Y-109824659D01*
X178275078Y-109931005D01*
X178127244Y-110010023D01*
X178127241Y-110010024D01*
X178127239Y-110010025D01*
X177966825Y-110058686D01*
X177966824Y-110058686D01*
X177966821Y-110058687D01*
X177841804Y-110071000D01*
X177758196Y-110071000D01*
X177633179Y-110058687D01*
X177633176Y-110058686D01*
X177633175Y-110058686D01*
X177472761Y-110010025D01*
X177472759Y-110010024D01*
X177472756Y-110010023D01*
X177324922Y-109931005D01*
X177195341Y-109824659D01*
X177088995Y-109695078D01*
X177009977Y-109547244D01*
X176998376Y-109509000D01*
X176961314Y-109386825D01*
X176961314Y-109386824D01*
X176961313Y-109386821D01*
X176944883Y-109220000D01*
X176961313Y-109053179D01*
X176961314Y-109053175D01*
X177009975Y-108892761D01*
X177009976Y-108892759D01*
X177009977Y-108892756D01*
X177088995Y-108744922D01*
X177195341Y-108615341D01*
X177324922Y-108508995D01*
X177472756Y-108429977D01*
X177472759Y-108429976D01*
X177472761Y-108429975D01*
X177633175Y-108381314D01*
X177633176Y-108381314D01*
X177633179Y-108381313D01*
X177758196Y-108369000D01*
X177841804Y-108369000D01*
X177966821Y-108381313D01*
X177966821Y-108381313D01*
G37*
G36*
X190666821Y-108381313D02*
X190666824Y-108381314D01*
X190666825Y-108381314D01*
X190827239Y-108429975D01*
X190827241Y-108429976D01*
X190827244Y-108429977D01*
X190975078Y-108508995D01*
X191104659Y-108615341D01*
X191211005Y-108744922D01*
X191290023Y-108892756D01*
X191290024Y-108892759D01*
X191290025Y-108892761D01*
X191338686Y-109053175D01*
X191338687Y-109053179D01*
X191355117Y-109220000D01*
X191338687Y-109386821D01*
X191338686Y-109386824D01*
X191338686Y-109386825D01*
X191301625Y-109509000D01*
X191290023Y-109547244D01*
X191211005Y-109695078D01*
X191104659Y-109824659D01*
X190975078Y-109931005D01*
X190827244Y-110010023D01*
X190827241Y-110010024D01*
X190827239Y-110010025D01*
X190666825Y-110058686D01*
X190666824Y-110058686D01*
X190666821Y-110058687D01*
X190541804Y-110071000D01*
X190458196Y-110071000D01*
X190333179Y-110058687D01*
X190333176Y-110058686D01*
X190333175Y-110058686D01*
X190172761Y-110010025D01*
X190172759Y-110010024D01*
X190172756Y-110010023D01*
X190024922Y-109931005D01*
X189895341Y-109824659D01*
X189788995Y-109695078D01*
X189709977Y-109547244D01*
X189698376Y-109509000D01*
X189661314Y-109386825D01*
X189661314Y-109386824D01*
X189661313Y-109386821D01*
X189644883Y-109220000D01*
X189661313Y-109053179D01*
X189661314Y-109053175D01*
X189709975Y-108892761D01*
X189709976Y-108892759D01*
X189709977Y-108892756D01*
X189788995Y-108744922D01*
X189895341Y-108615341D01*
X190024922Y-108508995D01*
X190172756Y-108429977D01*
X190172759Y-108429976D01*
X190172761Y-108429975D01*
X190333175Y-108381314D01*
X190333176Y-108381314D01*
X190333179Y-108381313D01*
X190458196Y-108369000D01*
X190541804Y-108369000D01*
X190666821Y-108381313D01*
X190666821Y-108381313D01*
G37*
G36*
X198286821Y-108381313D02*
X198286824Y-108381314D01*
X198286825Y-108381314D01*
X198447239Y-108429975D01*
X198447241Y-108429976D01*
X198447244Y-108429977D01*
X198595078Y-108508995D01*
X198724659Y-108615341D01*
X198831005Y-108744922D01*
X198910023Y-108892756D01*
X198910024Y-108892759D01*
X198910025Y-108892761D01*
X198958686Y-109053175D01*
X198958687Y-109053179D01*
X198975117Y-109220000D01*
X198958687Y-109386821D01*
X198958686Y-109386824D01*
X198958686Y-109386825D01*
X198921625Y-109509000D01*
X198910023Y-109547244D01*
X198831005Y-109695078D01*
X198724659Y-109824659D01*
X198595078Y-109931005D01*
X198447244Y-110010023D01*
X198447241Y-110010024D01*
X198447239Y-110010025D01*
X198286825Y-110058686D01*
X198286824Y-110058686D01*
X198286821Y-110058687D01*
X198161804Y-110071000D01*
X198078196Y-110071000D01*
X197953179Y-110058687D01*
X197953176Y-110058686D01*
X197953175Y-110058686D01*
X197792761Y-110010025D01*
X197792759Y-110010024D01*
X197792756Y-110010023D01*
X197644922Y-109931005D01*
X197515341Y-109824659D01*
X197408995Y-109695078D01*
X197329977Y-109547244D01*
X197318376Y-109509000D01*
X197281314Y-109386825D01*
X197281314Y-109386824D01*
X197281313Y-109386821D01*
X197264883Y-109220000D01*
X197281313Y-109053179D01*
X197281314Y-109053175D01*
X197329975Y-108892761D01*
X197329976Y-108892759D01*
X197329977Y-108892756D01*
X197408995Y-108744922D01*
X197515341Y-108615341D01*
X197644922Y-108508995D01*
X197792756Y-108429977D01*
X197792759Y-108429976D01*
X197792761Y-108429975D01*
X197953175Y-108381314D01*
X197953176Y-108381314D01*
X197953179Y-108381313D01*
X198078196Y-108369000D01*
X198161804Y-108369000D01*
X198286821Y-108381313D01*
X198286821Y-108381313D01*
G37*
G36*
X170346821Y-108381313D02*
X170346824Y-108381314D01*
X170346825Y-108381314D01*
X170507239Y-108429975D01*
X170507241Y-108429976D01*
X170507244Y-108429977D01*
X170655078Y-108508995D01*
X170784659Y-108615341D01*
X170891005Y-108744922D01*
X170970023Y-108892756D01*
X170970024Y-108892759D01*
X170970025Y-108892761D01*
X171018686Y-109053175D01*
X171018687Y-109053179D01*
X171035117Y-109220000D01*
X171018687Y-109386821D01*
X171018686Y-109386824D01*
X171018686Y-109386825D01*
X170981625Y-109509000D01*
X170970023Y-109547244D01*
X170891005Y-109695078D01*
X170784659Y-109824659D01*
X170655078Y-109931005D01*
X170507244Y-110010023D01*
X170507241Y-110010024D01*
X170507239Y-110010025D01*
X170346825Y-110058686D01*
X170346824Y-110058686D01*
X170346821Y-110058687D01*
X170221804Y-110071000D01*
X170138196Y-110071000D01*
X170013179Y-110058687D01*
X170013176Y-110058686D01*
X170013175Y-110058686D01*
X169852761Y-110010025D01*
X169852759Y-110010024D01*
X169852756Y-110010023D01*
X169704922Y-109931005D01*
X169575341Y-109824659D01*
X169468995Y-109695078D01*
X169389977Y-109547244D01*
X169378376Y-109509000D01*
X169341314Y-109386825D01*
X169341314Y-109386824D01*
X169341313Y-109386821D01*
X169324883Y-109220000D01*
X169341313Y-109053179D01*
X169341314Y-109053175D01*
X169389975Y-108892761D01*
X169389976Y-108892759D01*
X169389977Y-108892756D01*
X169468995Y-108744922D01*
X169575341Y-108615341D01*
X169704922Y-108508995D01*
X169852756Y-108429977D01*
X169852759Y-108429976D01*
X169852761Y-108429975D01*
X170013175Y-108381314D01*
X170013176Y-108381314D01*
X170013179Y-108381313D01*
X170138196Y-108369000D01*
X170221804Y-108369000D01*
X170346821Y-108381313D01*
X170346821Y-108381313D01*
G37*
G36*
X144946821Y-107111313D02*
X144946824Y-107111314D01*
X144946825Y-107111314D01*
X145107239Y-107159975D01*
X145107241Y-107159976D01*
X145107244Y-107159977D01*
X145255078Y-107238995D01*
X145384659Y-107345341D01*
X145491005Y-107474922D01*
X145570023Y-107622756D01*
X145570024Y-107622759D01*
X145570025Y-107622761D01*
X145614824Y-107770443D01*
X145618687Y-107783179D01*
X145635117Y-107950000D01*
X145618687Y-108116821D01*
X145570023Y-108277244D01*
X145491005Y-108425078D01*
X145384659Y-108554659D01*
X145255078Y-108661005D01*
X145107244Y-108740023D01*
X145107241Y-108740024D01*
X145107239Y-108740025D01*
X144946825Y-108788686D01*
X144946824Y-108788686D01*
X144946821Y-108788687D01*
X144821804Y-108801000D01*
X144738196Y-108801000D01*
X144613179Y-108788687D01*
X144613176Y-108788686D01*
X144613175Y-108788686D01*
X144452761Y-108740025D01*
X144452759Y-108740024D01*
X144452756Y-108740023D01*
X144304922Y-108661005D01*
X144175341Y-108554659D01*
X144068995Y-108425078D01*
X143989977Y-108277244D01*
X143941313Y-108116821D01*
X143924883Y-107950000D01*
X143941313Y-107783179D01*
X143945176Y-107770443D01*
X143989975Y-107622761D01*
X143989976Y-107622759D01*
X143989977Y-107622756D01*
X144068995Y-107474922D01*
X144175341Y-107345341D01*
X144304922Y-107238995D01*
X144452756Y-107159977D01*
X144452759Y-107159976D01*
X144452761Y-107159975D01*
X144613175Y-107111314D01*
X144613176Y-107111314D01*
X144613179Y-107111313D01*
X144738196Y-107099000D01*
X144821804Y-107099000D01*
X144946821Y-107111313D01*
X144946821Y-107111313D01*
G37*
G36*
X147486821Y-107111313D02*
X147486824Y-107111314D01*
X147486825Y-107111314D01*
X147647239Y-107159975D01*
X147647241Y-107159976D01*
X147647244Y-107159977D01*
X147795078Y-107238995D01*
X147924659Y-107345341D01*
X148031005Y-107474922D01*
X148110023Y-107622756D01*
X148110024Y-107622759D01*
X148110025Y-107622761D01*
X148154824Y-107770443D01*
X148158687Y-107783179D01*
X148175117Y-107950000D01*
X148158687Y-108116821D01*
X148110023Y-108277244D01*
X148031005Y-108425078D01*
X147924659Y-108554659D01*
X147795078Y-108661005D01*
X147647244Y-108740023D01*
X147647241Y-108740024D01*
X147647239Y-108740025D01*
X147486825Y-108788686D01*
X147486824Y-108788686D01*
X147486821Y-108788687D01*
X147361804Y-108801000D01*
X147278196Y-108801000D01*
X147153179Y-108788687D01*
X147153176Y-108788686D01*
X147153175Y-108788686D01*
X146992761Y-108740025D01*
X146992759Y-108740024D01*
X146992756Y-108740023D01*
X146844922Y-108661005D01*
X146715341Y-108554659D01*
X146608995Y-108425078D01*
X146529977Y-108277244D01*
X146481313Y-108116821D01*
X146464883Y-107950000D01*
X146481313Y-107783179D01*
X146485176Y-107770443D01*
X146529975Y-107622761D01*
X146529976Y-107622759D01*
X146529977Y-107622756D01*
X146608995Y-107474922D01*
X146715341Y-107345341D01*
X146844922Y-107238995D01*
X146992756Y-107159977D01*
X146992759Y-107159976D01*
X146992761Y-107159975D01*
X147153175Y-107111314D01*
X147153176Y-107111314D01*
X147153179Y-107111313D01*
X147278196Y-107099000D01*
X147361804Y-107099000D01*
X147486821Y-107111313D01*
X147486821Y-107111313D01*
G37*
G36*
X150026821Y-107111313D02*
X150026824Y-107111314D01*
X150026825Y-107111314D01*
X150187239Y-107159975D01*
X150187241Y-107159976D01*
X150187244Y-107159977D01*
X150335078Y-107238995D01*
X150464659Y-107345341D01*
X150571005Y-107474922D01*
X150650023Y-107622756D01*
X150650024Y-107622759D01*
X150650025Y-107622761D01*
X150694824Y-107770443D01*
X150698687Y-107783179D01*
X150715117Y-107950000D01*
X150698687Y-108116821D01*
X150650023Y-108277244D01*
X150571005Y-108425078D01*
X150464659Y-108554659D01*
X150335078Y-108661005D01*
X150187244Y-108740023D01*
X150187241Y-108740024D01*
X150187239Y-108740025D01*
X150026825Y-108788686D01*
X150026824Y-108788686D01*
X150026821Y-108788687D01*
X149901804Y-108801000D01*
X149818196Y-108801000D01*
X149693179Y-108788687D01*
X149693176Y-108788686D01*
X149693175Y-108788686D01*
X149532761Y-108740025D01*
X149532759Y-108740024D01*
X149532756Y-108740023D01*
X149384922Y-108661005D01*
X149255341Y-108554659D01*
X149148995Y-108425078D01*
X149069977Y-108277244D01*
X149021313Y-108116821D01*
X149004883Y-107950000D01*
X149021313Y-107783179D01*
X149025176Y-107770443D01*
X149069975Y-107622761D01*
X149069976Y-107622759D01*
X149069977Y-107622756D01*
X149148995Y-107474922D01*
X149255341Y-107345341D01*
X149384922Y-107238995D01*
X149532756Y-107159977D01*
X149532759Y-107159976D01*
X149532761Y-107159975D01*
X149693175Y-107111314D01*
X149693176Y-107111314D01*
X149693179Y-107111313D01*
X149818196Y-107099000D01*
X149901804Y-107099000D01*
X150026821Y-107111313D01*
X150026821Y-107111313D01*
G37*
G36*
X153251000Y-108801000D02*
X151549000Y-108801000D01*
X151549000Y-107099000D01*
X153251000Y-107099000D01*
X153251000Y-108801000D01*
X153251000Y-108801000D01*
G37*
G36*
X183244443Y-106039519D02*
X183310627Y-106046037D01*
X183423853Y-106080384D01*
X183480467Y-106097557D01*
X183619087Y-106171652D01*
X183636991Y-106181222D01*
X183665869Y-106204922D01*
X183774186Y-106293814D01*
X183857448Y-106395271D01*
X183886778Y-106431009D01*
X183886779Y-106431011D01*
X183970443Y-106587533D01*
X183970443Y-106587534D01*
X184021963Y-106757373D01*
X184039359Y-106934000D01*
X184021963Y-107110627D01*
X184008479Y-107155078D01*
X183970443Y-107280467D01*
X183911359Y-107391004D01*
X183886778Y-107436991D01*
X183857448Y-107472729D01*
X183774186Y-107574186D01*
X183672729Y-107657448D01*
X183636991Y-107686778D01*
X183636989Y-107686779D01*
X183480467Y-107770443D01*
X183438494Y-107783175D01*
X183310627Y-107821963D01*
X183244443Y-107828481D01*
X183178260Y-107835000D01*
X183089740Y-107835000D01*
X183023557Y-107828481D01*
X182957373Y-107821963D01*
X182829506Y-107783175D01*
X182787533Y-107770443D01*
X182631011Y-107686779D01*
X182631009Y-107686778D01*
X182595271Y-107657448D01*
X182493814Y-107574186D01*
X182410552Y-107472729D01*
X182381222Y-107436991D01*
X182356641Y-107391004D01*
X182297557Y-107280467D01*
X182259521Y-107155078D01*
X182246037Y-107110627D01*
X182228641Y-106934000D01*
X182246037Y-106757373D01*
X182297557Y-106587534D01*
X182297557Y-106587533D01*
X182381221Y-106431011D01*
X182381222Y-106431009D01*
X182410552Y-106395271D01*
X182493814Y-106293814D01*
X182602131Y-106204922D01*
X182631009Y-106181222D01*
X182648913Y-106171652D01*
X182787533Y-106097557D01*
X182844147Y-106080384D01*
X182957373Y-106046037D01*
X183023557Y-106039519D01*
X183089740Y-106033000D01*
X183178260Y-106033000D01*
X183244443Y-106039519D01*
X183244443Y-106039519D01*
G37*
G36*
X186575000Y-107835000D02*
X184773000Y-107835000D01*
X184773000Y-106033000D01*
X186575000Y-106033000D01*
X186575000Y-107835000D01*
X186575000Y-107835000D01*
G37*
G36*
X158998228Y-105861703D02*
X159153100Y-105925853D01*
X159292481Y-106018985D01*
X159411015Y-106137519D01*
X159504147Y-106276900D01*
X159568297Y-106431772D01*
X159601000Y-106596184D01*
X159601000Y-106763816D01*
X159568297Y-106928228D01*
X159504147Y-107083100D01*
X159411015Y-107222481D01*
X159292481Y-107341015D01*
X159153100Y-107434147D01*
X158998228Y-107498297D01*
X158833816Y-107531000D01*
X158666184Y-107531000D01*
X158501772Y-107498297D01*
X158346900Y-107434147D01*
X158207519Y-107341015D01*
X158088985Y-107222481D01*
X157995853Y-107083100D01*
X157931703Y-106928228D01*
X157899000Y-106763816D01*
X157899000Y-106596184D01*
X157931703Y-106431772D01*
X157995853Y-106276900D01*
X158088985Y-106137519D01*
X158207519Y-106018985D01*
X158346900Y-105925853D01*
X158501772Y-105861703D01*
X158666184Y-105829000D01*
X158833816Y-105829000D01*
X158998228Y-105861703D01*
X158998228Y-105861703D01*
G37*
G36*
X177966821Y-105841313D02*
X177966824Y-105841314D01*
X177966825Y-105841314D01*
X178127239Y-105889975D01*
X178127241Y-105889976D01*
X178127244Y-105889977D01*
X178275078Y-105968995D01*
X178404659Y-106075341D01*
X178511005Y-106204922D01*
X178590023Y-106352756D01*
X178590024Y-106352759D01*
X178590025Y-106352761D01*
X178638686Y-106513175D01*
X178638687Y-106513179D01*
X178655117Y-106680000D01*
X178638687Y-106846821D01*
X178638686Y-106846824D01*
X178638686Y-106846825D01*
X178612242Y-106934000D01*
X178590023Y-107007244D01*
X178511005Y-107155078D01*
X178404659Y-107284659D01*
X178275078Y-107391005D01*
X178127244Y-107470023D01*
X178127241Y-107470024D01*
X178127239Y-107470025D01*
X177966825Y-107518686D01*
X177966824Y-107518686D01*
X177966821Y-107518687D01*
X177841804Y-107531000D01*
X177758196Y-107531000D01*
X177633179Y-107518687D01*
X177633176Y-107518686D01*
X177633175Y-107518686D01*
X177472761Y-107470025D01*
X177472759Y-107470024D01*
X177472756Y-107470023D01*
X177324922Y-107391005D01*
X177195341Y-107284659D01*
X177088995Y-107155078D01*
X177009977Y-107007244D01*
X176987759Y-106934000D01*
X176961314Y-106846825D01*
X176961314Y-106846824D01*
X176961313Y-106846821D01*
X176944883Y-106680000D01*
X176961313Y-106513179D01*
X176961314Y-106513175D01*
X177009975Y-106352761D01*
X177009976Y-106352759D01*
X177009977Y-106352756D01*
X177088995Y-106204922D01*
X177195341Y-106075341D01*
X177324922Y-105968995D01*
X177472756Y-105889977D01*
X177472759Y-105889976D01*
X177472761Y-105889975D01*
X177633175Y-105841314D01*
X177633176Y-105841314D01*
X177633179Y-105841313D01*
X177758196Y-105829000D01*
X177841804Y-105829000D01*
X177966821Y-105841313D01*
X177966821Y-105841313D01*
G37*
G36*
X170346821Y-105841313D02*
X170346824Y-105841314D01*
X170346825Y-105841314D01*
X170507239Y-105889975D01*
X170507241Y-105889976D01*
X170507244Y-105889977D01*
X170655078Y-105968995D01*
X170784659Y-106075341D01*
X170891005Y-106204922D01*
X170970023Y-106352756D01*
X170970024Y-106352759D01*
X170970025Y-106352761D01*
X171018686Y-106513175D01*
X171018687Y-106513179D01*
X171035117Y-106680000D01*
X171018687Y-106846821D01*
X171018686Y-106846824D01*
X171018686Y-106846825D01*
X170992242Y-106934000D01*
X170970023Y-107007244D01*
X170891005Y-107155078D01*
X170784659Y-107284659D01*
X170655078Y-107391005D01*
X170507244Y-107470023D01*
X170507241Y-107470024D01*
X170507239Y-107470025D01*
X170346825Y-107518686D01*
X170346824Y-107518686D01*
X170346821Y-107518687D01*
X170221804Y-107531000D01*
X170138196Y-107531000D01*
X170013179Y-107518687D01*
X170013176Y-107518686D01*
X170013175Y-107518686D01*
X169852761Y-107470025D01*
X169852759Y-107470024D01*
X169852756Y-107470023D01*
X169704922Y-107391005D01*
X169575341Y-107284659D01*
X169468995Y-107155078D01*
X169389977Y-107007244D01*
X169367759Y-106934000D01*
X169341314Y-106846825D01*
X169341314Y-106846824D01*
X169341313Y-106846821D01*
X169324883Y-106680000D01*
X169341313Y-106513179D01*
X169341314Y-106513175D01*
X169389975Y-106352761D01*
X169389976Y-106352759D01*
X169389977Y-106352756D01*
X169468995Y-106204922D01*
X169575341Y-106075341D01*
X169704922Y-105968995D01*
X169852756Y-105889977D01*
X169852759Y-105889976D01*
X169852761Y-105889975D01*
X170013175Y-105841314D01*
X170013176Y-105841314D01*
X170013179Y-105841313D01*
X170138196Y-105829000D01*
X170221804Y-105829000D01*
X170346821Y-105841313D01*
X170346821Y-105841313D01*
G37*
G36*
X190666821Y-105841313D02*
X190666824Y-105841314D01*
X190666825Y-105841314D01*
X190827239Y-105889975D01*
X190827241Y-105889976D01*
X190827244Y-105889977D01*
X190975078Y-105968995D01*
X191104659Y-106075341D01*
X191211005Y-106204922D01*
X191290023Y-106352756D01*
X191290024Y-106352759D01*
X191290025Y-106352761D01*
X191338686Y-106513175D01*
X191338687Y-106513179D01*
X191355117Y-106680000D01*
X191338687Y-106846821D01*
X191338686Y-106846824D01*
X191338686Y-106846825D01*
X191312242Y-106934000D01*
X191290023Y-107007244D01*
X191211005Y-107155078D01*
X191104659Y-107284659D01*
X190975078Y-107391005D01*
X190827244Y-107470023D01*
X190827241Y-107470024D01*
X190827239Y-107470025D01*
X190666825Y-107518686D01*
X190666824Y-107518686D01*
X190666821Y-107518687D01*
X190541804Y-107531000D01*
X190458196Y-107531000D01*
X190333179Y-107518687D01*
X190333176Y-107518686D01*
X190333175Y-107518686D01*
X190172761Y-107470025D01*
X190172759Y-107470024D01*
X190172756Y-107470023D01*
X190024922Y-107391005D01*
X189895341Y-107284659D01*
X189788995Y-107155078D01*
X189709977Y-107007244D01*
X189687759Y-106934000D01*
X189661314Y-106846825D01*
X189661314Y-106846824D01*
X189661313Y-106846821D01*
X189644883Y-106680000D01*
X189661313Y-106513179D01*
X189661314Y-106513175D01*
X189709975Y-106352761D01*
X189709976Y-106352759D01*
X189709977Y-106352756D01*
X189788995Y-106204922D01*
X189895341Y-106075341D01*
X190024922Y-105968995D01*
X190172756Y-105889977D01*
X190172759Y-105889976D01*
X190172761Y-105889975D01*
X190333175Y-105841314D01*
X190333176Y-105841314D01*
X190333179Y-105841313D01*
X190458196Y-105829000D01*
X190541804Y-105829000D01*
X190666821Y-105841313D01*
X190666821Y-105841313D01*
G37*
G36*
X198286821Y-105841313D02*
X198286824Y-105841314D01*
X198286825Y-105841314D01*
X198447239Y-105889975D01*
X198447241Y-105889976D01*
X198447244Y-105889977D01*
X198595078Y-105968995D01*
X198724659Y-106075341D01*
X198831005Y-106204922D01*
X198910023Y-106352756D01*
X198910024Y-106352759D01*
X198910025Y-106352761D01*
X198958686Y-106513175D01*
X198958687Y-106513179D01*
X198975117Y-106680000D01*
X198958687Y-106846821D01*
X198958686Y-106846824D01*
X198958686Y-106846825D01*
X198932242Y-106934000D01*
X198910023Y-107007244D01*
X198831005Y-107155078D01*
X198724659Y-107284659D01*
X198595078Y-107391005D01*
X198447244Y-107470023D01*
X198447241Y-107470024D01*
X198447239Y-107470025D01*
X198286825Y-107518686D01*
X198286824Y-107518686D01*
X198286821Y-107518687D01*
X198161804Y-107531000D01*
X198078196Y-107531000D01*
X197953179Y-107518687D01*
X197953176Y-107518686D01*
X197953175Y-107518686D01*
X197792761Y-107470025D01*
X197792759Y-107470024D01*
X197792756Y-107470023D01*
X197644922Y-107391005D01*
X197515341Y-107284659D01*
X197408995Y-107155078D01*
X197329977Y-107007244D01*
X197307759Y-106934000D01*
X197281314Y-106846825D01*
X197281314Y-106846824D01*
X197281313Y-106846821D01*
X197264883Y-106680000D01*
X197281313Y-106513179D01*
X197281314Y-106513175D01*
X197329975Y-106352761D01*
X197329976Y-106352759D01*
X197329977Y-106352756D01*
X197408995Y-106204922D01*
X197515341Y-106075341D01*
X197644922Y-105968995D01*
X197792756Y-105889977D01*
X197792759Y-105889976D01*
X197792761Y-105889975D01*
X197953175Y-105841314D01*
X197953176Y-105841314D01*
X197953179Y-105841313D01*
X198078196Y-105829000D01*
X198161804Y-105829000D01*
X198286821Y-105841313D01*
X198286821Y-105841313D01*
G37*
G36*
X165333643Y-104639781D02*
X165479415Y-104700162D01*
X165610611Y-104787824D01*
X165722176Y-104899389D01*
X165809838Y-105030585D01*
X165870219Y-105176357D01*
X165901000Y-105331107D01*
X165901000Y-105488893D01*
X165870219Y-105643643D01*
X165809838Y-105789415D01*
X165722176Y-105920611D01*
X165610611Y-106032176D01*
X165479415Y-106119838D01*
X165333643Y-106180219D01*
X165178893Y-106211000D01*
X165021107Y-106211000D01*
X164866357Y-106180219D01*
X164720585Y-106119838D01*
X164589389Y-106032176D01*
X164477824Y-105920611D01*
X164390162Y-105789415D01*
X164329781Y-105643643D01*
X164299000Y-105488893D01*
X164299000Y-105331107D01*
X164329781Y-105176357D01*
X164390162Y-105030585D01*
X164477824Y-104899389D01*
X164589389Y-104787824D01*
X164720585Y-104700162D01*
X164866357Y-104639781D01*
X165021107Y-104609000D01*
X165178893Y-104609000D01*
X165333643Y-104639781D01*
X165333643Y-104639781D01*
G37*
G36*
X183244442Y-103499518D02*
X183310627Y-103506037D01*
X183423853Y-103540384D01*
X183480467Y-103557557D01*
X183619087Y-103631652D01*
X183636991Y-103641222D01*
X183665869Y-103664922D01*
X183774186Y-103753814D01*
X183857448Y-103855271D01*
X183886778Y-103891009D01*
X183886779Y-103891011D01*
X183970443Y-104047533D01*
X183970443Y-104047534D01*
X184021963Y-104217373D01*
X184039359Y-104394000D01*
X184021963Y-104570627D01*
X184008479Y-104615078D01*
X183970443Y-104740467D01*
X183916699Y-104841014D01*
X183886778Y-104896991D01*
X183857448Y-104932729D01*
X183774186Y-105034186D01*
X183672729Y-105117448D01*
X183636991Y-105146778D01*
X183636989Y-105146779D01*
X183480467Y-105230443D01*
X183423853Y-105247616D01*
X183310627Y-105281963D01*
X183244443Y-105288481D01*
X183178260Y-105295000D01*
X183089740Y-105295000D01*
X183023558Y-105288482D01*
X182957373Y-105281963D01*
X182844147Y-105247616D01*
X182787533Y-105230443D01*
X182631011Y-105146779D01*
X182631009Y-105146778D01*
X182595271Y-105117448D01*
X182493814Y-105034186D01*
X182410552Y-104932729D01*
X182381222Y-104896991D01*
X182351301Y-104841014D01*
X182297557Y-104740467D01*
X182259521Y-104615078D01*
X182246037Y-104570627D01*
X182228641Y-104394000D01*
X182246037Y-104217373D01*
X182297557Y-104047534D01*
X182297557Y-104047533D01*
X182381221Y-103891011D01*
X182381222Y-103891009D01*
X182410552Y-103855271D01*
X182493814Y-103753814D01*
X182602131Y-103664922D01*
X182631009Y-103641222D01*
X182648913Y-103631652D01*
X182787533Y-103557557D01*
X182844147Y-103540384D01*
X182957373Y-103506037D01*
X183023557Y-103499519D01*
X183089740Y-103493000D01*
X183178260Y-103493000D01*
X183244442Y-103499518D01*
X183244442Y-103499518D01*
G37*
G36*
X185784442Y-103499518D02*
X185850627Y-103506037D01*
X185963853Y-103540384D01*
X186020467Y-103557557D01*
X186159087Y-103631652D01*
X186176991Y-103641222D01*
X186205869Y-103664922D01*
X186314186Y-103753814D01*
X186397448Y-103855271D01*
X186426778Y-103891009D01*
X186426779Y-103891011D01*
X186510443Y-104047533D01*
X186510443Y-104047534D01*
X186561963Y-104217373D01*
X186579359Y-104394000D01*
X186561963Y-104570627D01*
X186548479Y-104615078D01*
X186510443Y-104740467D01*
X186456699Y-104841014D01*
X186426778Y-104896991D01*
X186397448Y-104932729D01*
X186314186Y-105034186D01*
X186212729Y-105117448D01*
X186176991Y-105146778D01*
X186176989Y-105146779D01*
X186020467Y-105230443D01*
X185963853Y-105247616D01*
X185850627Y-105281963D01*
X185784443Y-105288481D01*
X185718260Y-105295000D01*
X185629740Y-105295000D01*
X185563558Y-105288482D01*
X185497373Y-105281963D01*
X185384147Y-105247616D01*
X185327533Y-105230443D01*
X185171011Y-105146779D01*
X185171009Y-105146778D01*
X185135271Y-105117448D01*
X185033814Y-105034186D01*
X184950552Y-104932729D01*
X184921222Y-104896991D01*
X184891301Y-104841014D01*
X184837557Y-104740467D01*
X184799521Y-104615078D01*
X184786037Y-104570627D01*
X184768641Y-104394000D01*
X184786037Y-104217373D01*
X184837557Y-104047534D01*
X184837557Y-104047533D01*
X184921221Y-103891011D01*
X184921222Y-103891009D01*
X184950552Y-103855271D01*
X185033814Y-103753814D01*
X185142131Y-103664922D01*
X185171009Y-103641222D01*
X185188913Y-103631652D01*
X185327533Y-103557557D01*
X185384147Y-103540384D01*
X185497373Y-103506037D01*
X185563557Y-103499519D01*
X185629740Y-103493000D01*
X185718260Y-103493000D01*
X185784442Y-103499518D01*
X185784442Y-103499518D01*
G37*
G36*
X158998228Y-103361703D02*
X159153100Y-103425853D01*
X159292481Y-103518985D01*
X159411015Y-103637519D01*
X159504147Y-103776900D01*
X159568297Y-103931772D01*
X159601000Y-104096184D01*
X159601000Y-104263816D01*
X159568297Y-104428228D01*
X159504147Y-104583100D01*
X159411015Y-104722481D01*
X159292481Y-104841015D01*
X159153100Y-104934147D01*
X158998228Y-104998297D01*
X158833816Y-105031000D01*
X158666184Y-105031000D01*
X158501772Y-104998297D01*
X158346900Y-104934147D01*
X158207519Y-104841015D01*
X158088985Y-104722481D01*
X157995853Y-104583100D01*
X157931703Y-104428228D01*
X157899000Y-104263816D01*
X157899000Y-104096184D01*
X157931703Y-103931772D01*
X157995853Y-103776900D01*
X158088985Y-103637519D01*
X158207519Y-103518985D01*
X158346900Y-103425853D01*
X158501772Y-103361703D01*
X158666184Y-103329000D01*
X158833816Y-103329000D01*
X158998228Y-103361703D01*
X158998228Y-103361703D01*
G37*
G36*
X198286821Y-103301313D02*
X198286824Y-103301314D01*
X198286825Y-103301314D01*
X198447239Y-103349975D01*
X198447241Y-103349976D01*
X198447244Y-103349977D01*
X198595078Y-103428995D01*
X198724659Y-103535341D01*
X198831005Y-103664922D01*
X198910023Y-103812756D01*
X198910024Y-103812759D01*
X198910025Y-103812761D01*
X198958686Y-103973175D01*
X198958687Y-103973179D01*
X198975117Y-104140000D01*
X198958687Y-104306821D01*
X198958686Y-104306824D01*
X198958686Y-104306825D01*
X198921859Y-104428228D01*
X198910023Y-104467244D01*
X198831005Y-104615078D01*
X198724659Y-104744659D01*
X198595078Y-104851005D01*
X198447244Y-104930023D01*
X198447241Y-104930024D01*
X198447239Y-104930025D01*
X198286825Y-104978686D01*
X198286824Y-104978686D01*
X198286821Y-104978687D01*
X198161804Y-104991000D01*
X198078196Y-104991000D01*
X197953179Y-104978687D01*
X197953176Y-104978686D01*
X197953175Y-104978686D01*
X197792761Y-104930025D01*
X197792759Y-104930024D01*
X197792756Y-104930023D01*
X197644922Y-104851005D01*
X197515341Y-104744659D01*
X197408995Y-104615078D01*
X197329977Y-104467244D01*
X197318142Y-104428228D01*
X197281314Y-104306825D01*
X197281314Y-104306824D01*
X197281313Y-104306821D01*
X197264883Y-104140000D01*
X197281313Y-103973179D01*
X197281314Y-103973175D01*
X197329975Y-103812761D01*
X197329976Y-103812759D01*
X197329977Y-103812756D01*
X197408995Y-103664922D01*
X197515341Y-103535341D01*
X197644922Y-103428995D01*
X197792756Y-103349977D01*
X197792759Y-103349976D01*
X197792761Y-103349975D01*
X197953175Y-103301314D01*
X197953176Y-103301314D01*
X197953179Y-103301313D01*
X198078196Y-103289000D01*
X198161804Y-103289000D01*
X198286821Y-103301313D01*
X198286821Y-103301313D01*
G37*
G36*
X170346821Y-103301313D02*
X170346824Y-103301314D01*
X170346825Y-103301314D01*
X170507239Y-103349975D01*
X170507241Y-103349976D01*
X170507244Y-103349977D01*
X170655078Y-103428995D01*
X170784659Y-103535341D01*
X170891005Y-103664922D01*
X170970023Y-103812756D01*
X170970024Y-103812759D01*
X170970025Y-103812761D01*
X171018686Y-103973175D01*
X171018687Y-103973179D01*
X171035117Y-104140000D01*
X171018687Y-104306821D01*
X171018686Y-104306824D01*
X171018686Y-104306825D01*
X170981859Y-104428228D01*
X170970023Y-104467244D01*
X170891005Y-104615078D01*
X170784659Y-104744659D01*
X170655078Y-104851005D01*
X170507244Y-104930023D01*
X170507241Y-104930024D01*
X170507239Y-104930025D01*
X170346825Y-104978686D01*
X170346824Y-104978686D01*
X170346821Y-104978687D01*
X170221804Y-104991000D01*
X170138196Y-104991000D01*
X170013179Y-104978687D01*
X170013176Y-104978686D01*
X170013175Y-104978686D01*
X169852761Y-104930025D01*
X169852759Y-104930024D01*
X169852756Y-104930023D01*
X169704922Y-104851005D01*
X169575341Y-104744659D01*
X169468995Y-104615078D01*
X169389977Y-104467244D01*
X169378142Y-104428228D01*
X169341314Y-104306825D01*
X169341314Y-104306824D01*
X169341313Y-104306821D01*
X169324883Y-104140000D01*
X169341313Y-103973179D01*
X169341314Y-103973175D01*
X169389975Y-103812761D01*
X169389976Y-103812759D01*
X169389977Y-103812756D01*
X169468995Y-103664922D01*
X169575341Y-103535341D01*
X169704922Y-103428995D01*
X169852756Y-103349977D01*
X169852759Y-103349976D01*
X169852761Y-103349975D01*
X170013175Y-103301314D01*
X170013176Y-103301314D01*
X170013179Y-103301313D01*
X170138196Y-103289000D01*
X170221804Y-103289000D01*
X170346821Y-103301313D01*
X170346821Y-103301313D01*
G37*
G36*
X177966821Y-103301313D02*
X177966824Y-103301314D01*
X177966825Y-103301314D01*
X178127239Y-103349975D01*
X178127241Y-103349976D01*
X178127244Y-103349977D01*
X178275078Y-103428995D01*
X178404659Y-103535341D01*
X178511005Y-103664922D01*
X178590023Y-103812756D01*
X178590024Y-103812759D01*
X178590025Y-103812761D01*
X178638686Y-103973175D01*
X178638687Y-103973179D01*
X178655117Y-104140000D01*
X178638687Y-104306821D01*
X178638686Y-104306824D01*
X178638686Y-104306825D01*
X178601859Y-104428228D01*
X178590023Y-104467244D01*
X178511005Y-104615078D01*
X178404659Y-104744659D01*
X178275078Y-104851005D01*
X178127244Y-104930023D01*
X178127241Y-104930024D01*
X178127239Y-104930025D01*
X177966825Y-104978686D01*
X177966824Y-104978686D01*
X177966821Y-104978687D01*
X177841804Y-104991000D01*
X177758196Y-104991000D01*
X177633179Y-104978687D01*
X177633176Y-104978686D01*
X177633175Y-104978686D01*
X177472761Y-104930025D01*
X177472759Y-104930024D01*
X177472756Y-104930023D01*
X177324922Y-104851005D01*
X177195341Y-104744659D01*
X177088995Y-104615078D01*
X177009977Y-104467244D01*
X176998142Y-104428228D01*
X176961314Y-104306825D01*
X176961314Y-104306824D01*
X176961313Y-104306821D01*
X176944883Y-104140000D01*
X176961313Y-103973179D01*
X176961314Y-103973175D01*
X177009975Y-103812761D01*
X177009976Y-103812759D01*
X177009977Y-103812756D01*
X177088995Y-103664922D01*
X177195341Y-103535341D01*
X177324922Y-103428995D01*
X177472756Y-103349977D01*
X177472759Y-103349976D01*
X177472761Y-103349975D01*
X177633175Y-103301314D01*
X177633176Y-103301314D01*
X177633179Y-103301313D01*
X177758196Y-103289000D01*
X177841804Y-103289000D01*
X177966821Y-103301313D01*
X177966821Y-103301313D01*
G37*
G36*
X190666821Y-103301313D02*
X190666824Y-103301314D01*
X190666825Y-103301314D01*
X190827239Y-103349975D01*
X190827241Y-103349976D01*
X190827244Y-103349977D01*
X190975078Y-103428995D01*
X191104659Y-103535341D01*
X191211005Y-103664922D01*
X191290023Y-103812756D01*
X191290024Y-103812759D01*
X191290025Y-103812761D01*
X191338686Y-103973175D01*
X191338687Y-103973179D01*
X191355117Y-104140000D01*
X191338687Y-104306821D01*
X191338686Y-104306824D01*
X191338686Y-104306825D01*
X191301859Y-104428228D01*
X191290023Y-104467244D01*
X191211005Y-104615078D01*
X191104659Y-104744659D01*
X190975078Y-104851005D01*
X190827244Y-104930023D01*
X190827241Y-104930024D01*
X190827239Y-104930025D01*
X190666825Y-104978686D01*
X190666824Y-104978686D01*
X190666821Y-104978687D01*
X190541804Y-104991000D01*
X190458196Y-104991000D01*
X190333179Y-104978687D01*
X190333176Y-104978686D01*
X190333175Y-104978686D01*
X190172761Y-104930025D01*
X190172759Y-104930024D01*
X190172756Y-104930023D01*
X190024922Y-104851005D01*
X189895341Y-104744659D01*
X189788995Y-104615078D01*
X189709977Y-104467244D01*
X189698142Y-104428228D01*
X189661314Y-104306825D01*
X189661314Y-104306824D01*
X189661313Y-104306821D01*
X189644883Y-104140000D01*
X189661313Y-103973179D01*
X189661314Y-103973175D01*
X189709975Y-103812761D01*
X189709976Y-103812759D01*
X189709977Y-103812756D01*
X189788995Y-103664922D01*
X189895341Y-103535341D01*
X190024922Y-103428995D01*
X190172756Y-103349977D01*
X190172759Y-103349976D01*
X190172761Y-103349975D01*
X190333175Y-103301314D01*
X190333176Y-103301314D01*
X190333179Y-103301313D01*
X190458196Y-103289000D01*
X190541804Y-103289000D01*
X190666821Y-103301313D01*
X190666821Y-103301313D01*
G37*
G36*
X144761000Y-104121000D02*
X142259000Y-104121000D01*
X142259000Y-101619000D01*
X144761000Y-101619000D01*
X144761000Y-104121000D01*
X144761000Y-104121000D01*
G37*
G36*
X153915239Y-101637101D02*
X154151053Y-101708634D01*
X154368381Y-101824799D01*
X154558871Y-101981129D01*
X154715201Y-102171619D01*
X154831366Y-102388947D01*
X154902899Y-102624761D01*
X154927053Y-102870000D01*
X154902899Y-103115239D01*
X154831366Y-103351053D01*
X154715201Y-103568381D01*
X154558871Y-103758871D01*
X154368381Y-103915201D01*
X154151053Y-104031366D01*
X153915239Y-104102899D01*
X153731457Y-104121000D01*
X153608543Y-104121000D01*
X153424761Y-104102899D01*
X153188947Y-104031366D01*
X152971619Y-103915201D01*
X152781129Y-103758871D01*
X152624799Y-103568381D01*
X152508634Y-103351053D01*
X152437101Y-103115239D01*
X152412947Y-102870000D01*
X152437101Y-102624761D01*
X152508634Y-102388947D01*
X152624799Y-102171619D01*
X152781129Y-101981129D01*
X152971619Y-101824799D01*
X153188947Y-101708634D01*
X153424761Y-101637101D01*
X153608543Y-101619000D01*
X153731457Y-101619000D01*
X153915239Y-101637101D01*
X153915239Y-101637101D01*
G37*
G36*
X185784443Y-100959519D02*
X185850627Y-100966037D01*
X185963853Y-101000384D01*
X186020467Y-101017557D01*
X186159087Y-101091652D01*
X186176991Y-101101222D01*
X186205869Y-101124922D01*
X186314186Y-101213814D01*
X186397448Y-101315271D01*
X186426778Y-101351009D01*
X186426779Y-101351011D01*
X186510443Y-101507533D01*
X186510443Y-101507534D01*
X186561963Y-101677373D01*
X186579359Y-101854000D01*
X186561963Y-102030627D01*
X186548479Y-102075078D01*
X186510443Y-102200467D01*
X186508202Y-102204659D01*
X186426778Y-102356991D01*
X186397448Y-102392729D01*
X186314186Y-102494186D01*
X186212729Y-102577448D01*
X186176991Y-102606778D01*
X186176989Y-102606779D01*
X186020467Y-102690443D01*
X185963853Y-102707616D01*
X185850627Y-102741963D01*
X185784442Y-102748482D01*
X185718260Y-102755000D01*
X185629740Y-102755000D01*
X185563557Y-102748481D01*
X185497373Y-102741963D01*
X185384147Y-102707616D01*
X185327533Y-102690443D01*
X185171011Y-102606779D01*
X185171009Y-102606778D01*
X185135271Y-102577448D01*
X185033814Y-102494186D01*
X184950552Y-102392729D01*
X184921222Y-102356991D01*
X184839798Y-102204659D01*
X184837557Y-102200467D01*
X184799521Y-102075078D01*
X184786037Y-102030627D01*
X184768641Y-101854000D01*
X184786037Y-101677373D01*
X184837557Y-101507534D01*
X184837557Y-101507533D01*
X184921221Y-101351011D01*
X184921222Y-101351009D01*
X184950552Y-101315271D01*
X185033814Y-101213814D01*
X185142131Y-101124922D01*
X185171009Y-101101222D01*
X185188913Y-101091652D01*
X185327533Y-101017557D01*
X185384147Y-101000384D01*
X185497373Y-100966037D01*
X185563558Y-100959518D01*
X185629740Y-100953000D01*
X185718260Y-100953000D01*
X185784443Y-100959519D01*
X185784443Y-100959519D01*
G37*
G36*
X183244443Y-100959519D02*
X183310627Y-100966037D01*
X183423853Y-101000384D01*
X183480467Y-101017557D01*
X183619087Y-101091652D01*
X183636991Y-101101222D01*
X183665869Y-101124922D01*
X183774186Y-101213814D01*
X183857448Y-101315271D01*
X183886778Y-101351009D01*
X183886779Y-101351011D01*
X183970443Y-101507533D01*
X183970443Y-101507534D01*
X184021963Y-101677373D01*
X184039359Y-101854000D01*
X184021963Y-102030627D01*
X184008479Y-102075078D01*
X183970443Y-102200467D01*
X183968202Y-102204659D01*
X183886778Y-102356991D01*
X183857448Y-102392729D01*
X183774186Y-102494186D01*
X183672729Y-102577448D01*
X183636991Y-102606778D01*
X183636989Y-102606779D01*
X183480467Y-102690443D01*
X183423853Y-102707616D01*
X183310627Y-102741963D01*
X183244442Y-102748482D01*
X183178260Y-102755000D01*
X183089740Y-102755000D01*
X183023557Y-102748481D01*
X182957373Y-102741963D01*
X182844147Y-102707616D01*
X182787533Y-102690443D01*
X182631011Y-102606779D01*
X182631009Y-102606778D01*
X182595271Y-102577448D01*
X182493814Y-102494186D01*
X182410552Y-102392729D01*
X182381222Y-102356991D01*
X182299798Y-102204659D01*
X182297557Y-102200467D01*
X182259521Y-102075078D01*
X182246037Y-102030627D01*
X182228641Y-101854000D01*
X182246037Y-101677373D01*
X182297557Y-101507534D01*
X182297557Y-101507533D01*
X182381221Y-101351011D01*
X182381222Y-101351009D01*
X182410552Y-101315271D01*
X182493814Y-101213814D01*
X182602131Y-101124922D01*
X182631009Y-101101222D01*
X182648913Y-101091652D01*
X182787533Y-101017557D01*
X182844147Y-101000384D01*
X182957373Y-100966037D01*
X183023558Y-100959518D01*
X183089740Y-100953000D01*
X183178260Y-100953000D01*
X183244443Y-100959519D01*
X183244443Y-100959519D01*
G37*
G36*
X177966821Y-100761313D02*
X177966824Y-100761314D01*
X177966825Y-100761314D01*
X178127239Y-100809975D01*
X178127241Y-100809976D01*
X178127244Y-100809977D01*
X178275078Y-100888995D01*
X178404659Y-100995341D01*
X178511005Y-101124922D01*
X178590023Y-101272756D01*
X178590024Y-101272759D01*
X178590025Y-101272761D01*
X178638686Y-101433175D01*
X178638687Y-101433179D01*
X178655117Y-101600000D01*
X178638687Y-101766821D01*
X178638686Y-101766824D01*
X178638686Y-101766825D01*
X178612242Y-101854000D01*
X178590023Y-101927244D01*
X178511005Y-102075078D01*
X178404659Y-102204659D01*
X178275078Y-102311005D01*
X178127244Y-102390023D01*
X178127241Y-102390024D01*
X178127239Y-102390025D01*
X177966825Y-102438686D01*
X177966824Y-102438686D01*
X177966821Y-102438687D01*
X177841804Y-102451000D01*
X177758196Y-102451000D01*
X177633179Y-102438687D01*
X177633176Y-102438686D01*
X177633175Y-102438686D01*
X177472761Y-102390025D01*
X177472759Y-102390024D01*
X177472756Y-102390023D01*
X177324922Y-102311005D01*
X177195341Y-102204659D01*
X177088995Y-102075078D01*
X177009977Y-101927244D01*
X176987759Y-101854000D01*
X176961314Y-101766825D01*
X176961314Y-101766824D01*
X176961313Y-101766821D01*
X176944883Y-101600000D01*
X176961313Y-101433179D01*
X176961314Y-101433175D01*
X177009975Y-101272761D01*
X177009976Y-101272759D01*
X177009977Y-101272756D01*
X177088995Y-101124922D01*
X177195341Y-100995341D01*
X177324922Y-100888995D01*
X177472756Y-100809977D01*
X177472759Y-100809976D01*
X177472761Y-100809975D01*
X177633175Y-100761314D01*
X177633176Y-100761314D01*
X177633179Y-100761313D01*
X177758196Y-100749000D01*
X177841804Y-100749000D01*
X177966821Y-100761313D01*
X177966821Y-100761313D01*
G37*
G36*
X191351000Y-102451000D02*
X189649000Y-102451000D01*
X189649000Y-100749000D01*
X191351000Y-100749000D01*
X191351000Y-102451000D01*
X191351000Y-102451000D01*
G37*
G36*
X198286821Y-100761313D02*
X198286824Y-100761314D01*
X198286825Y-100761314D01*
X198447239Y-100809975D01*
X198447241Y-100809976D01*
X198447244Y-100809977D01*
X198595078Y-100888995D01*
X198724659Y-100995341D01*
X198831005Y-101124922D01*
X198910023Y-101272756D01*
X198910024Y-101272759D01*
X198910025Y-101272761D01*
X198958686Y-101433175D01*
X198958687Y-101433179D01*
X198975117Y-101600000D01*
X198958687Y-101766821D01*
X198958686Y-101766824D01*
X198958686Y-101766825D01*
X198932242Y-101854000D01*
X198910023Y-101927244D01*
X198831005Y-102075078D01*
X198724659Y-102204659D01*
X198595078Y-102311005D01*
X198447244Y-102390023D01*
X198447241Y-102390024D01*
X198447239Y-102390025D01*
X198286825Y-102438686D01*
X198286824Y-102438686D01*
X198286821Y-102438687D01*
X198161804Y-102451000D01*
X198078196Y-102451000D01*
X197953179Y-102438687D01*
X197953176Y-102438686D01*
X197953175Y-102438686D01*
X197792761Y-102390025D01*
X197792759Y-102390024D01*
X197792756Y-102390023D01*
X197644922Y-102311005D01*
X197515341Y-102204659D01*
X197408995Y-102075078D01*
X197329977Y-101927244D01*
X197307759Y-101854000D01*
X197281314Y-101766825D01*
X197281314Y-101766824D01*
X197281313Y-101766821D01*
X197264883Y-101600000D01*
X197281313Y-101433179D01*
X197281314Y-101433175D01*
X197329975Y-101272761D01*
X197329976Y-101272759D01*
X197329977Y-101272756D01*
X197408995Y-101124922D01*
X197515341Y-100995341D01*
X197644922Y-100888995D01*
X197792756Y-100809977D01*
X197792759Y-100809976D01*
X197792761Y-100809975D01*
X197953175Y-100761314D01*
X197953176Y-100761314D01*
X197953179Y-100761313D01*
X198078196Y-100749000D01*
X198161804Y-100749000D01*
X198286821Y-100761313D01*
X198286821Y-100761313D01*
G37*
G36*
X170346821Y-100761313D02*
X170346824Y-100761314D01*
X170346825Y-100761314D01*
X170507239Y-100809975D01*
X170507241Y-100809976D01*
X170507244Y-100809977D01*
X170655078Y-100888995D01*
X170784659Y-100995341D01*
X170891005Y-101124922D01*
X170970023Y-101272756D01*
X170970024Y-101272759D01*
X170970025Y-101272761D01*
X171018686Y-101433175D01*
X171018687Y-101433179D01*
X171035117Y-101600000D01*
X171018687Y-101766821D01*
X171018686Y-101766824D01*
X171018686Y-101766825D01*
X170992242Y-101854000D01*
X170970023Y-101927244D01*
X170891005Y-102075078D01*
X170784659Y-102204659D01*
X170655078Y-102311005D01*
X170507244Y-102390023D01*
X170507241Y-102390024D01*
X170507239Y-102390025D01*
X170346825Y-102438686D01*
X170346824Y-102438686D01*
X170346821Y-102438687D01*
X170221804Y-102451000D01*
X170138196Y-102451000D01*
X170013179Y-102438687D01*
X170013176Y-102438686D01*
X170013175Y-102438686D01*
X169852761Y-102390025D01*
X169852759Y-102390024D01*
X169852756Y-102390023D01*
X169704922Y-102311005D01*
X169575341Y-102204659D01*
X169468995Y-102075078D01*
X169389977Y-101927244D01*
X169367759Y-101854000D01*
X169341314Y-101766825D01*
X169341314Y-101766824D01*
X169341313Y-101766821D01*
X169324883Y-101600000D01*
X169341313Y-101433179D01*
X169341314Y-101433175D01*
X169389975Y-101272761D01*
X169389976Y-101272759D01*
X169389977Y-101272756D01*
X169468995Y-101124922D01*
X169575341Y-100995341D01*
X169704922Y-100888995D01*
X169852756Y-100809977D01*
X169852759Y-100809976D01*
X169852761Y-100809975D01*
X170013175Y-100761314D01*
X170013176Y-100761314D01*
X170013179Y-100761313D01*
X170138196Y-100749000D01*
X170221804Y-100749000D01*
X170346821Y-100761313D01*
X170346821Y-100761313D01*
G37*
G36*
X159114443Y-98419519D02*
X159180627Y-98426037D01*
X159293853Y-98460384D01*
X159350467Y-98477557D01*
X159394334Y-98501005D01*
X159506991Y-98561222D01*
X159529900Y-98580023D01*
X159644186Y-98673814D01*
X159727448Y-98775271D01*
X159756778Y-98811009D01*
X159756779Y-98811011D01*
X159840443Y-98967533D01*
X159840443Y-98967534D01*
X159891963Y-99137373D01*
X159909359Y-99314000D01*
X159891963Y-99490627D01*
X159878479Y-99535078D01*
X159840443Y-99660467D01*
X159838202Y-99664659D01*
X159756778Y-99816991D01*
X159727448Y-99852729D01*
X159644186Y-99954186D01*
X159542729Y-100037448D01*
X159506991Y-100066778D01*
X159506989Y-100066779D01*
X159350467Y-100150443D01*
X159293853Y-100167616D01*
X159180627Y-100201963D01*
X159114442Y-100208482D01*
X159048260Y-100215000D01*
X158959740Y-100215000D01*
X158893558Y-100208482D01*
X158827373Y-100201963D01*
X158714147Y-100167616D01*
X158657533Y-100150443D01*
X158501011Y-100066779D01*
X158501009Y-100066778D01*
X158465271Y-100037448D01*
X158363814Y-99954186D01*
X158280552Y-99852729D01*
X158251222Y-99816991D01*
X158169798Y-99664659D01*
X158167557Y-99660467D01*
X158129521Y-99535078D01*
X158116037Y-99490627D01*
X158098641Y-99314000D01*
X158116037Y-99137373D01*
X158167557Y-98967534D01*
X158167557Y-98967533D01*
X158251221Y-98811011D01*
X158251222Y-98811009D01*
X158280552Y-98775271D01*
X158363814Y-98673814D01*
X158478100Y-98580023D01*
X158501009Y-98561222D01*
X158613666Y-98501005D01*
X158657533Y-98477557D01*
X158714147Y-98460384D01*
X158827373Y-98426037D01*
X158893557Y-98419519D01*
X158959740Y-98413000D01*
X159048260Y-98413000D01*
X159114443Y-98419519D01*
X159114443Y-98419519D01*
G37*
G36*
X171031000Y-99911000D02*
X169329000Y-99911000D01*
X169329000Y-98209000D01*
X171031000Y-98209000D01*
X171031000Y-99911000D01*
X171031000Y-99911000D01*
G37*
G36*
X177966821Y-98221313D02*
X177966824Y-98221314D01*
X177966825Y-98221314D01*
X178127239Y-98269975D01*
X178127241Y-98269976D01*
X178127244Y-98269977D01*
X178275078Y-98348995D01*
X178404659Y-98455341D01*
X178511005Y-98584922D01*
X178590023Y-98732756D01*
X178590024Y-98732759D01*
X178590025Y-98732761D01*
X178638686Y-98893175D01*
X178638687Y-98893179D01*
X178655117Y-99060000D01*
X178638687Y-99226821D01*
X178638686Y-99226824D01*
X178638686Y-99226825D01*
X178595165Y-99370296D01*
X178590023Y-99387244D01*
X178511005Y-99535078D01*
X178404659Y-99664659D01*
X178275078Y-99771005D01*
X178127244Y-99850023D01*
X178127241Y-99850024D01*
X178127239Y-99850025D01*
X177966825Y-99898686D01*
X177966824Y-99898686D01*
X177966821Y-99898687D01*
X177841804Y-99911000D01*
X177758196Y-99911000D01*
X177633179Y-99898687D01*
X177633176Y-99898686D01*
X177633175Y-99898686D01*
X177472761Y-99850025D01*
X177472759Y-99850024D01*
X177472756Y-99850023D01*
X177324922Y-99771005D01*
X177195341Y-99664659D01*
X177088995Y-99535078D01*
X177009977Y-99387244D01*
X177004836Y-99370296D01*
X176961314Y-99226825D01*
X176961314Y-99226824D01*
X176961313Y-99226821D01*
X176944883Y-99060000D01*
X176961313Y-98893179D01*
X176961314Y-98893175D01*
X177009975Y-98732761D01*
X177009976Y-98732759D01*
X177009977Y-98732756D01*
X177088995Y-98584922D01*
X177195341Y-98455341D01*
X177324922Y-98348995D01*
X177472756Y-98269977D01*
X177472759Y-98269976D01*
X177472761Y-98269975D01*
X177633175Y-98221314D01*
X177633176Y-98221314D01*
X177633179Y-98221313D01*
X177758196Y-98209000D01*
X177841804Y-98209000D01*
X177966821Y-98221313D01*
X177966821Y-98221313D01*
G37*
G36*
X190494228Y-97733703D02*
X190649100Y-97797853D01*
X190788481Y-97890985D01*
X190907015Y-98009519D01*
X191000147Y-98148900D01*
X191064297Y-98303772D01*
X191097000Y-98468184D01*
X191097000Y-98635816D01*
X191064297Y-98800228D01*
X191000147Y-98955100D01*
X190907015Y-99094481D01*
X190788481Y-99213015D01*
X190649100Y-99306147D01*
X190494228Y-99370297D01*
X190329816Y-99403000D01*
X190162184Y-99403000D01*
X189997772Y-99370297D01*
X189842900Y-99306147D01*
X189703519Y-99213015D01*
X189584985Y-99094481D01*
X189491853Y-98955100D01*
X189427703Y-98800228D01*
X189395000Y-98635816D01*
X189395000Y-98468184D01*
X189427703Y-98303772D01*
X189491853Y-98148900D01*
X189584985Y-98009519D01*
X189703519Y-97890985D01*
X189842900Y-97797853D01*
X189997772Y-97733703D01*
X190162184Y-97701000D01*
X190329816Y-97701000D01*
X190494228Y-97733703D01*
X190494228Y-97733703D01*
G37*
G36*
X143676821Y-96951313D02*
X143676824Y-96951314D01*
X143676825Y-96951314D01*
X143837239Y-96999975D01*
X143837241Y-96999976D01*
X143837244Y-96999977D01*
X143985078Y-97078995D01*
X144114659Y-97185341D01*
X144221005Y-97314922D01*
X144300023Y-97462756D01*
X144300024Y-97462759D01*
X144300025Y-97462761D01*
X144344824Y-97610443D01*
X144348687Y-97623179D01*
X144365117Y-97790000D01*
X144348687Y-97956821D01*
X144348686Y-97956824D01*
X144348686Y-97956825D01*
X144323993Y-98038228D01*
X144300023Y-98117244D01*
X144221005Y-98265078D01*
X144114659Y-98394659D01*
X143985078Y-98501005D01*
X143837244Y-98580023D01*
X143837241Y-98580024D01*
X143837239Y-98580025D01*
X143676825Y-98628686D01*
X143676824Y-98628686D01*
X143676821Y-98628687D01*
X143551804Y-98641000D01*
X143468196Y-98641000D01*
X143343179Y-98628687D01*
X143343176Y-98628686D01*
X143343175Y-98628686D01*
X143182761Y-98580025D01*
X143182759Y-98580024D01*
X143182756Y-98580023D01*
X143034922Y-98501005D01*
X142905341Y-98394659D01*
X142798995Y-98265078D01*
X142719977Y-98117244D01*
X142696008Y-98038228D01*
X142671314Y-97956825D01*
X142671314Y-97956824D01*
X142671313Y-97956821D01*
X142654883Y-97790000D01*
X142671313Y-97623179D01*
X142675176Y-97610443D01*
X142719975Y-97462761D01*
X142719976Y-97462759D01*
X142719977Y-97462756D01*
X142798995Y-97314922D01*
X142905341Y-97185341D01*
X143034922Y-97078995D01*
X143182756Y-96999977D01*
X143182759Y-96999976D01*
X143182761Y-96999975D01*
X143343175Y-96951314D01*
X143343176Y-96951314D01*
X143343179Y-96951313D01*
X143468196Y-96939000D01*
X143551804Y-96939000D01*
X143676821Y-96951313D01*
X143676821Y-96951313D01*
G37*
G36*
X153918228Y-96971703D02*
X154073100Y-97035853D01*
X154212481Y-97128985D01*
X154331015Y-97247519D01*
X154424147Y-97386900D01*
X154488297Y-97541772D01*
X154521000Y-97706184D01*
X154521000Y-97873816D01*
X154488297Y-98038228D01*
X154424147Y-98193100D01*
X154331015Y-98332481D01*
X154212481Y-98451015D01*
X154073100Y-98544147D01*
X153918228Y-98608297D01*
X153753816Y-98641000D01*
X153586184Y-98641000D01*
X153421772Y-98608297D01*
X153266900Y-98544147D01*
X153127519Y-98451015D01*
X153008985Y-98332481D01*
X152915853Y-98193100D01*
X152851703Y-98038228D01*
X152819000Y-97873816D01*
X152819000Y-97706184D01*
X152851703Y-97541772D01*
X152915853Y-97386900D01*
X153008985Y-97247519D01*
X153127519Y-97128985D01*
X153266900Y-97035853D01*
X153421772Y-96971703D01*
X153586184Y-96939000D01*
X153753816Y-96939000D01*
X153918228Y-96971703D01*
X153918228Y-96971703D01*
G37*
G36*
X159114442Y-95879518D02*
X159180627Y-95886037D01*
X159293853Y-95920384D01*
X159350467Y-95937557D01*
X159407765Y-95968184D01*
X159506991Y-96021222D01*
X159542729Y-96050552D01*
X159644186Y-96133814D01*
X159727448Y-96235271D01*
X159756778Y-96271009D01*
X159756779Y-96271011D01*
X159840443Y-96427533D01*
X159840443Y-96427534D01*
X159891963Y-96597373D01*
X159909359Y-96774000D01*
X159891963Y-96950627D01*
X159885569Y-96971704D01*
X159840443Y-97120467D01*
X159772531Y-97247519D01*
X159756778Y-97276991D01*
X159727448Y-97312729D01*
X159644186Y-97414186D01*
X159542729Y-97497448D01*
X159506991Y-97526778D01*
X159506989Y-97526779D01*
X159350467Y-97610443D01*
X159308494Y-97623175D01*
X159180627Y-97661963D01*
X159114443Y-97668481D01*
X159048260Y-97675000D01*
X158959740Y-97675000D01*
X158893557Y-97668481D01*
X158827373Y-97661963D01*
X158699506Y-97623175D01*
X158657533Y-97610443D01*
X158501011Y-97526779D01*
X158501009Y-97526778D01*
X158465271Y-97497448D01*
X158363814Y-97414186D01*
X158280552Y-97312729D01*
X158251222Y-97276991D01*
X158235469Y-97247519D01*
X158167557Y-97120467D01*
X158122431Y-96971704D01*
X158116037Y-96950627D01*
X158098641Y-96774000D01*
X158116037Y-96597373D01*
X158167557Y-96427534D01*
X158167557Y-96427533D01*
X158251221Y-96271011D01*
X158251222Y-96271009D01*
X158280552Y-96235271D01*
X158363814Y-96133814D01*
X158465271Y-96050552D01*
X158501009Y-96021222D01*
X158600235Y-95968184D01*
X158657533Y-95937557D01*
X158714147Y-95920384D01*
X158827373Y-95886037D01*
X158893557Y-95879519D01*
X158959740Y-95873000D01*
X159048260Y-95873000D01*
X159114442Y-95879518D01*
X159114442Y-95879518D01*
G37*
G36*
X190494228Y-95233703D02*
X190649100Y-95297853D01*
X190788481Y-95390985D01*
X190907015Y-95509519D01*
X191000147Y-95648900D01*
X191064297Y-95803772D01*
X191097000Y-95968184D01*
X191097000Y-96135816D01*
X191064297Y-96300228D01*
X191000147Y-96455100D01*
X190907015Y-96594481D01*
X190788481Y-96713015D01*
X190649100Y-96806147D01*
X190494228Y-96870297D01*
X190329816Y-96903000D01*
X190162184Y-96903000D01*
X189997772Y-96870297D01*
X189842900Y-96806147D01*
X189703519Y-96713015D01*
X189584985Y-96594481D01*
X189491853Y-96455100D01*
X189427703Y-96300228D01*
X189395000Y-96135816D01*
X189395000Y-95968184D01*
X189427703Y-95803772D01*
X189491853Y-95648900D01*
X189584985Y-95509519D01*
X189703519Y-95390985D01*
X189842900Y-95297853D01*
X189997772Y-95233703D01*
X190162184Y-95201000D01*
X190329816Y-95201000D01*
X190494228Y-95233703D01*
X190494228Y-95233703D01*
G37*
G36*
X178048228Y-94939703D02*
X178203100Y-95003853D01*
X178342481Y-95096985D01*
X178461015Y-95215519D01*
X178554147Y-95354900D01*
X178618297Y-95509772D01*
X178651000Y-95674184D01*
X178651000Y-95841816D01*
X178618297Y-96006228D01*
X178554147Y-96161100D01*
X178461015Y-96300481D01*
X178342481Y-96419015D01*
X178203100Y-96512147D01*
X178048228Y-96576297D01*
X177883816Y-96609000D01*
X177716184Y-96609000D01*
X177551772Y-96576297D01*
X177396900Y-96512147D01*
X177257519Y-96419015D01*
X177138985Y-96300481D01*
X177045853Y-96161100D01*
X176981703Y-96006228D01*
X176949000Y-95841816D01*
X176949000Y-95674184D01*
X176981703Y-95509772D01*
X177045853Y-95354900D01*
X177138985Y-95215519D01*
X177257519Y-95096985D01*
X177396900Y-95003853D01*
X177551772Y-94939703D01*
X177716184Y-94907000D01*
X177883816Y-94907000D01*
X178048228Y-94939703D01*
X178048228Y-94939703D01*
G37*
G36*
X159905000Y-95135000D02*
X158103000Y-95135000D01*
X158103000Y-93333000D01*
X159905000Y-93333000D01*
X159905000Y-95135000D01*
X159905000Y-95135000D01*
G37*
G36*
X163824228Y-93415703D02*
X163979100Y-93479853D01*
X164118481Y-93572985D01*
X164237015Y-93691519D01*
X164330147Y-93830900D01*
X164394297Y-93985772D01*
X164427000Y-94150184D01*
X164427000Y-94317816D01*
X164394297Y-94482228D01*
X164330147Y-94637100D01*
X164237015Y-94776481D01*
X164118481Y-94895015D01*
X163979100Y-94988147D01*
X163824228Y-95052297D01*
X163659816Y-95085000D01*
X163492184Y-95085000D01*
X163327772Y-95052297D01*
X163172900Y-94988147D01*
X163033519Y-94895015D01*
X162914985Y-94776481D01*
X162821853Y-94637100D01*
X162757703Y-94482228D01*
X162725000Y-94317816D01*
X162725000Y-94150184D01*
X162757703Y-93985772D01*
X162821853Y-93830900D01*
X162914985Y-93691519D01*
X163033519Y-93572985D01*
X163172900Y-93479853D01*
X163327772Y-93415703D01*
X163492184Y-93383000D01*
X163659816Y-93383000D01*
X163824228Y-93415703D01*
X163824228Y-93415703D01*
G37*
G36*
X178048228Y-92439703D02*
X178203100Y-92503853D01*
X178342481Y-92596985D01*
X178461015Y-92715519D01*
X178554147Y-92854900D01*
X178618297Y-93009772D01*
X178651000Y-93174184D01*
X178651000Y-93341816D01*
X178618297Y-93506228D01*
X178554147Y-93661100D01*
X178461015Y-93800481D01*
X178342481Y-93919015D01*
X178203100Y-94012147D01*
X178048228Y-94076297D01*
X177883816Y-94109000D01*
X177716184Y-94109000D01*
X177551772Y-94076297D01*
X177396900Y-94012147D01*
X177257519Y-93919015D01*
X177138985Y-93800481D01*
X177045853Y-93661100D01*
X176981703Y-93506228D01*
X176949000Y-93341816D01*
X176949000Y-93174184D01*
X176981703Y-93009772D01*
X177045853Y-92854900D01*
X177138985Y-92715519D01*
X177257519Y-92596985D01*
X177396900Y-92503853D01*
X177551772Y-92439703D01*
X177716184Y-92407000D01*
X177883816Y-92407000D01*
X178048228Y-92439703D01*
X178048228Y-92439703D01*
G37*
G36*
X153965573Y-89338404D02*
X154202282Y-89436452D01*
X154415318Y-89578798D01*
X154596482Y-89759962D01*
X154738828Y-89972998D01*
X154836876Y-90209707D01*
X154886860Y-90460993D01*
X154886860Y-90717207D01*
X154836876Y-90968493D01*
X154738828Y-91205202D01*
X154596482Y-91418238D01*
X154415318Y-91599402D01*
X154202282Y-91741748D01*
X153965573Y-91839796D01*
X153714287Y-91889780D01*
X153458073Y-91889780D01*
X153206787Y-91839796D01*
X152970078Y-91741748D01*
X152757042Y-91599402D01*
X152575878Y-91418238D01*
X152433532Y-91205202D01*
X152335484Y-90968493D01*
X152285500Y-90717207D01*
X152285500Y-90460993D01*
X152335484Y-90209707D01*
X152433532Y-89972998D01*
X152575878Y-89759962D01*
X152757042Y-89578798D01*
X152970078Y-89436452D01*
X153206787Y-89338404D01*
X153458073Y-89288420D01*
X153714287Y-89288420D01*
X153965573Y-89338404D01*
X153965573Y-89338404D01*
G37*
G36*
X143973213Y-89338404D02*
X144209922Y-89436452D01*
X144422958Y-89578798D01*
X144604122Y-89759962D01*
X144746468Y-89972998D01*
X144844516Y-90209707D01*
X144894500Y-90460993D01*
X144894500Y-90717207D01*
X144844516Y-90968493D01*
X144746468Y-91205202D01*
X144604122Y-91418238D01*
X144422958Y-91599402D01*
X144209922Y-91741748D01*
X143973213Y-91839796D01*
X143721927Y-91889780D01*
X143465713Y-91889780D01*
X143214427Y-91839796D01*
X142977718Y-91741748D01*
X142764682Y-91599402D01*
X142583518Y-91418238D01*
X142441172Y-91205202D01*
X142343124Y-90968493D01*
X142293140Y-90717207D01*
X142293140Y-90460993D01*
X142343124Y-90209707D01*
X142441172Y-89972998D01*
X142583518Y-89759962D01*
X142764682Y-89578798D01*
X142977718Y-89436452D01*
X143214427Y-89338404D01*
X143465713Y-89288420D01*
X143721927Y-89288420D01*
X143973213Y-89338404D01*
X143973213Y-89338404D01*
G37*
G36*
X177003000Y-90105000D02*
X172501000Y-90105000D01*
X172501000Y-88203000D01*
X177003000Y-88203000D01*
X177003000Y-90105000D01*
X177003000Y-90105000D01*
G37*
G36*
X197057420Y-87439143D02*
X197189556Y-87479227D01*
X197189558Y-87479228D01*
X197311338Y-87544320D01*
X197311340Y-87544321D01*
X197311339Y-87544321D01*
X197418078Y-87631918D01*
X197418080Y-87631921D01*
X197505680Y-87738661D01*
X197570772Y-87860441D01*
X197570773Y-87860443D01*
X197610857Y-87992579D01*
X197621000Y-88095568D01*
X197621000Y-88864432D01*
X197610857Y-88967421D01*
X197570773Y-89099557D01*
X197570772Y-89099559D01*
X197505680Y-89221339D01*
X197418080Y-89328080D01*
X197311339Y-89415680D01*
X197189559Y-89480772D01*
X197189557Y-89480773D01*
X197057421Y-89520857D01*
X196920000Y-89534391D01*
X196782580Y-89520857D01*
X196650444Y-89480773D01*
X196650442Y-89480772D01*
X196528662Y-89415680D01*
X196421921Y-89328080D01*
X196334321Y-89221339D01*
X196269229Y-89099559D01*
X196269228Y-89099558D01*
X196229143Y-88967419D01*
X196219000Y-88864432D01*
X196219000Y-88095569D01*
X196229143Y-87992580D01*
X196269227Y-87860444D01*
X196309603Y-87784905D01*
X196334320Y-87738662D01*
X196345883Y-87724573D01*
X196421918Y-87631922D01*
X196451910Y-87607309D01*
X196528661Y-87544320D01*
X196650441Y-87479228D01*
X196650443Y-87479227D01*
X196782579Y-87439143D01*
X196920000Y-87425609D01*
X197057420Y-87439143D01*
X197057420Y-87439143D01*
G37*
G36*
X192557420Y-87439143D02*
X192689556Y-87479227D01*
X192689558Y-87479228D01*
X192811338Y-87544320D01*
X192811340Y-87544321D01*
X192811339Y-87544321D01*
X192918078Y-87631918D01*
X192918080Y-87631921D01*
X193005680Y-87738661D01*
X193070772Y-87860441D01*
X193070773Y-87860443D01*
X193110857Y-87992579D01*
X193121000Y-88095568D01*
X193121000Y-88864432D01*
X193110857Y-88967421D01*
X193070773Y-89099557D01*
X193070772Y-89099559D01*
X193005680Y-89221339D01*
X192918080Y-89328080D01*
X192811339Y-89415680D01*
X192689559Y-89480772D01*
X192689557Y-89480773D01*
X192557421Y-89520857D01*
X192420000Y-89534391D01*
X192282580Y-89520857D01*
X192150444Y-89480773D01*
X192150442Y-89480772D01*
X192028662Y-89415680D01*
X191921921Y-89328080D01*
X191834321Y-89221339D01*
X191769229Y-89099559D01*
X191769228Y-89099558D01*
X191729143Y-88967419D01*
X191719000Y-88864432D01*
X191719000Y-88095569D01*
X191729143Y-87992580D01*
X191769227Y-87860444D01*
X191809603Y-87784905D01*
X191834320Y-87738662D01*
X191845883Y-87724573D01*
X191921918Y-87631922D01*
X191951910Y-87607309D01*
X192028661Y-87544320D01*
X192150441Y-87479228D01*
X192150443Y-87479227D01*
X192282579Y-87439143D01*
X192420000Y-87425609D01*
X192557420Y-87439143D01*
X192557420Y-87439143D01*
G37*
G36*
X148969393Y-86839044D02*
X149206102Y-86937092D01*
X149419138Y-87079438D01*
X149600302Y-87260602D01*
X149742648Y-87473638D01*
X149840696Y-87710347D01*
X149890680Y-87961633D01*
X149890680Y-88217847D01*
X149840696Y-88469133D01*
X149742648Y-88705842D01*
X149600302Y-88918878D01*
X149419138Y-89100042D01*
X149206102Y-89242388D01*
X148969393Y-89340436D01*
X148718107Y-89390420D01*
X148461893Y-89390420D01*
X148210607Y-89340436D01*
X147973898Y-89242388D01*
X147760862Y-89100042D01*
X147579698Y-88918878D01*
X147437352Y-88705842D01*
X147339304Y-88469133D01*
X147289320Y-88217847D01*
X147289320Y-87961633D01*
X147339304Y-87710347D01*
X147437352Y-87473638D01*
X147579698Y-87260602D01*
X147760862Y-87079438D01*
X147973898Y-86937092D01*
X148210607Y-86839044D01*
X148461893Y-86789060D01*
X148718107Y-86789060D01*
X148969393Y-86839044D01*
X148969393Y-86839044D01*
G37*
G36*
X156467473Y-86836504D02*
X156704182Y-86934552D01*
X156917218Y-87076898D01*
X157098382Y-87258062D01*
X157240728Y-87471098D01*
X157338776Y-87707807D01*
X157388760Y-87959093D01*
X157388760Y-88215307D01*
X157338776Y-88466593D01*
X157240728Y-88703302D01*
X157098382Y-88916338D01*
X156917218Y-89097502D01*
X156704182Y-89239848D01*
X156467473Y-89337896D01*
X156216187Y-89387880D01*
X155959973Y-89387880D01*
X155708687Y-89337896D01*
X155471978Y-89239848D01*
X155258942Y-89097502D01*
X155077778Y-88916338D01*
X154935432Y-88703302D01*
X154837384Y-88466593D01*
X154787400Y-88215307D01*
X154787400Y-87959093D01*
X154837384Y-87707807D01*
X154935432Y-87471098D01*
X155077778Y-87258062D01*
X155258942Y-87076898D01*
X155471978Y-86934552D01*
X155708687Y-86836504D01*
X155959973Y-86786520D01*
X156216187Y-86786520D01*
X156467473Y-86836504D01*
X156467473Y-86836504D01*
G37*
G36*
X141471313Y-86836504D02*
X141708022Y-86934552D01*
X141921058Y-87076898D01*
X142102222Y-87258062D01*
X142244568Y-87471098D01*
X142342616Y-87707807D01*
X142392600Y-87959093D01*
X142392600Y-88215307D01*
X142342616Y-88466593D01*
X142244568Y-88703302D01*
X142102222Y-88916338D01*
X141921058Y-89097502D01*
X141708022Y-89239848D01*
X141471313Y-89337896D01*
X141220027Y-89387880D01*
X140963813Y-89387880D01*
X140712527Y-89337896D01*
X140475818Y-89239848D01*
X140262782Y-89097502D01*
X140081618Y-88916338D01*
X139939272Y-88703302D01*
X139841224Y-88466593D01*
X139791240Y-88215307D01*
X139791240Y-87959093D01*
X139841224Y-87707807D01*
X139939272Y-87471098D01*
X140081618Y-87258062D01*
X140262782Y-87076898D01*
X140475818Y-86934552D01*
X140712527Y-86836504D01*
X140963813Y-86786520D01*
X141220027Y-86786520D01*
X141471313Y-86836504D01*
X141471313Y-86836504D01*
G37*
G36*
X170138425Y-84116760D02*
X170138428Y-84116761D01*
X170138429Y-84116761D01*
X170317693Y-84171140D01*
X170317695Y-84171141D01*
X170482905Y-84259448D01*
X170627712Y-84378288D01*
X170746552Y-84523095D01*
X170746553Y-84523097D01*
X170834860Y-84688307D01*
X170864193Y-84785005D01*
X170889240Y-84867575D01*
X170903000Y-85007282D01*
X170903000Y-87300718D01*
X170889240Y-87440425D01*
X170889239Y-87440428D01*
X170889239Y-87440429D01*
X170857724Y-87544321D01*
X170834859Y-87619695D01*
X170746552Y-87784905D01*
X170627712Y-87929712D01*
X170482904Y-88048554D01*
X170317697Y-88136858D01*
X170317694Y-88136859D01*
X170317692Y-88136860D01*
X170138428Y-88191239D01*
X170138427Y-88191239D01*
X170138424Y-88191240D01*
X169952000Y-88209601D01*
X169765575Y-88191240D01*
X169765572Y-88191239D01*
X169765571Y-88191239D01*
X169586307Y-88136860D01*
X169421097Y-88048553D01*
X169421095Y-88048552D01*
X169276288Y-87929712D01*
X169157446Y-87784904D01*
X169069142Y-87619697D01*
X169046277Y-87544320D01*
X169014761Y-87440428D01*
X169014761Y-87440427D01*
X169014760Y-87440424D01*
X169001000Y-87300717D01*
X169001001Y-85007282D01*
X169014761Y-84867575D01*
X169039808Y-84785005D01*
X169069141Y-84688307D01*
X169157448Y-84523097D01*
X169157449Y-84523095D01*
X169276289Y-84378288D01*
X169421096Y-84259448D01*
X169586306Y-84171141D01*
X169586308Y-84171140D01*
X169765572Y-84116761D01*
X169765573Y-84116761D01*
X169765576Y-84116760D01*
X169952000Y-84098399D01*
X170138425Y-84116760D01*
X170138425Y-84116760D01*
G37*
G36*
X163742821Y-83235313D02*
X163742824Y-83235314D01*
X163742825Y-83235314D01*
X163903239Y-83283975D01*
X163903241Y-83283976D01*
X163903244Y-83283977D01*
X164051078Y-83362995D01*
X164180659Y-83469341D01*
X164287005Y-83598922D01*
X164366023Y-83746756D01*
X164414687Y-83907179D01*
X164431117Y-84074000D01*
X164414687Y-84240821D01*
X164414686Y-84240824D01*
X164414686Y-84240825D01*
X164395219Y-84305000D01*
X164366023Y-84401244D01*
X164287005Y-84549078D01*
X164180659Y-84678659D01*
X164051078Y-84785005D01*
X163903244Y-84864023D01*
X163903241Y-84864024D01*
X163903239Y-84864025D01*
X163742825Y-84912686D01*
X163742824Y-84912686D01*
X163742821Y-84912687D01*
X163617804Y-84925000D01*
X163534196Y-84925000D01*
X163409179Y-84912687D01*
X163409176Y-84912686D01*
X163409175Y-84912686D01*
X163248761Y-84864025D01*
X163248759Y-84864024D01*
X163248756Y-84864023D01*
X163100922Y-84785005D01*
X162971341Y-84678659D01*
X162864995Y-84549078D01*
X162785977Y-84401244D01*
X162756782Y-84305000D01*
X162737314Y-84240825D01*
X162737314Y-84240824D01*
X162737313Y-84240821D01*
X162720883Y-84074000D01*
X162737313Y-83907179D01*
X162785977Y-83746756D01*
X162864995Y-83598922D01*
X162971341Y-83469341D01*
X163100922Y-83362995D01*
X163248756Y-83283977D01*
X163248759Y-83283976D01*
X163248761Y-83283975D01*
X163409175Y-83235314D01*
X163409176Y-83235314D01*
X163409179Y-83235313D01*
X163534196Y-83223000D01*
X163617804Y-83223000D01*
X163742821Y-83235313D01*
X163742821Y-83235313D01*
G37*
G36*
X176038425Y-82416760D02*
X176038428Y-82416761D01*
X176038429Y-82416761D01*
X176217693Y-82471140D01*
X176217695Y-82471141D01*
X176382905Y-82559448D01*
X176527712Y-82678288D01*
X176646552Y-82823095D01*
X176734859Y-82988305D01*
X176789240Y-83167575D01*
X176807601Y-83354000D01*
X176789240Y-83540425D01*
X176734859Y-83719695D01*
X176646552Y-83884905D01*
X176527712Y-84029712D01*
X176382905Y-84148552D01*
X176382903Y-84148553D01*
X176217693Y-84236860D01*
X176038429Y-84291239D01*
X176038428Y-84291239D01*
X176038425Y-84291240D01*
X175898718Y-84305000D01*
X173605282Y-84305000D01*
X173465575Y-84291240D01*
X173465572Y-84291239D01*
X173465571Y-84291239D01*
X173286307Y-84236860D01*
X173121097Y-84148553D01*
X173121095Y-84148552D01*
X172976288Y-84029712D01*
X172857448Y-83884905D01*
X172769141Y-83719695D01*
X172714760Y-83540425D01*
X172696399Y-83354000D01*
X172714760Y-83167575D01*
X172769141Y-82988305D01*
X172857448Y-82823095D01*
X172976288Y-82678288D01*
X173121095Y-82559448D01*
X173286305Y-82471141D01*
X173286307Y-82471140D01*
X173465571Y-82416761D01*
X173465572Y-82416761D01*
X173465575Y-82416760D01*
X173605282Y-82403000D01*
X175898718Y-82403000D01*
X176038425Y-82416760D01*
X176038425Y-82416760D01*
G37*
G36*
X197707420Y-80239143D02*
X197839556Y-80279227D01*
X197839558Y-80279228D01*
X197961338Y-80344320D01*
X197961340Y-80344321D01*
X197961339Y-80344321D01*
X198068078Y-80431918D01*
X198068080Y-80431921D01*
X198155680Y-80538661D01*
X198220772Y-80660441D01*
X198220773Y-80660443D01*
X198260857Y-80792579D01*
X198271000Y-80895568D01*
X198271000Y-81664432D01*
X198260857Y-81767421D01*
X198220773Y-81899557D01*
X198220772Y-81899559D01*
X198155680Y-82021339D01*
X198068080Y-82128080D01*
X197961339Y-82215680D01*
X197839559Y-82280772D01*
X197839557Y-82280773D01*
X197707421Y-82320857D01*
X197570000Y-82334391D01*
X197432580Y-82320857D01*
X197300444Y-82280773D01*
X197300442Y-82280772D01*
X197178662Y-82215680D01*
X197071921Y-82128080D01*
X196984321Y-82021339D01*
X196919229Y-81899559D01*
X196919228Y-81899558D01*
X196879143Y-81767419D01*
X196869000Y-81664432D01*
X196869000Y-80895569D01*
X196879143Y-80792580D01*
X196919227Y-80660444D01*
X196919229Y-80660441D01*
X196984320Y-80538662D01*
X196995883Y-80524573D01*
X197071918Y-80431922D01*
X197101910Y-80407309D01*
X197178661Y-80344320D01*
X197300441Y-80279228D01*
X197300443Y-80279227D01*
X197432579Y-80239143D01*
X197570000Y-80225609D01*
X197707420Y-80239143D01*
X197707420Y-80239143D01*
G37*
G36*
X191907420Y-80239143D02*
X192039556Y-80279227D01*
X192039558Y-80279228D01*
X192161338Y-80344320D01*
X192161340Y-80344321D01*
X192161339Y-80344321D01*
X192268078Y-80431918D01*
X192268080Y-80431921D01*
X192355680Y-80538661D01*
X192420772Y-80660441D01*
X192420773Y-80660443D01*
X192460857Y-80792579D01*
X192471000Y-80895568D01*
X192471000Y-81664432D01*
X192460857Y-81767421D01*
X192420773Y-81899557D01*
X192420772Y-81899559D01*
X192355680Y-82021339D01*
X192268080Y-82128080D01*
X192161339Y-82215680D01*
X192039559Y-82280772D01*
X192039557Y-82280773D01*
X191907421Y-82320857D01*
X191770000Y-82334391D01*
X191632580Y-82320857D01*
X191500444Y-82280773D01*
X191500442Y-82280772D01*
X191378662Y-82215680D01*
X191271921Y-82128080D01*
X191184321Y-82021339D01*
X191119229Y-81899559D01*
X191119228Y-81899558D01*
X191079143Y-81767419D01*
X191069000Y-81664432D01*
X191069000Y-80895569D01*
X191079143Y-80792580D01*
X191119227Y-80660444D01*
X191119229Y-80660441D01*
X191184320Y-80538662D01*
X191195883Y-80524573D01*
X191271918Y-80431922D01*
X191301910Y-80407309D01*
X191378661Y-80344320D01*
X191500441Y-80279228D01*
X191500443Y-80279227D01*
X191632579Y-80239143D01*
X191770000Y-80225609D01*
X191907420Y-80239143D01*
X191907420Y-80239143D01*
G37*
G36*
X143968133Y-76841604D02*
X144204842Y-76939652D01*
X144417878Y-77081998D01*
X144599042Y-77263162D01*
X144741388Y-77476198D01*
X144839436Y-77712907D01*
X144889420Y-77964193D01*
X144889420Y-78220407D01*
X144839436Y-78471693D01*
X144741388Y-78708402D01*
X144599042Y-78921438D01*
X144417878Y-79102602D01*
X144204842Y-79244948D01*
X143968133Y-79342996D01*
X143716847Y-79392980D01*
X143460633Y-79392980D01*
X143209347Y-79342996D01*
X142972638Y-79244948D01*
X142759602Y-79102602D01*
X142578438Y-78921438D01*
X142436092Y-78708402D01*
X142338044Y-78471693D01*
X142288060Y-78220407D01*
X142288060Y-77964193D01*
X142338044Y-77712907D01*
X142436092Y-77476198D01*
X142578438Y-77263162D01*
X142759602Y-77081998D01*
X142972638Y-76939652D01*
X143209347Y-76841604D01*
X143460633Y-76791620D01*
X143716847Y-76791620D01*
X143968133Y-76841604D01*
X143968133Y-76841604D01*
G37*
G36*
X153970653Y-76841604D02*
X154207362Y-76939652D01*
X154420398Y-77081998D01*
X154601562Y-77263162D01*
X154743908Y-77476198D01*
X154841956Y-77712907D01*
X154891940Y-77964193D01*
X154891940Y-78220407D01*
X154841956Y-78471693D01*
X154743908Y-78708402D01*
X154601562Y-78921438D01*
X154420398Y-79102602D01*
X154207362Y-79244948D01*
X153970653Y-79342996D01*
X153719367Y-79392980D01*
X153463153Y-79392980D01*
X153211867Y-79342996D01*
X152975158Y-79244948D01*
X152762122Y-79102602D01*
X152580958Y-78921438D01*
X152438612Y-78708402D01*
X152340564Y-78471693D01*
X152290580Y-78220407D01*
X152290580Y-77964193D01*
X152340564Y-77712907D01*
X152438612Y-77476198D01*
X152580958Y-77263162D01*
X152762122Y-77081998D01*
X152975158Y-76939652D01*
X153211867Y-76841604D01*
X153463153Y-76791620D01*
X153719367Y-76791620D01*
X153970653Y-76841604D01*
X153970653Y-76841604D01*
G37*
M02*
