M48
;DRILL file {KiCad 5.0.2+dfsg1-1~bpo9+1} date Fri 22 Mar 2019 08:12:19 PM CET
;FORMAT={-:-/ absolute / metric / decimal}
FMAT,2
METRIC,TZ
T1C0.600
T2C0.800
T3C0.889
T4C0.900
T5C1.000
T6C1.397
T7C1.501
%
G90
G05
T2
X58.5Y-38.1
X63.5Y-38.1
X25.4Y-30.48
X27.9Y-30.48
X30.48Y-30.48
X30.48Y-35.38
X25.4Y-35.56
X27.9Y-35.56
X33.02Y-38.1
X33.02Y-45.72
X27.94Y-17.78
X35.56Y-17.78
X7.62Y-27.94
X7.62Y-35.56
X10.16Y-27.94
X10.16Y-35.56
X12.7Y-27.94
X12.7Y-35.56
X15.24Y-27.94
X15.24Y-35.56
X10.16Y-40.64
X17.78Y-40.64
X48.26Y-38.1
X48.26Y-45.72
X50.8Y-38.1
X50.8Y-45.72
X53.34Y-38.1
X53.34Y-45.72
X55.88Y-38.1
X55.88Y-45.72
X7.62Y-22.86
X15.24Y-22.86
X35.56Y-22.86
X35.56Y-25.4
X35.56Y-27.94
X35.56Y-30.48
X35.56Y-33.02
X35.56Y-35.56
X35.56Y-38.1
X35.56Y-40.64
X35.56Y-43.18
X35.56Y-45.72
X43.18Y-22.86
X43.18Y-25.4
X43.18Y-27.94
X43.18Y-30.48
X43.18Y-33.02
X43.18Y-35.56
X43.18Y-38.1
X43.18Y-40.64
X43.18Y-43.18
X43.18Y-45.72
X43.18Y-15.24
X43.18Y-20.24
T3
X22.86Y-20.32
X22.86Y-22.86
X27.94Y-20.32
X27.94Y-22.86
X38.1Y-7.62
X38.1Y-15.24
X43.18Y-12.7
X45.72Y-27.94
X45.72Y-33.02
X48.26Y-12.7
X48.26Y-25.4
X48.26Y-33.02
X50.8Y-22.86
X50.8Y-27.94
X53.34Y-20.32
X53.34Y-27.94
X55.88Y-30.48
X60.96Y-22.86
X60.96Y-30.48
X60.96Y-35.56
X60.96Y-40.64
X66.04Y-40.64
T4
X27.94Y-40.64
X27.94Y-43.18
T5
X10.16Y-25.4
X15.24Y-25.4
X55.88Y-22.86
X55.88Y-25.4
X55.88Y-27.94
X58.42Y-22.86
X58.42Y-25.4
X58.42Y-27.94
X25.4Y-25.4
X27.94Y-25.4
X30.48Y-25.4
T6
X7.742Y-15.278
X10.244Y-17.78
X15.24Y-15.281
X20.236Y-17.78
X22.738Y-15.278
T7
X27.94Y-5.08
X33.02Y-5.08
T1
X57.7Y-4.73G85X57.7Y-5.43
G05
X58.35Y-11.93G85X58.35Y-12.63
G05
X62.85Y-11.93G85X62.85Y-12.63
G05
X63.5Y-4.73G85X63.5Y-5.43
G05
T0
M30
