G04 #@! TF.GenerationSoftware,KiCad,Pcbnew,5.0.2+dfsg1-1~bpo9+1*
G04 #@! TF.CreationDate,2019-02-16T22:44:35+01:00*
G04 #@! TF.ProjectId,main,6d61696e-2e6b-4696-9361-645f70636258,v02*
G04 #@! TF.SameCoordinates,Original*
G04 #@! TF.FileFunction,Legend,Top*
G04 #@! TF.FilePolarity,Positive*
%FSLAX46Y46*%
G04 Gerber Fmt 4.6, Leading zero omitted, Abs format (unit mm)*
G04 Created by KiCad (PCBNEW 5.0.2+dfsg1-1~bpo9+1) date Sat 16 Feb 2019 10:44:35 PM CET*
%MOMM*%
%LPD*%
G01*
G04 APERTURE LIST*
%ADD10C,0.120000*%
%ADD11C,0.150000*%
%ADD12C,0.304800*%
G04 APERTURE END LIST*
D10*
G04 #@! TO.C,C1*
X157955000Y-107450000D02*
X157330000Y-107450000D01*
X160170000Y-107450000D02*
X159545000Y-107450000D01*
X157955000Y-103410000D02*
X157330000Y-103410000D01*
X160170000Y-103410000D02*
X159545000Y-103410000D01*
X157330000Y-103410000D02*
X157330000Y-107450000D01*
X160170000Y-103410000D02*
X160170000Y-107450000D01*
G04 #@! TO.C,C2*
X159545000Y-108490000D02*
X160170000Y-108490000D01*
X157330000Y-108490000D02*
X157955000Y-108490000D01*
X159545000Y-112530000D02*
X160170000Y-112530000D01*
X157330000Y-112530000D02*
X157955000Y-112530000D01*
X160170000Y-112530000D02*
X160170000Y-108490000D01*
X157330000Y-112530000D02*
X157330000Y-108490000D01*
G04 #@! TO.C,C3*
X188826000Y-99322000D02*
X188826000Y-95282000D01*
X191666000Y-99322000D02*
X191666000Y-95282000D01*
X188826000Y-99322000D02*
X189451000Y-99322000D01*
X191041000Y-99322000D02*
X191666000Y-99322000D01*
X188826000Y-95282000D02*
X189451000Y-95282000D01*
X191041000Y-95282000D02*
X191666000Y-95282000D01*
G04 #@! TO.C,C4*
X176380000Y-96528000D02*
X176380000Y-92488000D01*
X179220000Y-96528000D02*
X179220000Y-92488000D01*
X176380000Y-96528000D02*
X177005000Y-96528000D01*
X178595000Y-96528000D02*
X179220000Y-96528000D01*
X176380000Y-92488000D02*
X177005000Y-92488000D01*
X178595000Y-92488000D02*
X179220000Y-92488000D01*
G04 #@! TO.C,CON1*
X170152000Y-83954000D02*
X170152000Y-75454000D01*
X170152000Y-75454000D02*
X179352000Y-75454000D01*
X179352000Y-75454000D02*
X179352000Y-90154000D01*
X172252000Y-90154000D02*
X170152000Y-90154000D01*
X170152000Y-90154000D02*
X170152000Y-88354000D01*
X177952000Y-90454000D02*
X179652000Y-90454000D01*
X179652000Y-90454000D02*
X179652000Y-88854000D01*
X179352000Y-90154000D02*
X177252000Y-90154000D01*
G04 #@! TO.C,D1*
X144670000Y-101430000D02*
X144670000Y-100950000D01*
X144670000Y-100950000D02*
X152510000Y-100950000D01*
X152510000Y-100950000D02*
X152510000Y-101430000D01*
X144670000Y-104310000D02*
X144670000Y-104790000D01*
X144670000Y-104790000D02*
X152510000Y-104790000D01*
X152510000Y-104790000D02*
X152510000Y-104310000D01*
X145930000Y-100950000D02*
X145930000Y-104790000D01*
X146050000Y-100950000D02*
X146050000Y-104790000D01*
X145810000Y-100950000D02*
X145810000Y-104790000D01*
G04 #@! TO.C,D2*
X193860000Y-120649538D02*
G75*
G03X199410000Y-122194830I2990000J-462D01*
G01*
X193860000Y-120650462D02*
G75*
G02X199410000Y-119105170I2990000J462D01*
G01*
X199350000Y-120650000D02*
G75*
G03X199350000Y-120650000I-2500000J0D01*
G01*
X199410000Y-122195000D02*
X199410000Y-119105000D01*
D11*
G04 #@! TO.C,J1*
X190670000Y-89880000D02*
X198670000Y-89880000D01*
X190670000Y-76880000D02*
X198670000Y-76880000D01*
X190670000Y-76880000D02*
X190670000Y-89880000D01*
X198670000Y-76880000D02*
X198670000Y-89880000D01*
D12*
G04 #@! TO.C,P1*
X157589220Y-76339700D02*
X138089640Y-76339700D01*
X139590780Y-76090780D02*
X157589220Y-76090780D01*
X159090360Y-75839320D02*
X139590780Y-75839320D01*
X157589220Y-94089220D02*
X157589220Y-77089000D01*
X157589220Y-94089220D02*
X157088840Y-94589600D01*
X157088840Y-94589600D02*
X154589480Y-94589600D01*
X154589480Y-94589600D02*
X154089100Y-94089220D01*
X154089100Y-94089220D02*
X154089100Y-92090240D01*
X154089100Y-92090240D02*
X150588980Y-92090240D01*
X139590780Y-94089220D02*
X139590780Y-77089000D01*
X139590780Y-94089220D02*
X140091160Y-94589600D01*
X140091160Y-94589600D02*
X142090140Y-94589600D01*
X142090140Y-94589600D02*
X142590520Y-94589600D01*
X142590520Y-94589600D02*
X143090900Y-94089220D01*
X143090900Y-94089220D02*
X143090900Y-92090240D01*
X143090900Y-92090240D02*
X146591020Y-92090240D01*
X150091140Y-94589600D02*
X150588980Y-94089220D01*
X150588980Y-94089220D02*
X150588980Y-92090240D01*
X150091140Y-94589600D02*
X147088860Y-94589600D01*
X147088860Y-94589600D02*
X146591020Y-94089220D01*
X146591020Y-94089220D02*
X146591020Y-92090240D01*
X138089640Y-76090780D02*
X139590780Y-76090780D01*
X139590780Y-76090780D02*
X139590780Y-75590400D01*
X139590780Y-75590400D02*
X159090360Y-75590400D01*
X159090360Y-76090780D02*
X157589220Y-76090780D01*
X157589220Y-76090780D02*
X157589220Y-76591160D01*
X157589220Y-76591160D02*
X138089640Y-76591160D01*
X139590780Y-77089000D02*
X140091160Y-77089000D01*
X157589220Y-77089000D02*
X157088840Y-77089000D01*
X140091160Y-76591160D02*
X140091160Y-77089000D01*
X157088840Y-77089000D02*
X157088840Y-76591160D01*
X159090360Y-75590400D02*
X159090360Y-76090780D01*
X138089640Y-76591160D02*
X138089640Y-76090780D01*
D10*
G04 #@! TO.C,P3*
X187004000Y-100524000D02*
X181804000Y-100524000D01*
X187004000Y-105664000D02*
X187004000Y-100524000D01*
X181804000Y-108264000D02*
X181804000Y-100524000D01*
X187004000Y-105664000D02*
X184404000Y-105664000D01*
X184404000Y-105664000D02*
X184404000Y-108264000D01*
X184404000Y-108264000D02*
X181804000Y-108264000D01*
X187004000Y-106934000D02*
X187004000Y-108264000D01*
X187004000Y-108264000D02*
X185674000Y-108264000D01*
G04 #@! TO.C,R1*
X162206000Y-92424000D02*
X164946000Y-92424000D01*
X164946000Y-92424000D02*
X164946000Y-85884000D01*
X164946000Y-85884000D02*
X162206000Y-85884000D01*
X162206000Y-85884000D02*
X162206000Y-92424000D01*
X163576000Y-93194000D02*
X163576000Y-92424000D01*
X163576000Y-85114000D02*
X163576000Y-85884000D01*
G04 #@! TO.C,R2*
X151860000Y-99160000D02*
X151860000Y-96420000D01*
X151860000Y-96420000D02*
X145320000Y-96420000D01*
X145320000Y-96420000D02*
X145320000Y-99160000D01*
X145320000Y-99160000D02*
X151860000Y-99160000D01*
X152630000Y-97790000D02*
X151860000Y-97790000D01*
X144550000Y-97790000D02*
X145320000Y-97790000D01*
G04 #@! TO.C,R3*
X152122000Y-119126000D02*
X151352000Y-119126000D01*
X144042000Y-119126000D02*
X144812000Y-119126000D01*
X151352000Y-117756000D02*
X144812000Y-117756000D01*
X151352000Y-120496000D02*
X151352000Y-117756000D01*
X144812000Y-120496000D02*
X151352000Y-120496000D01*
X144812000Y-117756000D02*
X144812000Y-120496000D01*
G04 #@! TO.C,R4*
X182650000Y-121920000D02*
X183420000Y-121920000D01*
X190730000Y-121920000D02*
X189960000Y-121920000D01*
X183420000Y-123290000D02*
X189960000Y-123290000D01*
X183420000Y-120550000D02*
X183420000Y-123290000D01*
X189960000Y-120550000D02*
X183420000Y-120550000D01*
X189960000Y-123290000D02*
X189960000Y-120550000D01*
G04 #@! TO.C,U1*
X153730000Y-112760000D02*
G75*
G02X153730000Y-110760000I0J1000000D01*
G01*
X153730000Y-110760000D02*
X153730000Y-109110000D01*
X153730000Y-109110000D02*
X143450000Y-109110000D01*
X143450000Y-109110000D02*
X143450000Y-114410000D01*
X143450000Y-114410000D02*
X153730000Y-114410000D01*
X153730000Y-114410000D02*
X153730000Y-112760000D01*
X153790000Y-106620000D02*
X143390000Y-106620000D01*
X143390000Y-106620000D02*
X143390000Y-116900000D01*
X143390000Y-116900000D02*
X153790000Y-116900000D01*
X153790000Y-116900000D02*
X153790000Y-106620000D01*
G04 #@! TO.C,U2*
X199450000Y-100210000D02*
X189170000Y-100210000D01*
X199450000Y-110610000D02*
X199450000Y-100210000D01*
X189170000Y-110610000D02*
X199450000Y-110610000D01*
X189170000Y-100210000D02*
X189170000Y-110610000D01*
X196960000Y-100270000D02*
X195310000Y-100270000D01*
X196960000Y-110550000D02*
X196960000Y-100270000D01*
X191660000Y-110550000D02*
X196960000Y-110550000D01*
X191660000Y-100270000D02*
X191660000Y-110550000D01*
X193310000Y-100270000D02*
X191660000Y-100270000D01*
X195310000Y-100270000D02*
G75*
G02X193310000Y-100270000I-1000000J0D01*
G01*
G04 #@! TO.C,Y1*
X167625000Y-104735000D02*
X167625000Y-110985000D01*
X162575000Y-104735000D02*
X162575000Y-110985000D01*
X162575000Y-104735000D02*
G75*
G02X167625000Y-104735000I2525000J0D01*
G01*
X162575000Y-110985000D02*
G75*
G03X167625000Y-110985000I2525000J0D01*
G01*
G04 #@! TO.C,IC1*
X174990000Y-97730000D02*
G75*
G02X172990000Y-97730000I-1000000J0D01*
G01*
X172990000Y-97730000D02*
X171340000Y-97730000D01*
X171340000Y-97730000D02*
X171340000Y-123250000D01*
X171340000Y-123250000D02*
X176640000Y-123250000D01*
X176640000Y-123250000D02*
X176640000Y-97730000D01*
X176640000Y-97730000D02*
X174990000Y-97730000D01*
X168850000Y-97670000D02*
X168850000Y-123310000D01*
X168850000Y-123310000D02*
X179130000Y-123310000D01*
X179130000Y-123310000D02*
X179130000Y-97670000D01*
X179130000Y-97670000D02*
X168850000Y-97670000D01*
G04 #@! TO.C,J2*
X157674000Y-100644000D02*
X160334000Y-100644000D01*
X157674000Y-95504000D02*
X157674000Y-100644000D01*
X160334000Y-95504000D02*
X160334000Y-100644000D01*
X157674000Y-95504000D02*
X160334000Y-95504000D01*
X157674000Y-94234000D02*
X157674000Y-92904000D01*
X157674000Y-92904000D02*
X159004000Y-92904000D01*
G04 #@! TO.C,C1*
D11*
X161657142Y-105596666D02*
X161704761Y-105644285D01*
X161752380Y-105787142D01*
X161752380Y-105882380D01*
X161704761Y-106025238D01*
X161609523Y-106120476D01*
X161514285Y-106168095D01*
X161323809Y-106215714D01*
X161180952Y-106215714D01*
X160990476Y-106168095D01*
X160895238Y-106120476D01*
X160800000Y-106025238D01*
X160752380Y-105882380D01*
X160752380Y-105787142D01*
X160800000Y-105644285D01*
X160847619Y-105596666D01*
X161752380Y-104644285D02*
X161752380Y-105215714D01*
X161752380Y-104930000D02*
X160752380Y-104930000D01*
X160895238Y-105025238D01*
X160990476Y-105120476D01*
X161038095Y-105215714D01*
G04 #@! TO.C,C2*
X156557142Y-110676666D02*
X156604761Y-110724285D01*
X156652380Y-110867142D01*
X156652380Y-110962380D01*
X156604761Y-111105238D01*
X156509523Y-111200476D01*
X156414285Y-111248095D01*
X156223809Y-111295714D01*
X156080952Y-111295714D01*
X155890476Y-111248095D01*
X155795238Y-111200476D01*
X155700000Y-111105238D01*
X155652380Y-110962380D01*
X155652380Y-110867142D01*
X155700000Y-110724285D01*
X155747619Y-110676666D01*
X155747619Y-110295714D02*
X155700000Y-110248095D01*
X155652380Y-110152857D01*
X155652380Y-109914761D01*
X155700000Y-109819523D01*
X155747619Y-109771904D01*
X155842857Y-109724285D01*
X155938095Y-109724285D01*
X156080952Y-109771904D01*
X156652380Y-110343333D01*
X156652380Y-109724285D01*
G04 #@! TO.C,C3*
X188053142Y-97468666D02*
X188100761Y-97516285D01*
X188148380Y-97659142D01*
X188148380Y-97754380D01*
X188100761Y-97897238D01*
X188005523Y-97992476D01*
X187910285Y-98040095D01*
X187719809Y-98087714D01*
X187576952Y-98087714D01*
X187386476Y-98040095D01*
X187291238Y-97992476D01*
X187196000Y-97897238D01*
X187148380Y-97754380D01*
X187148380Y-97659142D01*
X187196000Y-97516285D01*
X187243619Y-97468666D01*
X187148380Y-97135333D02*
X187148380Y-96516285D01*
X187529333Y-96849619D01*
X187529333Y-96706761D01*
X187576952Y-96611523D01*
X187624571Y-96563904D01*
X187719809Y-96516285D01*
X187957904Y-96516285D01*
X188053142Y-96563904D01*
X188100761Y-96611523D01*
X188148380Y-96706761D01*
X188148380Y-96992476D01*
X188100761Y-97087714D01*
X188053142Y-97135333D01*
G04 #@! TO.C,C4*
X175607142Y-94674666D02*
X175654761Y-94722285D01*
X175702380Y-94865142D01*
X175702380Y-94960380D01*
X175654761Y-95103238D01*
X175559523Y-95198476D01*
X175464285Y-95246095D01*
X175273809Y-95293714D01*
X175130952Y-95293714D01*
X174940476Y-95246095D01*
X174845238Y-95198476D01*
X174750000Y-95103238D01*
X174702380Y-94960380D01*
X174702380Y-94865142D01*
X174750000Y-94722285D01*
X174797619Y-94674666D01*
X175035714Y-93817523D02*
X175702380Y-93817523D01*
X174654761Y-94055619D02*
X175369047Y-94293714D01*
X175369047Y-93674666D01*
G04 #@! TO.C,CON1*
X173537714Y-92011142D02*
X173490095Y-92058761D01*
X173347238Y-92106380D01*
X173252000Y-92106380D01*
X173109142Y-92058761D01*
X173013904Y-91963523D01*
X172966285Y-91868285D01*
X172918666Y-91677809D01*
X172918666Y-91534952D01*
X172966285Y-91344476D01*
X173013904Y-91249238D01*
X173109142Y-91154000D01*
X173252000Y-91106380D01*
X173347238Y-91106380D01*
X173490095Y-91154000D01*
X173537714Y-91201619D01*
X174156761Y-91106380D02*
X174347238Y-91106380D01*
X174442476Y-91154000D01*
X174537714Y-91249238D01*
X174585333Y-91439714D01*
X174585333Y-91773047D01*
X174537714Y-91963523D01*
X174442476Y-92058761D01*
X174347238Y-92106380D01*
X174156761Y-92106380D01*
X174061523Y-92058761D01*
X173966285Y-91963523D01*
X173918666Y-91773047D01*
X173918666Y-91439714D01*
X173966285Y-91249238D01*
X174061523Y-91154000D01*
X174156761Y-91106380D01*
X175013904Y-92106380D02*
X175013904Y-91106380D01*
X175585333Y-92106380D01*
X175585333Y-91106380D01*
X176585333Y-92106380D02*
X176013904Y-92106380D01*
X176299619Y-92106380D02*
X176299619Y-91106380D01*
X176204380Y-91249238D01*
X176109142Y-91344476D01*
X176013904Y-91392095D01*
G04 #@! TO.C,D1*
X147851904Y-100402380D02*
X147851904Y-99402380D01*
X148090000Y-99402380D01*
X148232857Y-99450000D01*
X148328095Y-99545238D01*
X148375714Y-99640476D01*
X148423333Y-99830952D01*
X148423333Y-99973809D01*
X148375714Y-100164285D01*
X148328095Y-100259523D01*
X148232857Y-100354761D01*
X148090000Y-100402380D01*
X147851904Y-100402380D01*
X149375714Y-100402380D02*
X148804285Y-100402380D01*
X149090000Y-100402380D02*
X149090000Y-99402380D01*
X148994761Y-99545238D01*
X148899523Y-99640476D01*
X148804285Y-99688095D01*
X143248095Y-101122380D02*
X143248095Y-100122380D01*
X143819523Y-101122380D02*
X143390952Y-100550952D01*
X143819523Y-100122380D02*
X143248095Y-100693809D01*
G04 #@! TO.C,D2*
X196111904Y-125062380D02*
X196111904Y-124062380D01*
X196350000Y-124062380D01*
X196492857Y-124110000D01*
X196588095Y-124205238D01*
X196635714Y-124300476D01*
X196683333Y-124490952D01*
X196683333Y-124633809D01*
X196635714Y-124824285D01*
X196588095Y-124919523D01*
X196492857Y-125014761D01*
X196350000Y-125062380D01*
X196111904Y-125062380D01*
X197064285Y-124157619D02*
X197111904Y-124110000D01*
X197207142Y-124062380D01*
X197445238Y-124062380D01*
X197540476Y-124110000D01*
X197588095Y-124157619D01*
X197635714Y-124252857D01*
X197635714Y-124348095D01*
X197588095Y-124490952D01*
X197016666Y-125062380D01*
X197635714Y-125062380D01*
G04 #@! TO.C,J1*
X194336666Y-84832380D02*
X194336666Y-85546666D01*
X194289047Y-85689523D01*
X194193809Y-85784761D01*
X194050952Y-85832380D01*
X193955714Y-85832380D01*
X195336666Y-85832380D02*
X194765238Y-85832380D01*
X195050952Y-85832380D02*
X195050952Y-84832380D01*
X194955714Y-84975238D01*
X194860476Y-85070476D01*
X194765238Y-85118095D01*
G04 #@! TO.C,P1*
D12*
X147465142Y-74778688D02*
X147465142Y-73254688D01*
X148045714Y-73254688D01*
X148190857Y-73327260D01*
X148263428Y-73399831D01*
X148336000Y-73544974D01*
X148336000Y-73762688D01*
X148263428Y-73907831D01*
X148190857Y-73980402D01*
X148045714Y-74052974D01*
X147465142Y-74052974D01*
X149787428Y-74778688D02*
X148916571Y-74778688D01*
X149352000Y-74778688D02*
X149352000Y-73254688D01*
X149206857Y-73472402D01*
X149061714Y-73617545D01*
X148916571Y-73690117D01*
X145723428Y-96780168D02*
X145723428Y-95256168D01*
X146086285Y-95256168D01*
X146304000Y-95328740D01*
X146449142Y-95473882D01*
X146521714Y-95619025D01*
X146594285Y-95909311D01*
X146594285Y-96127025D01*
X146521714Y-96417311D01*
X146449142Y-96562454D01*
X146304000Y-96707597D01*
X146086285Y-96780168D01*
X145723428Y-96780168D01*
X147247428Y-96780168D02*
X147247428Y-95256168D01*
X147973142Y-96780168D02*
X147973142Y-95256168D01*
X148844000Y-96780168D01*
X148844000Y-95256168D01*
X149206857Y-96925311D02*
X150368000Y-96925311D01*
X151456571Y-95256168D02*
X150730857Y-95256168D01*
X150658285Y-95981882D01*
X150730857Y-95909311D01*
X150876000Y-95836740D01*
X151238857Y-95836740D01*
X151384000Y-95909311D01*
X151456571Y-95981882D01*
X151529142Y-96127025D01*
X151529142Y-96489882D01*
X151456571Y-96635025D01*
X151384000Y-96707597D01*
X151238857Y-96780168D01*
X150876000Y-96780168D01*
X150730857Y-96707597D01*
X150658285Y-96635025D01*
G04 #@! TO.C,P3*
D11*
X183665904Y-109716380D02*
X183665904Y-108716380D01*
X184046857Y-108716380D01*
X184142095Y-108764000D01*
X184189714Y-108811619D01*
X184237333Y-108906857D01*
X184237333Y-109049714D01*
X184189714Y-109144952D01*
X184142095Y-109192571D01*
X184046857Y-109240190D01*
X183665904Y-109240190D01*
X184570666Y-108716380D02*
X185189714Y-108716380D01*
X184856380Y-109097333D01*
X184999238Y-109097333D01*
X185094476Y-109144952D01*
X185142095Y-109192571D01*
X185189714Y-109287809D01*
X185189714Y-109525904D01*
X185142095Y-109621142D01*
X185094476Y-109668761D01*
X184999238Y-109716380D01*
X184713523Y-109716380D01*
X184618285Y-109668761D01*
X184570666Y-109621142D01*
G04 #@! TO.C,R1*
X161658380Y-89320666D02*
X161182190Y-89654000D01*
X161658380Y-89892095D02*
X160658380Y-89892095D01*
X160658380Y-89511142D01*
X160706000Y-89415904D01*
X160753619Y-89368285D01*
X160848857Y-89320666D01*
X160991714Y-89320666D01*
X161086952Y-89368285D01*
X161134571Y-89415904D01*
X161182190Y-89511142D01*
X161182190Y-89892095D01*
X161658380Y-88368285D02*
X161658380Y-88939714D01*
X161658380Y-88654000D02*
X160658380Y-88654000D01*
X160801238Y-88749238D01*
X160896476Y-88844476D01*
X160944095Y-88939714D01*
G04 #@! TO.C,R2*
X148423333Y-100612380D02*
X148090000Y-100136190D01*
X147851904Y-100612380D02*
X147851904Y-99612380D01*
X148232857Y-99612380D01*
X148328095Y-99660000D01*
X148375714Y-99707619D01*
X148423333Y-99802857D01*
X148423333Y-99945714D01*
X148375714Y-100040952D01*
X148328095Y-100088571D01*
X148232857Y-100136190D01*
X147851904Y-100136190D01*
X148804285Y-99707619D02*
X148851904Y-99660000D01*
X148947142Y-99612380D01*
X149185238Y-99612380D01*
X149280476Y-99660000D01*
X149328095Y-99707619D01*
X149375714Y-99802857D01*
X149375714Y-99898095D01*
X149328095Y-100040952D01*
X148756666Y-100612380D01*
X149375714Y-100612380D01*
G04 #@! TO.C,R3*
X147915333Y-117208380D02*
X147582000Y-116732190D01*
X147343904Y-117208380D02*
X147343904Y-116208380D01*
X147724857Y-116208380D01*
X147820095Y-116256000D01*
X147867714Y-116303619D01*
X147915333Y-116398857D01*
X147915333Y-116541714D01*
X147867714Y-116636952D01*
X147820095Y-116684571D01*
X147724857Y-116732190D01*
X147343904Y-116732190D01*
X148248666Y-116208380D02*
X148867714Y-116208380D01*
X148534380Y-116589333D01*
X148677238Y-116589333D01*
X148772476Y-116636952D01*
X148820095Y-116684571D01*
X148867714Y-116779809D01*
X148867714Y-117017904D01*
X148820095Y-117113142D01*
X148772476Y-117160761D01*
X148677238Y-117208380D01*
X148391523Y-117208380D01*
X148296285Y-117160761D01*
X148248666Y-117113142D01*
G04 #@! TO.C,R4*
X186523333Y-124742380D02*
X186190000Y-124266190D01*
X185951904Y-124742380D02*
X185951904Y-123742380D01*
X186332857Y-123742380D01*
X186428095Y-123790000D01*
X186475714Y-123837619D01*
X186523333Y-123932857D01*
X186523333Y-124075714D01*
X186475714Y-124170952D01*
X186428095Y-124218571D01*
X186332857Y-124266190D01*
X185951904Y-124266190D01*
X187380476Y-124075714D02*
X187380476Y-124742380D01*
X187142380Y-123694761D02*
X186904285Y-124409047D01*
X187523333Y-124409047D01*
G04 #@! TO.C,U1*
X154182380Y-112521904D02*
X154991904Y-112521904D01*
X155087142Y-112474285D01*
X155134761Y-112426666D01*
X155182380Y-112331428D01*
X155182380Y-112140952D01*
X155134761Y-112045714D01*
X155087142Y-111998095D01*
X154991904Y-111950476D01*
X154182380Y-111950476D01*
X155182380Y-110950476D02*
X155182380Y-111521904D01*
X155182380Y-111236190D02*
X154182380Y-111236190D01*
X154325238Y-111331428D01*
X154420476Y-111426666D01*
X154468095Y-111521904D01*
G04 #@! TO.C,U2*
X193548095Y-98722380D02*
X193548095Y-99531904D01*
X193595714Y-99627142D01*
X193643333Y-99674761D01*
X193738571Y-99722380D01*
X193929047Y-99722380D01*
X194024285Y-99674761D01*
X194071904Y-99627142D01*
X194119523Y-99531904D01*
X194119523Y-98722380D01*
X194548095Y-98817619D02*
X194595714Y-98770000D01*
X194690952Y-98722380D01*
X194929047Y-98722380D01*
X195024285Y-98770000D01*
X195071904Y-98817619D01*
X195119523Y-98912857D01*
X195119523Y-99008095D01*
X195071904Y-99150952D01*
X194500476Y-99722380D01*
X195119523Y-99722380D01*
G04 #@! TO.C,Y1*
X168601190Y-108336190D02*
X169077380Y-108336190D01*
X168077380Y-108669523D02*
X168601190Y-108336190D01*
X168077380Y-108002857D01*
X169077380Y-107145714D02*
X169077380Y-107717142D01*
X169077380Y-107431428D02*
X168077380Y-107431428D01*
X168220238Y-107526666D01*
X168315476Y-107621904D01*
X168363095Y-107717142D01*
G04 #@! TO.C,IC1*
X173013809Y-97182380D02*
X173013809Y-96182380D01*
X174061428Y-97087142D02*
X174013809Y-97134761D01*
X173870952Y-97182380D01*
X173775714Y-97182380D01*
X173632857Y-97134761D01*
X173537619Y-97039523D01*
X173490000Y-96944285D01*
X173442380Y-96753809D01*
X173442380Y-96610952D01*
X173490000Y-96420476D01*
X173537619Y-96325238D01*
X173632857Y-96230000D01*
X173775714Y-96182380D01*
X173870952Y-96182380D01*
X174013809Y-96230000D01*
X174061428Y-96277619D01*
X175013809Y-97182380D02*
X174442380Y-97182380D01*
X174728095Y-97182380D02*
X174728095Y-96182380D01*
X174632857Y-96325238D01*
X174537619Y-96420476D01*
X174442380Y-96468095D01*
G04 #@! TO.C,J2*
X158670666Y-91356380D02*
X158670666Y-92070666D01*
X158623047Y-92213523D01*
X158527809Y-92308761D01*
X158384952Y-92356380D01*
X158289714Y-92356380D01*
X159099238Y-91451619D02*
X159146857Y-91404000D01*
X159242095Y-91356380D01*
X159480190Y-91356380D01*
X159575428Y-91404000D01*
X159623047Y-91451619D01*
X159670666Y-91546857D01*
X159670666Y-91642095D01*
X159623047Y-91784952D01*
X159051619Y-92356380D01*
X159670666Y-92356380D01*
G04 #@! TD*
M02*
