G04 #@! TF.GenerationSoftware,KiCad,Pcbnew,5.0.2+dfsg1-1~bpo9+1*
G04 #@! TF.CreationDate,2019-03-22T20:12:16+01:00*
G04 #@! TF.ProjectId,main,6d61696e-2e6b-4696-9361-645f70636258,v03*
G04 #@! TF.SameCoordinates,Original*
G04 #@! TF.FileFunction,Copper,L2,Bot*
G04 #@! TF.FilePolarity,Positive*
%FSLAX46Y46*%
G04 Gerber Fmt 4.6, Leading zero omitted, Abs format (unit mm)*
G04 Created by KiCad (PCBNEW 5.0.2+dfsg1-1~bpo9+1) date Fri 22 Mar 2019 08:12:16 PM CET*
%MOMM*%
%LPD*%
G01*
G04 APERTURE LIST*
G04 #@! TA.AperFunction,ComponentPad*
%ADD10C,1.600000*%
G04 #@! TD*
G04 #@! TA.AperFunction,ComponentPad*
%ADD11R,1.800000X1.800000*%
G04 #@! TD*
G04 #@! TA.AperFunction,ComponentPad*
%ADD12C,1.800000*%
G04 #@! TD*
G04 #@! TA.AperFunction,ComponentPad*
%ADD13O,1.300000X2.000000*%
G04 #@! TD*
G04 #@! TA.AperFunction,ComponentPad*
%ADD14C,2.499360*%
G04 #@! TD*
G04 #@! TA.AperFunction,WasherPad*
%ADD15C,2.499360*%
G04 #@! TD*
G04 #@! TA.AperFunction,ComponentPad*
%ADD16R,1.700000X1.700000*%
G04 #@! TD*
G04 #@! TA.AperFunction,ComponentPad*
%ADD17O,1.700000X1.700000*%
G04 #@! TD*
G04 #@! TA.AperFunction,ComponentPad*
%ADD18R,1.600000X1.600000*%
G04 #@! TD*
G04 #@! TA.AperFunction,ComponentPad*
%ADD19O,1.600000X1.600000*%
G04 #@! TD*
G04 #@! TA.AperFunction,ComponentPad*
%ADD20C,1.500000*%
G04 #@! TD*
G04 #@! TA.AperFunction,ComponentPad*
%ADD21R,2.000000X2.000000*%
G04 #@! TD*
G04 #@! TA.AperFunction,ComponentPad*
%ADD22O,2.000000X2.000000*%
G04 #@! TD*
G04 #@! TA.AperFunction,ComponentPad*
%ADD23R,3.500120X3.500120*%
G04 #@! TD*
G04 #@! TA.AperFunction,ComponentPad*
%ADD24C,3.500120*%
G04 #@! TD*
G04 #@! TA.AperFunction,ViaPad*
%ADD25C,1.778000*%
G04 #@! TD*
G04 #@! TA.AperFunction,Conductor*
%ADD26C,0.889000*%
G04 #@! TD*
G04 APERTURE END LIST*
D10*
G04 #@! TO.P,C1,1*
G04 #@! TO.N,Net-(C1-Pad1)*
X27900000Y-30480000D03*
G04 #@! TO.P,C1,2*
G04 #@! TO.N,GND*
X25400000Y-30480000D03*
G04 #@! TD*
G04 #@! TO.P,C2,2*
G04 #@! TO.N,GND*
X25400000Y-35560000D03*
G04 #@! TO.P,C2,1*
G04 #@! TO.N,Net-(C2-Pad1)*
X27900000Y-35560000D03*
G04 #@! TD*
D11*
G04 #@! TO.P,D2,1*
G04 #@! TO.N,GND*
X27940000Y-43180000D03*
D12*
G04 #@! TO.P,D2,2*
G04 #@! TO.N,Net-(D2-Pad2)*
X27940000Y-40640000D03*
G04 #@! TD*
D13*
G04 #@! TO.P,J1,1*
G04 #@! TO.N,GND*
X58350000Y-12280000D03*
G04 #@! TO.P,J1,2*
G04 #@! TO.N,TRIG*
X57700000Y-5080000D03*
G04 #@! TO.P,J1,3*
G04 #@! TO.N,DACOUT*
X62850000Y-12280000D03*
G04 #@! TO.P,J1,2*
G04 #@! TO.N,TRIG*
X63500000Y-5080000D03*
G04 #@! TD*
D14*
G04 #@! TO.P,J2,3*
G04 #@! TO.N,Net-(J2-Pad3)*
X22738080Y-15278100D03*
G04 #@! TO.P,J2,4*
G04 #@! TO.N,Net-(J2-Pad4)*
X10243820Y-17780000D03*
G04 #@! TO.P,J2,2*
G04 #@! TO.N,Net-(J2-Pad2)*
X15240000Y-15280640D03*
G04 #@! TO.P,J2,1*
G04 #@! TO.N,Net-(J2-Pad1)*
X7741920Y-15278100D03*
G04 #@! TO.P,J2,5*
G04 #@! TO.N,Net-(D1-Pad1)*
X20236180Y-17780000D03*
D15*
G04 #@! TO.P,J2,*
G04 #@! TO.N,*
X10238740Y-5283200D03*
X20241260Y-5283200D03*
G04 #@! TD*
D16*
G04 #@! TO.P,J3,1*
G04 #@! TO.N,RX*
X30480000Y-25400000D03*
D17*
G04 #@! TO.P,J3,2*
G04 #@! TO.N,TX*
X27940000Y-25400000D03*
G04 #@! TO.P,J3,3*
G04 #@! TO.N,GND*
X25400000Y-25400000D03*
G04 #@! TD*
D16*
G04 #@! TO.P,J4,1*
G04 #@! TO.N,DO*
X55880000Y-22860000D03*
D17*
G04 #@! TO.P,J4,2*
G04 #@! TO.N,VCC*
X58420000Y-22860000D03*
G04 #@! TO.P,J4,3*
G04 #@! TO.N,SCK*
X55880000Y-25400000D03*
G04 #@! TO.P,J4,4*
G04 #@! TO.N,MOSI*
X58420000Y-25400000D03*
G04 #@! TO.P,J4,5*
G04 #@! TO.N,RST*
X55880000Y-27940000D03*
G04 #@! TO.P,J4,6*
G04 #@! TO.N,GND*
X58420000Y-27940000D03*
G04 #@! TD*
D18*
G04 #@! TO.P,U1,1*
G04 #@! TO.N,Net-(U1-Pad1)*
X15240000Y-27940000D03*
D19*
G04 #@! TO.P,U1,5*
G04 #@! TO.N,GND*
X7620000Y-35560000D03*
G04 #@! TO.P,U1,2*
G04 #@! TO.N,Net-(D1-Pad2)*
X12700000Y-27940000D03*
G04 #@! TO.P,U1,6*
G04 #@! TO.N,RX*
X10160000Y-35560000D03*
G04 #@! TO.P,U1,3*
G04 #@! TO.N,Net-(D1-Pad1)*
X10160000Y-27940000D03*
G04 #@! TO.P,U1,7*
G04 #@! TO.N,Net-(U1-Pad7)*
X12700000Y-35560000D03*
G04 #@! TO.P,U1,4*
G04 #@! TO.N,Net-(U1-Pad4)*
X7620000Y-27940000D03*
G04 #@! TO.P,U1,8*
G04 #@! TO.N,VCC*
X15240000Y-35560000D03*
G04 #@! TD*
G04 #@! TO.P,U2,8*
G04 #@! TO.N,DACOUT*
X55880000Y-45720000D03*
G04 #@! TO.P,U2,4*
G04 #@! TO.N,DO*
X48260000Y-38100000D03*
G04 #@! TO.P,U2,7*
G04 #@! TO.N,GND*
X53340000Y-45720000D03*
G04 #@! TO.P,U2,3*
G04 #@! TO.N,SCK*
X50800000Y-38100000D03*
G04 #@! TO.P,U2,6*
G04 #@! TO.N,VCC*
X50800000Y-45720000D03*
G04 #@! TO.P,U2,2*
G04 #@! TO.N,~CS*
X53340000Y-38100000D03*
G04 #@! TO.P,U2,5*
G04 #@! TO.N,GND*
X48260000Y-45720000D03*
D18*
G04 #@! TO.P,U2,1*
G04 #@! TO.N,VCC*
X55880000Y-38100000D03*
G04 #@! TD*
G04 #@! TO.P,U3,1*
G04 #@! TO.N,RST*
X35560000Y-22860000D03*
D19*
G04 #@! TO.P,U3,11*
G04 #@! TO.N,~CS*
X43180000Y-45720000D03*
G04 #@! TO.P,U3,2*
G04 #@! TO.N,RX*
X35560000Y-25400000D03*
G04 #@! TO.P,U3,12*
G04 #@! TO.N,Net-(U3-Pad12)*
X43180000Y-43180000D03*
G04 #@! TO.P,U3,3*
G04 #@! TO.N,TX*
X35560000Y-27940000D03*
G04 #@! TO.P,U3,13*
G04 #@! TO.N,Net-(U3-Pad13)*
X43180000Y-40640000D03*
G04 #@! TO.P,U3,4*
G04 #@! TO.N,Net-(C1-Pad1)*
X35560000Y-30480000D03*
G04 #@! TO.P,U3,14*
G04 #@! TO.N,Net-(U3-Pad14)*
X43180000Y-38100000D03*
G04 #@! TO.P,U3,5*
G04 #@! TO.N,Net-(C2-Pad1)*
X35560000Y-33020000D03*
G04 #@! TO.P,U3,15*
G04 #@! TO.N,Net-(U3-Pad15)*
X43180000Y-35560000D03*
G04 #@! TO.P,U3,6*
G04 #@! TO.N,Net-(U3-Pad6)*
X35560000Y-35560000D03*
G04 #@! TO.P,U3,16*
G04 #@! TO.N,Net-(U3-Pad16)*
X43180000Y-33020000D03*
G04 #@! TO.P,U3,7*
G04 #@! TO.N,Net-(U3-Pad7)*
X35560000Y-38100000D03*
G04 #@! TO.P,U3,17*
G04 #@! TO.N,MOSI*
X43180000Y-30480000D03*
G04 #@! TO.P,U3,8*
G04 #@! TO.N,TRIG*
X35560000Y-40640000D03*
G04 #@! TO.P,U3,18*
G04 #@! TO.N,DO*
X43180000Y-27940000D03*
G04 #@! TO.P,U3,9*
G04 #@! TO.N,Net-(R4-Pad2)*
X35560000Y-43180000D03*
G04 #@! TO.P,U3,19*
G04 #@! TO.N,SCK*
X43180000Y-25400000D03*
G04 #@! TO.P,U3,10*
G04 #@! TO.N,GND*
X35560000Y-45720000D03*
G04 #@! TO.P,U3,20*
G04 #@! TO.N,VCC*
X43180000Y-22860000D03*
G04 #@! TD*
D20*
G04 #@! TO.P,Y1,1*
G04 #@! TO.N,Net-(C1-Pad1)*
X30480000Y-30480000D03*
G04 #@! TO.P,Y1,2*
G04 #@! TO.N,Net-(C2-Pad1)*
X30480000Y-35380000D03*
G04 #@! TD*
D21*
G04 #@! TO.P,D1,1*
G04 #@! TO.N,Net-(D1-Pad1)*
X10160000Y-25400000D03*
D22*
G04 #@! TO.P,D1,2*
G04 #@! TO.N,Net-(D1-Pad2)*
X15240000Y-25400000D03*
G04 #@! TD*
D19*
G04 #@! TO.P,R1,2*
G04 #@! TO.N,VCC*
X27940000Y-17780000D03*
D10*
G04 #@! TO.P,R1,1*
G04 #@! TO.N,RST*
X35560000Y-17780000D03*
G04 #@! TD*
G04 #@! TO.P,R2,1*
G04 #@! TO.N,Net-(D1-Pad2)*
X15240000Y-22860000D03*
D19*
G04 #@! TO.P,R2,2*
G04 #@! TO.N,Net-(J2-Pad4)*
X7620000Y-22860000D03*
G04 #@! TD*
D10*
G04 #@! TO.P,R3,1*
G04 #@! TO.N,RX*
X10160000Y-40640000D03*
D19*
G04 #@! TO.P,R3,2*
G04 #@! TO.N,VCC*
X17780000Y-40640000D03*
G04 #@! TD*
G04 #@! TO.P,R4,2*
G04 #@! TO.N,Net-(R4-Pad2)*
X33020000Y-45720000D03*
D10*
G04 #@! TO.P,R4,1*
G04 #@! TO.N,Net-(D2-Pad2)*
X33020000Y-38100000D03*
G04 #@! TD*
G04 #@! TO.P,C3,1*
G04 #@! TO.N,VCC*
X58500000Y-38100000D03*
G04 #@! TO.P,C3,2*
G04 #@! TO.N,GND*
X63500000Y-38100000D03*
G04 #@! TD*
G04 #@! TO.P,C4,2*
G04 #@! TO.N,GND*
X43180000Y-15240000D03*
G04 #@! TO.P,C4,1*
G04 #@! TO.N,VCC*
X43180000Y-20240000D03*
G04 #@! TD*
D23*
G04 #@! TO.P,J5,1*
G04 #@! TO.N,GND*
X27940000Y-5080000D03*
D24*
G04 #@! TO.P,J5,2*
G04 #@! TO.N,VCC*
X33020000Y-5080000D03*
G04 #@! TD*
D25*
G04 #@! TO.N,VCC*
X27940000Y-20320000D03*
X22860000Y-20320000D03*
X60960000Y-22860000D03*
X60960000Y-35560000D03*
G04 #@! TO.N,TRIG*
X38100000Y-15240000D03*
X38100000Y-7620000D03*
G04 #@! TO.N,DACOUT*
X60960000Y-40640000D03*
X66040000Y-40640000D03*
G04 #@! TO.N,RX*
X22860000Y-22860000D03*
X27940000Y-22860000D03*
G04 #@! TO.N,DO*
X45720000Y-33020000D03*
X45720000Y-27940000D03*
X50800000Y-22860000D03*
X50800000Y-27940000D03*
G04 #@! TO.N,SCK*
X48260000Y-33020000D03*
X48260000Y-25400000D03*
G04 #@! TO.N,MOSI*
X55880000Y-30480000D03*
X60960000Y-30480000D03*
G04 #@! TO.N,RST*
X53340000Y-20320000D03*
X53340000Y-27940000D03*
X43180000Y-12700000D03*
X48260000Y-12700000D03*
G04 #@! TD*
D26*
G04 #@! TO.N,GND*
X25400000Y-35560000D02*
X25400000Y-30480000D01*
X25400000Y-25400000D02*
X25400000Y-30480000D01*
X27940000Y-43180000D02*
X25400000Y-43180000D01*
X25400000Y-43180000D02*
X25400000Y-35560000D01*
X25400000Y-48260000D02*
X25400000Y-43180000D01*
X7620000Y-36691370D02*
X7620000Y-35560000D01*
X7620000Y-41069622D02*
X7620000Y-36691370D01*
X14810378Y-48260000D02*
X7620000Y-41069622D01*
X25400000Y-48260000D02*
X14810378Y-48260000D01*
X35560000Y-45720000D02*
X35560000Y-48260000D01*
X35560000Y-48260000D02*
X25400000Y-48260000D01*
X48260000Y-48260000D02*
X48260000Y-45720000D01*
X48260000Y-48260000D02*
X53340000Y-48260000D01*
X53340000Y-48260000D02*
X53340000Y-45720000D01*
X63500000Y-38100000D02*
X63500000Y-45720000D01*
X60960000Y-48260000D02*
X53340000Y-48260000D01*
X63500000Y-45720000D02*
X60960000Y-48260000D01*
X58420000Y-27940000D02*
X58420000Y-33020000D01*
X58420000Y-33020000D02*
X63500000Y-33020000D01*
X63500000Y-38100000D02*
X63500000Y-33020000D01*
X58350000Y-12630000D02*
X58350000Y-12280000D01*
X63500000Y-17780000D02*
X58350000Y-12630000D01*
X63500000Y-33020000D02*
X63500000Y-17780000D01*
X40640000Y-48260000D02*
X40640000Y-17780000D01*
X40640000Y-17780000D02*
X43180000Y-15240000D01*
X35560000Y-48260000D02*
X40640000Y-48260000D01*
X40640000Y-48260000D02*
X48260000Y-48260000D01*
X27940000Y-13711329D02*
X27940000Y-5080000D01*
X25400000Y-16251329D02*
X27940000Y-13711329D01*
X25400000Y-25400000D02*
X25400000Y-16251329D01*
G04 #@! TO.N,Net-(C1-Pad1)*
X35560000Y-30480000D02*
X30480000Y-30480000D01*
X30480000Y-30480000D02*
X27900000Y-30480000D01*
G04 #@! TO.N,Net-(C2-Pad1)*
X32840000Y-33020000D02*
X30480000Y-35380000D01*
X35560000Y-33020000D02*
X32840000Y-33020000D01*
X28080000Y-35380000D02*
X27900000Y-35560000D01*
X30480000Y-35380000D02*
X28080000Y-35380000D01*
G04 #@! TO.N,VCC*
X15240000Y-38100000D02*
X17780000Y-40640000D01*
X15240000Y-35560000D02*
X15240000Y-38100000D01*
X27940000Y-20320000D02*
X27940000Y-17780000D01*
X22298658Y-20320000D02*
X22860000Y-20320000D01*
X17780000Y-40640000D02*
X19050000Y-40640000D01*
X19050000Y-40640000D02*
X20320000Y-39370000D01*
X20320000Y-39370000D02*
X20320000Y-22298658D01*
X20320000Y-22298658D02*
X22298658Y-20320000D01*
X55880000Y-39026250D02*
X55880000Y-38100000D01*
X50800000Y-44106250D02*
X55880000Y-39026250D01*
X50800000Y-45720000D02*
X50800000Y-44106250D01*
X55880000Y-38100000D02*
X58500000Y-38100000D01*
X58500000Y-38020000D02*
X60960000Y-35560000D01*
X58500000Y-38100000D02*
X58500000Y-38020000D01*
X60960000Y-22860000D02*
X58420000Y-22860000D01*
X43180000Y-22860000D02*
X43180000Y-20240000D01*
X45720000Y-17700000D02*
X43180000Y-20240000D01*
X45720000Y-10160000D02*
X45720000Y-17700000D01*
X38100000Y-10160000D02*
X45720000Y-10160000D01*
X50800000Y-10160000D02*
X58420000Y-17780000D01*
X58420000Y-17780000D02*
X58420000Y-22860000D01*
X45720000Y-10160000D02*
X50800000Y-10160000D01*
X33020000Y-5080000D02*
X33020000Y-10160000D01*
X33020000Y-10160000D02*
X38100000Y-10160000D01*
X33020000Y-10160000D02*
X33020000Y-12700000D01*
X33020000Y-12700000D02*
X27940000Y-17780000D01*
G04 #@! TO.N,Net-(D1-Pad1)*
X10160000Y-23511000D02*
X10160000Y-25400000D01*
X15891000Y-17780000D02*
X10160000Y-23511000D01*
X20236180Y-17780000D02*
X15891000Y-17780000D01*
X10160000Y-25400000D02*
X10160000Y-27940000D01*
G04 #@! TO.N,Net-(D1-Pad2)*
X15240000Y-22860000D02*
X15240000Y-25400000D01*
X12700000Y-26808630D02*
X12700000Y-27940000D01*
X12700000Y-26525787D02*
X12700000Y-26808630D01*
X13825787Y-25400000D02*
X12700000Y-26525787D01*
X15240000Y-25400000D02*
X13825787Y-25400000D01*
G04 #@! TO.N,Net-(D2-Pad2)*
X30480000Y-40640000D02*
X33020000Y-38100000D01*
X27940000Y-40640000D02*
X30480000Y-40640000D01*
G04 #@! TO.N,TRIG*
X63500000Y-5080000D02*
X57700000Y-5080000D01*
X40640000Y-5080000D02*
X57700000Y-5080000D01*
X35560000Y-40640000D02*
X36691370Y-40640000D01*
X36691370Y-40640000D02*
X38100000Y-39231370D01*
X38100000Y-38341662D02*
X38100000Y-15240000D01*
X38100000Y-39231370D02*
X38100000Y-38341662D01*
X38100000Y-7620000D02*
X40640000Y-5080000D01*
G04 #@! TO.N,DACOUT*
X55880000Y-45720000D02*
X60960000Y-40640000D01*
X63080000Y-12280000D02*
X62850000Y-12280000D01*
X66040000Y-15240000D02*
X63080000Y-12280000D01*
X66040000Y-40640000D02*
X66040000Y-15240000D01*
G04 #@! TO.N,RX*
X10160000Y-35560000D02*
X10160000Y-40640000D01*
X35560000Y-25400000D02*
X30480000Y-25400000D01*
X10160000Y-40640000D02*
X16128990Y-46608990D01*
X16128990Y-46608990D02*
X21971010Y-46608990D01*
X29679000Y-22860000D02*
X27940000Y-22860000D01*
X30480000Y-23661000D02*
X29679000Y-22860000D01*
X30480000Y-25400000D02*
X30480000Y-23661000D01*
X22860000Y-45720000D02*
X21971010Y-46608990D01*
X22860000Y-22860000D02*
X22860000Y-45720000D01*
G04 #@! TO.N,TX*
X27940000Y-26731702D02*
X27940000Y-26602081D01*
X29148298Y-27940000D02*
X27940000Y-26731702D01*
X27940000Y-26602081D02*
X27940000Y-25400000D01*
X35560000Y-27940000D02*
X29148298Y-27940000D01*
G04 #@! TO.N,DO*
X43180000Y-27940000D02*
X45720000Y-27940000D01*
X45720000Y-27940000D02*
X50800000Y-27940000D01*
X50800000Y-22860000D02*
X55880000Y-22860000D01*
X45720000Y-35560000D02*
X45720000Y-33020000D01*
X48260000Y-38100000D02*
X45720000Y-35560000D01*
G04 #@! TO.N,SCK*
X43180000Y-25400000D02*
X48260000Y-25400000D01*
X48260000Y-25400000D02*
X55880000Y-25400000D01*
X50800000Y-35560000D02*
X48260000Y-33020000D01*
X50800000Y-38100000D02*
X50800000Y-35560000D01*
G04 #@! TO.N,MOSI*
X43180000Y-30480000D02*
X55880000Y-30480000D01*
X59622081Y-25400000D02*
X58420000Y-25400000D01*
X60960000Y-26737919D02*
X59622081Y-25400000D01*
X60960000Y-30480000D02*
X60960000Y-26737919D01*
G04 #@! TO.N,RST*
X35560000Y-17780000D02*
X35560000Y-22860000D01*
X55880000Y-27940000D02*
X53340000Y-27940000D01*
X53340000Y-17780000D02*
X53340000Y-20320000D01*
X48260000Y-12700000D02*
X53340000Y-17780000D01*
X35560000Y-15240000D02*
X35560000Y-17780000D01*
X43180000Y-12700000D02*
X35560000Y-12700000D01*
X35560000Y-12700000D02*
X35560000Y-15240000D01*
G04 #@! TO.N,~CS*
X53340000Y-39231370D02*
X53340000Y-38100000D01*
X52464869Y-40106501D02*
X53340000Y-39231370D01*
X44311370Y-45720000D02*
X49924869Y-40106501D01*
X49924869Y-40106501D02*
X52464869Y-40106501D01*
X43180000Y-45720000D02*
X44311370Y-45720000D01*
G04 #@! TO.N,Net-(J2-Pad4)*
X10243820Y-20236180D02*
X7620000Y-22860000D01*
X10243820Y-17780000D02*
X10243820Y-20236180D01*
G04 #@! TO.N,Net-(R4-Pad2)*
X34428630Y-43180000D02*
X35560000Y-43180000D01*
X33020000Y-44588630D02*
X34428630Y-43180000D01*
X33020000Y-45720000D02*
X33020000Y-44588630D01*
G04 #@! TD*
M02*
