G04 #@! TF.GenerationSoftware,KiCad,Pcbnew,5.0.2+dfsg1-1~bpo9+1*
G04 #@! TF.CreationDate,2019-02-16T22:44:35+01:00*
G04 #@! TF.ProjectId,main,6d61696e-2e6b-4696-9361-645f70636258,v02*
G04 #@! TF.SameCoordinates,Original*
G04 #@! TF.FileFunction,Copper,L1,Top*
G04 #@! TF.FilePolarity,Positive*
%FSLAX46Y46*%
G04 Gerber Fmt 4.6, Leading zero omitted, Abs format (unit mm)*
G04 Created by KiCad (PCBNEW 5.0.2+dfsg1-1~bpo9+1) date Sat 16 Feb 2019 10:44:35 PM CET*
%MOMM*%
%LPD*%
G01*
G04 APERTURE LIST*
G04 #@! TA.AperFunction,ComponentPad*
%ADD10C,1.600000*%
G04 #@! TD*
G04 #@! TA.AperFunction,ComponentPad*
%ADD11O,1.800000X4.000000*%
G04 #@! TD*
G04 #@! TA.AperFunction,ComponentPad*
%ADD12O,4.000000X1.800000*%
G04 #@! TD*
G04 #@! TA.AperFunction,ComponentPad*
%ADD13R,4.400000X1.800000*%
G04 #@! TD*
G04 #@! TA.AperFunction,ComponentPad*
%ADD14R,2.400000X2.400000*%
G04 #@! TD*
G04 #@! TA.AperFunction,ComponentPad*
%ADD15O,2.400000X2.400000*%
G04 #@! TD*
G04 #@! TA.AperFunction,ComponentPad*
%ADD16R,1.800000X1.800000*%
G04 #@! TD*
G04 #@! TA.AperFunction,ComponentPad*
%ADD17C,1.800000*%
G04 #@! TD*
G04 #@! TA.AperFunction,ComponentPad*
%ADD18O,1.300000X2.000000*%
G04 #@! TD*
G04 #@! TA.AperFunction,ComponentPad*
%ADD19C,2.499360*%
G04 #@! TD*
G04 #@! TA.AperFunction,WasherPad*
%ADD20C,2.499360*%
G04 #@! TD*
G04 #@! TA.AperFunction,ComponentPad*
%ADD21R,1.700000X1.700000*%
G04 #@! TD*
G04 #@! TA.AperFunction,ComponentPad*
%ADD22O,1.700000X1.700000*%
G04 #@! TD*
G04 #@! TA.AperFunction,ComponentPad*
%ADD23O,1.600000X1.600000*%
G04 #@! TD*
G04 #@! TA.AperFunction,ComponentPad*
%ADD24R,1.600000X1.600000*%
G04 #@! TD*
G04 #@! TA.AperFunction,ComponentPad*
%ADD25C,1.500000*%
G04 #@! TD*
G04 APERTURE END LIST*
D10*
G04 #@! TO.P,C1,2*
G04 #@! TO.N,GND*
X158750000Y-106680000D03*
G04 #@! TO.P,C1,1*
G04 #@! TO.N,Net-(C1-Pad1)*
X158750000Y-104180000D03*
G04 #@! TD*
G04 #@! TO.P,C2,2*
G04 #@! TO.N,GND*
X158750000Y-109260000D03*
G04 #@! TO.P,C2,1*
G04 #@! TO.N,Net-(C2-Pad1)*
X158750000Y-111760000D03*
G04 #@! TD*
G04 #@! TO.P,C3,1*
G04 #@! TO.N,VCC*
X190246000Y-98552000D03*
G04 #@! TO.P,C3,2*
G04 #@! TO.N,GND*
X190246000Y-96052000D03*
G04 #@! TD*
G04 #@! TO.P,C4,1*
G04 #@! TO.N,VCC*
X177800000Y-95758000D03*
G04 #@! TO.P,C4,2*
G04 #@! TO.N,GND*
X177800000Y-93258000D03*
G04 #@! TD*
D11*
G04 #@! TO.P,CON1,3*
G04 #@! TO.N,GND*
X169952000Y-86154000D03*
D12*
G04 #@! TO.P,CON1,2*
X174752000Y-83354000D03*
D13*
G04 #@! TO.P,CON1,1*
G04 #@! TO.N,VCC*
X174752000Y-89154000D03*
G04 #@! TD*
D14*
G04 #@! TO.P,D1,1*
G04 #@! TO.N,Net-(D1-Pad1)*
X143510000Y-102870000D03*
D15*
G04 #@! TO.P,D1,2*
G04 #@! TO.N,Net-(D1-Pad2)*
X153670000Y-102870000D03*
G04 #@! TD*
D16*
G04 #@! TO.P,D2,1*
G04 #@! TO.N,GND*
X198120000Y-120650000D03*
D17*
G04 #@! TO.P,D2,2*
G04 #@! TO.N,Net-(D2-Pad2)*
X195580000Y-120650000D03*
G04 #@! TD*
D18*
G04 #@! TO.P,J1,1*
G04 #@! TO.N,GND*
X192420000Y-88480000D03*
G04 #@! TO.P,J1,2*
G04 #@! TO.N,TRIG*
X191770000Y-81280000D03*
G04 #@! TO.P,J1,3*
G04 #@! TO.N,DACOUT*
X196920000Y-88480000D03*
G04 #@! TO.P,J1,2*
G04 #@! TO.N,TRIG*
X197570000Y-81280000D03*
G04 #@! TD*
D19*
G04 #@! TO.P,P1,3*
G04 #@! TO.N,Net-(P1-Pad3)*
X156088080Y-88087200D03*
G04 #@! TO.P,P1,4*
G04 #@! TO.N,Net-(P1-Pad4)*
X143593820Y-90589100D03*
G04 #@! TO.P,P1,2*
G04 #@! TO.N,Net-(P1-Pad2)*
X148590000Y-88089740D03*
G04 #@! TO.P,P1,1*
G04 #@! TO.N,Net-(P1-Pad1)*
X141091920Y-88087200D03*
G04 #@! TO.P,P1,5*
G04 #@! TO.N,Net-(D1-Pad1)*
X153586180Y-90589100D03*
D20*
G04 #@! TO.P,P1,*
G04 #@! TO.N,*
X143588740Y-78092300D03*
X153591260Y-78092300D03*
G04 #@! TD*
D21*
G04 #@! TO.P,P3,1*
G04 #@! TO.N,DO*
X185674000Y-106934000D03*
D22*
G04 #@! TO.P,P3,2*
G04 #@! TO.N,VCC*
X183134000Y-106934000D03*
G04 #@! TO.P,P3,3*
G04 #@! TO.N,SCK*
X185674000Y-104394000D03*
G04 #@! TO.P,P3,4*
G04 #@! TO.N,MOSI*
X183134000Y-104394000D03*
G04 #@! TO.P,P3,5*
G04 #@! TO.N,RST*
X185674000Y-101854000D03*
G04 #@! TO.P,P3,6*
G04 #@! TO.N,GND*
X183134000Y-101854000D03*
G04 #@! TD*
D10*
G04 #@! TO.P,R1,1*
G04 #@! TO.N,RST*
X163576000Y-94234000D03*
D23*
G04 #@! TO.P,R1,2*
G04 #@! TO.N,VCC*
X163576000Y-84074000D03*
G04 #@! TD*
D10*
G04 #@! TO.P,R2,1*
G04 #@! TO.N,Net-(D1-Pad2)*
X153670000Y-97790000D03*
D23*
G04 #@! TO.P,R2,2*
G04 #@! TO.N,Net-(P1-Pad4)*
X143510000Y-97790000D03*
G04 #@! TD*
G04 #@! TO.P,R3,2*
G04 #@! TO.N,VCC*
X153162000Y-119126000D03*
D10*
G04 #@! TO.P,R3,1*
G04 #@! TO.N,RX*
X143002000Y-119126000D03*
G04 #@! TD*
D23*
G04 #@! TO.P,R4,2*
G04 #@! TO.N,Net-(IC1-Pad12)*
X181610000Y-121920000D03*
D10*
G04 #@! TO.P,R4,1*
G04 #@! TO.N,Net-(D2-Pad2)*
X191770000Y-121920000D03*
G04 #@! TD*
D24*
G04 #@! TO.P,U1,1*
G04 #@! TO.N,Net-(U1-Pad1)*
X152400000Y-107950000D03*
D23*
G04 #@! TO.P,U1,5*
G04 #@! TO.N,GND*
X144780000Y-115570000D03*
G04 #@! TO.P,U1,2*
G04 #@! TO.N,Net-(D1-Pad2)*
X149860000Y-107950000D03*
G04 #@! TO.P,U1,6*
G04 #@! TO.N,RX*
X147320000Y-115570000D03*
G04 #@! TO.P,U1,3*
G04 #@! TO.N,Net-(D1-Pad1)*
X147320000Y-107950000D03*
G04 #@! TO.P,U1,7*
G04 #@! TO.N,Net-(U1-Pad7)*
X149860000Y-115570000D03*
G04 #@! TO.P,U1,4*
G04 #@! TO.N,Net-(U1-Pad4)*
X144780000Y-107950000D03*
G04 #@! TO.P,U1,8*
G04 #@! TO.N,VCC*
X152400000Y-115570000D03*
G04 #@! TD*
G04 #@! TO.P,U2,8*
G04 #@! TO.N,DACOUT*
X198120000Y-101600000D03*
G04 #@! TO.P,U2,4*
G04 #@! TO.N,DO*
X190500000Y-109220000D03*
G04 #@! TO.P,U2,7*
G04 #@! TO.N,GND*
X198120000Y-104140000D03*
G04 #@! TO.P,U2,3*
G04 #@! TO.N,SCK*
X190500000Y-106680000D03*
G04 #@! TO.P,U2,6*
G04 #@! TO.N,VCC*
X198120000Y-106680000D03*
G04 #@! TO.P,U2,2*
G04 #@! TO.N,~CS*
X190500000Y-104140000D03*
G04 #@! TO.P,U2,5*
G04 #@! TO.N,GND*
X198120000Y-109220000D03*
D24*
G04 #@! TO.P,U2,1*
G04 #@! TO.N,VCC*
X190500000Y-101600000D03*
G04 #@! TD*
D25*
G04 #@! TO.P,Y1,1*
G04 #@! TO.N,Net-(C1-Pad1)*
X165100000Y-105410000D03*
G04 #@! TO.P,Y1,2*
G04 #@! TO.N,Net-(C2-Pad1)*
X165100000Y-110310000D03*
G04 #@! TD*
D24*
G04 #@! TO.P,IC1,1*
G04 #@! TO.N,RST*
X170180000Y-99060000D03*
D23*
G04 #@! TO.P,IC1,11*
G04 #@! TO.N,~CS*
X177800000Y-121920000D03*
G04 #@! TO.P,IC1,2*
G04 #@! TO.N,RX*
X170180000Y-101600000D03*
G04 #@! TO.P,IC1,12*
G04 #@! TO.N,Net-(IC1-Pad12)*
X177800000Y-119380000D03*
G04 #@! TO.P,IC1,3*
G04 #@! TO.N,TX*
X170180000Y-104140000D03*
G04 #@! TO.P,IC1,13*
G04 #@! TO.N,Net-(IC1-Pad13)*
X177800000Y-116840000D03*
G04 #@! TO.P,IC1,4*
G04 #@! TO.N,Net-(C1-Pad1)*
X170180000Y-106680000D03*
G04 #@! TO.P,IC1,14*
G04 #@! TO.N,Net-(IC1-Pad14)*
X177800000Y-114300000D03*
G04 #@! TO.P,IC1,5*
G04 #@! TO.N,Net-(C2-Pad1)*
X170180000Y-109220000D03*
G04 #@! TO.P,IC1,15*
G04 #@! TO.N,Net-(IC1-Pad15)*
X177800000Y-111760000D03*
G04 #@! TO.P,IC1,6*
G04 #@! TO.N,Net-(IC1-Pad6)*
X170180000Y-111760000D03*
G04 #@! TO.P,IC1,16*
G04 #@! TO.N,Net-(IC1-Pad16)*
X177800000Y-109220000D03*
G04 #@! TO.P,IC1,7*
G04 #@! TO.N,Net-(IC1-Pad7)*
X170180000Y-114300000D03*
G04 #@! TO.P,IC1,17*
G04 #@! TO.N,MOSI*
X177800000Y-106680000D03*
G04 #@! TO.P,IC1,8*
G04 #@! TO.N,Net-(IC1-Pad8)*
X170180000Y-116840000D03*
G04 #@! TO.P,IC1,18*
G04 #@! TO.N,DO*
X177800000Y-104140000D03*
G04 #@! TO.P,IC1,9*
G04 #@! TO.N,TRIG*
X170180000Y-119380000D03*
G04 #@! TO.P,IC1,19*
G04 #@! TO.N,SCK*
X177800000Y-101600000D03*
G04 #@! TO.P,IC1,10*
G04 #@! TO.N,GND*
X170180000Y-121920000D03*
G04 #@! TO.P,IC1,20*
G04 #@! TO.N,VCC*
X177800000Y-99060000D03*
G04 #@! TD*
D21*
G04 #@! TO.P,J2,1*
G04 #@! TO.N,RX*
X159004000Y-94234000D03*
D22*
G04 #@! TO.P,J2,2*
G04 #@! TO.N,TX*
X159004000Y-96774000D03*
G04 #@! TO.P,J2,3*
G04 #@! TO.N,GND*
X159004000Y-99314000D03*
G04 #@! TD*
M02*
