G04 #@! TF.GenerationSoftware,KiCad,Pcbnew,5.0.2+dfsg1-1~bpo9+1*
G04 #@! TF.CreationDate,2019-03-22T20:12:16+01:00*
G04 #@! TF.ProjectId,main,6d61696e-2e6b-4696-9361-645f70636258,v03*
G04 #@! TF.SameCoordinates,Original*
G04 #@! TF.FileFunction,Soldermask,Top*
G04 #@! TF.FilePolarity,Negative*
%FSLAX46Y46*%
G04 Gerber Fmt 4.6, Leading zero omitted, Abs format (unit mm)*
G04 Created by KiCad (PCBNEW 5.0.2+dfsg1-1~bpo9+1) date Fri 22 Mar 2019 08:12:16 PM CET*
%MOMM*%
%LPD*%
G01*
G04 APERTURE LIST*
%ADD10C,0.100000*%
G04 APERTURE END LIST*
D10*
G36*
X67875256Y-45891298D02*
X67981579Y-45912447D01*
X68282042Y-46036903D01*
X68297518Y-46047244D01*
X68552454Y-46217587D01*
X68782413Y-46447546D01*
X68782415Y-46447549D01*
X68864903Y-46571000D01*
X68963098Y-46717960D01*
X69087553Y-47018422D01*
X69151000Y-47337389D01*
X69151000Y-47662611D01*
X69087553Y-47981578D01*
X68963098Y-48282040D01*
X68782413Y-48552454D01*
X68552454Y-48782413D01*
X68552451Y-48782415D01*
X68282042Y-48963097D01*
X67981579Y-49087553D01*
X67875256Y-49108702D01*
X67662611Y-49151000D01*
X67337389Y-49151000D01*
X67124744Y-49108702D01*
X67018421Y-49087553D01*
X66717958Y-48963097D01*
X66447549Y-48782415D01*
X66447546Y-48782413D01*
X66217587Y-48552454D01*
X66036902Y-48282040D01*
X65912447Y-47981578D01*
X65849000Y-47662611D01*
X65849000Y-47337389D01*
X65912447Y-47018422D01*
X66036902Y-46717960D01*
X66135098Y-46571000D01*
X66217585Y-46447549D01*
X66217587Y-46447546D01*
X66447546Y-46217587D01*
X66702482Y-46047244D01*
X66717958Y-46036903D01*
X67018421Y-45912447D01*
X67124744Y-45891298D01*
X67337389Y-45849000D01*
X67662611Y-45849000D01*
X67875256Y-45891298D01*
X67875256Y-45891298D01*
G37*
G36*
X2875256Y-45891298D02*
X2981579Y-45912447D01*
X3282042Y-46036903D01*
X3297518Y-46047244D01*
X3552454Y-46217587D01*
X3782413Y-46447546D01*
X3782415Y-46447549D01*
X3864903Y-46571000D01*
X3963098Y-46717960D01*
X4087553Y-47018422D01*
X4151000Y-47337389D01*
X4151000Y-47662611D01*
X4087553Y-47981578D01*
X3963098Y-48282040D01*
X3782413Y-48552454D01*
X3552454Y-48782413D01*
X3552451Y-48782415D01*
X3282042Y-48963097D01*
X2981579Y-49087553D01*
X2875256Y-49108702D01*
X2662611Y-49151000D01*
X2337389Y-49151000D01*
X2124744Y-49108702D01*
X2018421Y-49087553D01*
X1717958Y-48963097D01*
X1447549Y-48782415D01*
X1447546Y-48782413D01*
X1217587Y-48552454D01*
X1036902Y-48282040D01*
X912447Y-47981578D01*
X849000Y-47662611D01*
X849000Y-47337389D01*
X912447Y-47018422D01*
X1036902Y-46717960D01*
X1135098Y-46571000D01*
X1217585Y-46447549D01*
X1217587Y-46447546D01*
X1447546Y-46217587D01*
X1702482Y-46047244D01*
X1717958Y-46036903D01*
X2018421Y-45912447D01*
X2124744Y-45891298D01*
X2337389Y-45849000D01*
X2662611Y-45849000D01*
X2875256Y-45891298D01*
X2875256Y-45891298D01*
G37*
G36*
X33186821Y-44881313D02*
X33186824Y-44881314D01*
X33186825Y-44881314D01*
X33347239Y-44929975D01*
X33347241Y-44929976D01*
X33347244Y-44929977D01*
X33495078Y-45008995D01*
X33624659Y-45115341D01*
X33731005Y-45244922D01*
X33810023Y-45392756D01*
X33858687Y-45553179D01*
X33875117Y-45720000D01*
X33858687Y-45886821D01*
X33858686Y-45886824D01*
X33858686Y-45886825D01*
X33813161Y-46036902D01*
X33810023Y-46047244D01*
X33731005Y-46195078D01*
X33624659Y-46324659D01*
X33495078Y-46431005D01*
X33347244Y-46510023D01*
X33347241Y-46510024D01*
X33347239Y-46510025D01*
X33186825Y-46558686D01*
X33186824Y-46558686D01*
X33186821Y-46558687D01*
X33061804Y-46571000D01*
X32978196Y-46571000D01*
X32853179Y-46558687D01*
X32853176Y-46558686D01*
X32853175Y-46558686D01*
X32692761Y-46510025D01*
X32692759Y-46510024D01*
X32692756Y-46510023D01*
X32544922Y-46431005D01*
X32415341Y-46324659D01*
X32308995Y-46195078D01*
X32229977Y-46047244D01*
X32226840Y-46036902D01*
X32181314Y-45886825D01*
X32181314Y-45886824D01*
X32181313Y-45886821D01*
X32164883Y-45720000D01*
X32181313Y-45553179D01*
X32229977Y-45392756D01*
X32308995Y-45244922D01*
X32415341Y-45115341D01*
X32544922Y-45008995D01*
X32692756Y-44929977D01*
X32692759Y-44929976D01*
X32692761Y-44929975D01*
X32853175Y-44881314D01*
X32853176Y-44881314D01*
X32853179Y-44881313D01*
X32978196Y-44869000D01*
X33061804Y-44869000D01*
X33186821Y-44881313D01*
X33186821Y-44881313D01*
G37*
G36*
X56046821Y-44881313D02*
X56046824Y-44881314D01*
X56046825Y-44881314D01*
X56207239Y-44929975D01*
X56207241Y-44929976D01*
X56207244Y-44929977D01*
X56355078Y-45008995D01*
X56484659Y-45115341D01*
X56591005Y-45244922D01*
X56670023Y-45392756D01*
X56718687Y-45553179D01*
X56735117Y-45720000D01*
X56718687Y-45886821D01*
X56718686Y-45886824D01*
X56718686Y-45886825D01*
X56673161Y-46036902D01*
X56670023Y-46047244D01*
X56591005Y-46195078D01*
X56484659Y-46324659D01*
X56355078Y-46431005D01*
X56207244Y-46510023D01*
X56207241Y-46510024D01*
X56207239Y-46510025D01*
X56046825Y-46558686D01*
X56046824Y-46558686D01*
X56046821Y-46558687D01*
X55921804Y-46571000D01*
X55838196Y-46571000D01*
X55713179Y-46558687D01*
X55713176Y-46558686D01*
X55713175Y-46558686D01*
X55552761Y-46510025D01*
X55552759Y-46510024D01*
X55552756Y-46510023D01*
X55404922Y-46431005D01*
X55275341Y-46324659D01*
X55168995Y-46195078D01*
X55089977Y-46047244D01*
X55086840Y-46036902D01*
X55041314Y-45886825D01*
X55041314Y-45886824D01*
X55041313Y-45886821D01*
X55024883Y-45720000D01*
X55041313Y-45553179D01*
X55089977Y-45392756D01*
X55168995Y-45244922D01*
X55275341Y-45115341D01*
X55404922Y-45008995D01*
X55552756Y-44929977D01*
X55552759Y-44929976D01*
X55552761Y-44929975D01*
X55713175Y-44881314D01*
X55713176Y-44881314D01*
X55713179Y-44881313D01*
X55838196Y-44869000D01*
X55921804Y-44869000D01*
X56046821Y-44881313D01*
X56046821Y-44881313D01*
G37*
G36*
X53506821Y-44881313D02*
X53506824Y-44881314D01*
X53506825Y-44881314D01*
X53667239Y-44929975D01*
X53667241Y-44929976D01*
X53667244Y-44929977D01*
X53815078Y-45008995D01*
X53944659Y-45115341D01*
X54051005Y-45244922D01*
X54130023Y-45392756D01*
X54178687Y-45553179D01*
X54195117Y-45720000D01*
X54178687Y-45886821D01*
X54178686Y-45886824D01*
X54178686Y-45886825D01*
X54133161Y-46036902D01*
X54130023Y-46047244D01*
X54051005Y-46195078D01*
X53944659Y-46324659D01*
X53815078Y-46431005D01*
X53667244Y-46510023D01*
X53667241Y-46510024D01*
X53667239Y-46510025D01*
X53506825Y-46558686D01*
X53506824Y-46558686D01*
X53506821Y-46558687D01*
X53381804Y-46571000D01*
X53298196Y-46571000D01*
X53173179Y-46558687D01*
X53173176Y-46558686D01*
X53173175Y-46558686D01*
X53012761Y-46510025D01*
X53012759Y-46510024D01*
X53012756Y-46510023D01*
X52864922Y-46431005D01*
X52735341Y-46324659D01*
X52628995Y-46195078D01*
X52549977Y-46047244D01*
X52546840Y-46036902D01*
X52501314Y-45886825D01*
X52501314Y-45886824D01*
X52501313Y-45886821D01*
X52484883Y-45720000D01*
X52501313Y-45553179D01*
X52549977Y-45392756D01*
X52628995Y-45244922D01*
X52735341Y-45115341D01*
X52864922Y-45008995D01*
X53012756Y-44929977D01*
X53012759Y-44929976D01*
X53012761Y-44929975D01*
X53173175Y-44881314D01*
X53173176Y-44881314D01*
X53173179Y-44881313D01*
X53298196Y-44869000D01*
X53381804Y-44869000D01*
X53506821Y-44881313D01*
X53506821Y-44881313D01*
G37*
G36*
X48426821Y-44881313D02*
X48426824Y-44881314D01*
X48426825Y-44881314D01*
X48587239Y-44929975D01*
X48587241Y-44929976D01*
X48587244Y-44929977D01*
X48735078Y-45008995D01*
X48864659Y-45115341D01*
X48971005Y-45244922D01*
X49050023Y-45392756D01*
X49098687Y-45553179D01*
X49115117Y-45720000D01*
X49098687Y-45886821D01*
X49098686Y-45886824D01*
X49098686Y-45886825D01*
X49053161Y-46036902D01*
X49050023Y-46047244D01*
X48971005Y-46195078D01*
X48864659Y-46324659D01*
X48735078Y-46431005D01*
X48587244Y-46510023D01*
X48587241Y-46510024D01*
X48587239Y-46510025D01*
X48426825Y-46558686D01*
X48426824Y-46558686D01*
X48426821Y-46558687D01*
X48301804Y-46571000D01*
X48218196Y-46571000D01*
X48093179Y-46558687D01*
X48093176Y-46558686D01*
X48093175Y-46558686D01*
X47932761Y-46510025D01*
X47932759Y-46510024D01*
X47932756Y-46510023D01*
X47784922Y-46431005D01*
X47655341Y-46324659D01*
X47548995Y-46195078D01*
X47469977Y-46047244D01*
X47466840Y-46036902D01*
X47421314Y-45886825D01*
X47421314Y-45886824D01*
X47421313Y-45886821D01*
X47404883Y-45720000D01*
X47421313Y-45553179D01*
X47469977Y-45392756D01*
X47548995Y-45244922D01*
X47655341Y-45115341D01*
X47784922Y-45008995D01*
X47932756Y-44929977D01*
X47932759Y-44929976D01*
X47932761Y-44929975D01*
X48093175Y-44881314D01*
X48093176Y-44881314D01*
X48093179Y-44881313D01*
X48218196Y-44869000D01*
X48301804Y-44869000D01*
X48426821Y-44881313D01*
X48426821Y-44881313D01*
G37*
G36*
X43346821Y-44881313D02*
X43346824Y-44881314D01*
X43346825Y-44881314D01*
X43507239Y-44929975D01*
X43507241Y-44929976D01*
X43507244Y-44929977D01*
X43655078Y-45008995D01*
X43784659Y-45115341D01*
X43891005Y-45244922D01*
X43970023Y-45392756D01*
X44018687Y-45553179D01*
X44035117Y-45720000D01*
X44018687Y-45886821D01*
X44018686Y-45886824D01*
X44018686Y-45886825D01*
X43973161Y-46036902D01*
X43970023Y-46047244D01*
X43891005Y-46195078D01*
X43784659Y-46324659D01*
X43655078Y-46431005D01*
X43507244Y-46510023D01*
X43507241Y-46510024D01*
X43507239Y-46510025D01*
X43346825Y-46558686D01*
X43346824Y-46558686D01*
X43346821Y-46558687D01*
X43221804Y-46571000D01*
X43138196Y-46571000D01*
X43013179Y-46558687D01*
X43013176Y-46558686D01*
X43013175Y-46558686D01*
X42852761Y-46510025D01*
X42852759Y-46510024D01*
X42852756Y-46510023D01*
X42704922Y-46431005D01*
X42575341Y-46324659D01*
X42468995Y-46195078D01*
X42389977Y-46047244D01*
X42386840Y-46036902D01*
X42341314Y-45886825D01*
X42341314Y-45886824D01*
X42341313Y-45886821D01*
X42324883Y-45720000D01*
X42341313Y-45553179D01*
X42389977Y-45392756D01*
X42468995Y-45244922D01*
X42575341Y-45115341D01*
X42704922Y-45008995D01*
X42852756Y-44929977D01*
X42852759Y-44929976D01*
X42852761Y-44929975D01*
X43013175Y-44881314D01*
X43013176Y-44881314D01*
X43013179Y-44881313D01*
X43138196Y-44869000D01*
X43221804Y-44869000D01*
X43346821Y-44881313D01*
X43346821Y-44881313D01*
G37*
G36*
X35726821Y-44881313D02*
X35726824Y-44881314D01*
X35726825Y-44881314D01*
X35887239Y-44929975D01*
X35887241Y-44929976D01*
X35887244Y-44929977D01*
X36035078Y-45008995D01*
X36164659Y-45115341D01*
X36271005Y-45244922D01*
X36350023Y-45392756D01*
X36398687Y-45553179D01*
X36415117Y-45720000D01*
X36398687Y-45886821D01*
X36398686Y-45886824D01*
X36398686Y-45886825D01*
X36353161Y-46036902D01*
X36350023Y-46047244D01*
X36271005Y-46195078D01*
X36164659Y-46324659D01*
X36035078Y-46431005D01*
X35887244Y-46510023D01*
X35887241Y-46510024D01*
X35887239Y-46510025D01*
X35726825Y-46558686D01*
X35726824Y-46558686D01*
X35726821Y-46558687D01*
X35601804Y-46571000D01*
X35518196Y-46571000D01*
X35393179Y-46558687D01*
X35393176Y-46558686D01*
X35393175Y-46558686D01*
X35232761Y-46510025D01*
X35232759Y-46510024D01*
X35232756Y-46510023D01*
X35084922Y-46431005D01*
X34955341Y-46324659D01*
X34848995Y-46195078D01*
X34769977Y-46047244D01*
X34766840Y-46036902D01*
X34721314Y-45886825D01*
X34721314Y-45886824D01*
X34721313Y-45886821D01*
X34704883Y-45720000D01*
X34721313Y-45553179D01*
X34769977Y-45392756D01*
X34848995Y-45244922D01*
X34955341Y-45115341D01*
X35084922Y-45008995D01*
X35232756Y-44929977D01*
X35232759Y-44929976D01*
X35232761Y-44929975D01*
X35393175Y-44881314D01*
X35393176Y-44881314D01*
X35393179Y-44881313D01*
X35518196Y-44869000D01*
X35601804Y-44869000D01*
X35726821Y-44881313D01*
X35726821Y-44881313D01*
G37*
G36*
X50966821Y-44881313D02*
X50966824Y-44881314D01*
X50966825Y-44881314D01*
X51127239Y-44929975D01*
X51127241Y-44929976D01*
X51127244Y-44929977D01*
X51275078Y-45008995D01*
X51404659Y-45115341D01*
X51511005Y-45244922D01*
X51590023Y-45392756D01*
X51638687Y-45553179D01*
X51655117Y-45720000D01*
X51638687Y-45886821D01*
X51638686Y-45886824D01*
X51638686Y-45886825D01*
X51593161Y-46036902D01*
X51590023Y-46047244D01*
X51511005Y-46195078D01*
X51404659Y-46324659D01*
X51275078Y-46431005D01*
X51127244Y-46510023D01*
X51127241Y-46510024D01*
X51127239Y-46510025D01*
X50966825Y-46558686D01*
X50966824Y-46558686D01*
X50966821Y-46558687D01*
X50841804Y-46571000D01*
X50758196Y-46571000D01*
X50633179Y-46558687D01*
X50633176Y-46558686D01*
X50633175Y-46558686D01*
X50472761Y-46510025D01*
X50472759Y-46510024D01*
X50472756Y-46510023D01*
X50324922Y-46431005D01*
X50195341Y-46324659D01*
X50088995Y-46195078D01*
X50009977Y-46047244D01*
X50006840Y-46036902D01*
X49961314Y-45886825D01*
X49961314Y-45886824D01*
X49961313Y-45886821D01*
X49944883Y-45720000D01*
X49961313Y-45553179D01*
X50009977Y-45392756D01*
X50088995Y-45244922D01*
X50195341Y-45115341D01*
X50324922Y-45008995D01*
X50472756Y-44929977D01*
X50472759Y-44929976D01*
X50472761Y-44929975D01*
X50633175Y-44881314D01*
X50633176Y-44881314D01*
X50633179Y-44881313D01*
X50758196Y-44869000D01*
X50841804Y-44869000D01*
X50966821Y-44881313D01*
X50966821Y-44881313D01*
G37*
G36*
X28891000Y-44131000D02*
X26989000Y-44131000D01*
X26989000Y-42229000D01*
X28891000Y-42229000D01*
X28891000Y-44131000D01*
X28891000Y-44131000D01*
G37*
G36*
X35726821Y-42341313D02*
X35726824Y-42341314D01*
X35726825Y-42341314D01*
X35887239Y-42389975D01*
X35887241Y-42389976D01*
X35887244Y-42389977D01*
X36035078Y-42468995D01*
X36164659Y-42575341D01*
X36271005Y-42704922D01*
X36350023Y-42852756D01*
X36398687Y-43013179D01*
X36415117Y-43180000D01*
X36398687Y-43346821D01*
X36350023Y-43507244D01*
X36271005Y-43655078D01*
X36164659Y-43784659D01*
X36035078Y-43891005D01*
X35887244Y-43970023D01*
X35887241Y-43970024D01*
X35887239Y-43970025D01*
X35726825Y-44018686D01*
X35726824Y-44018686D01*
X35726821Y-44018687D01*
X35601804Y-44031000D01*
X35518196Y-44031000D01*
X35393179Y-44018687D01*
X35393176Y-44018686D01*
X35393175Y-44018686D01*
X35232761Y-43970025D01*
X35232759Y-43970024D01*
X35232756Y-43970023D01*
X35084922Y-43891005D01*
X34955341Y-43784659D01*
X34848995Y-43655078D01*
X34769977Y-43507244D01*
X34721313Y-43346821D01*
X34704883Y-43180000D01*
X34721313Y-43013179D01*
X34769977Y-42852756D01*
X34848995Y-42704922D01*
X34955341Y-42575341D01*
X35084922Y-42468995D01*
X35232756Y-42389977D01*
X35232759Y-42389976D01*
X35232761Y-42389975D01*
X35393175Y-42341314D01*
X35393176Y-42341314D01*
X35393179Y-42341313D01*
X35518196Y-42329000D01*
X35601804Y-42329000D01*
X35726821Y-42341313D01*
X35726821Y-42341313D01*
G37*
G36*
X43346821Y-42341313D02*
X43346824Y-42341314D01*
X43346825Y-42341314D01*
X43507239Y-42389975D01*
X43507241Y-42389976D01*
X43507244Y-42389977D01*
X43655078Y-42468995D01*
X43784659Y-42575341D01*
X43891005Y-42704922D01*
X43970023Y-42852756D01*
X44018687Y-43013179D01*
X44035117Y-43180000D01*
X44018687Y-43346821D01*
X43970023Y-43507244D01*
X43891005Y-43655078D01*
X43784659Y-43784659D01*
X43655078Y-43891005D01*
X43507244Y-43970023D01*
X43507241Y-43970024D01*
X43507239Y-43970025D01*
X43346825Y-44018686D01*
X43346824Y-44018686D01*
X43346821Y-44018687D01*
X43221804Y-44031000D01*
X43138196Y-44031000D01*
X43013179Y-44018687D01*
X43013176Y-44018686D01*
X43013175Y-44018686D01*
X42852761Y-43970025D01*
X42852759Y-43970024D01*
X42852756Y-43970023D01*
X42704922Y-43891005D01*
X42575341Y-43784659D01*
X42468995Y-43655078D01*
X42389977Y-43507244D01*
X42341313Y-43346821D01*
X42324883Y-43180000D01*
X42341313Y-43013179D01*
X42389977Y-42852756D01*
X42468995Y-42704922D01*
X42575341Y-42575341D01*
X42704922Y-42468995D01*
X42852756Y-42389977D01*
X42852759Y-42389976D01*
X42852761Y-42389975D01*
X43013175Y-42341314D01*
X43013176Y-42341314D01*
X43013179Y-42341313D01*
X43138196Y-42329000D01*
X43221804Y-42329000D01*
X43346821Y-42341313D01*
X43346821Y-42341313D01*
G37*
G36*
X28217396Y-39725546D02*
X28390466Y-39797234D01*
X28546230Y-39901312D01*
X28678688Y-40033770D01*
X28782766Y-40189534D01*
X28854454Y-40362604D01*
X28891000Y-40546333D01*
X28891000Y-40733667D01*
X28854454Y-40917396D01*
X28782766Y-41090466D01*
X28678688Y-41246230D01*
X28546230Y-41378688D01*
X28390466Y-41482766D01*
X28217396Y-41554454D01*
X28033667Y-41591000D01*
X27846333Y-41591000D01*
X27662604Y-41554454D01*
X27489534Y-41482766D01*
X27333770Y-41378688D01*
X27201312Y-41246230D01*
X27097234Y-41090466D01*
X27025546Y-40917396D01*
X26989000Y-40733667D01*
X26989000Y-40546333D01*
X27025546Y-40362604D01*
X27097234Y-40189534D01*
X27201312Y-40033770D01*
X27333770Y-39901312D01*
X27489534Y-39797234D01*
X27662604Y-39725546D01*
X27846333Y-39689000D01*
X28033667Y-39689000D01*
X28217396Y-39725546D01*
X28217396Y-39725546D01*
G37*
G36*
X17946821Y-39801313D02*
X17946824Y-39801314D01*
X17946825Y-39801314D01*
X18107239Y-39849975D01*
X18107241Y-39849976D01*
X18107244Y-39849977D01*
X18255078Y-39928995D01*
X18384659Y-40035341D01*
X18491005Y-40164922D01*
X18570023Y-40312756D01*
X18570024Y-40312759D01*
X18570025Y-40312761D01*
X18618686Y-40473175D01*
X18618687Y-40473179D01*
X18635117Y-40640000D01*
X18618687Y-40806821D01*
X18618686Y-40806824D01*
X18618686Y-40806825D01*
X18585145Y-40917396D01*
X18570023Y-40967244D01*
X18491005Y-41115078D01*
X18384659Y-41244659D01*
X18255078Y-41351005D01*
X18107244Y-41430023D01*
X18107241Y-41430024D01*
X18107239Y-41430025D01*
X17946825Y-41478686D01*
X17946824Y-41478686D01*
X17946821Y-41478687D01*
X17821804Y-41491000D01*
X17738196Y-41491000D01*
X17613179Y-41478687D01*
X17613176Y-41478686D01*
X17613175Y-41478686D01*
X17452761Y-41430025D01*
X17452759Y-41430024D01*
X17452756Y-41430023D01*
X17304922Y-41351005D01*
X17175341Y-41244659D01*
X17068995Y-41115078D01*
X16989977Y-40967244D01*
X16974856Y-40917396D01*
X16941314Y-40806825D01*
X16941314Y-40806824D01*
X16941313Y-40806821D01*
X16924883Y-40640000D01*
X16941313Y-40473179D01*
X16941314Y-40473175D01*
X16989975Y-40312761D01*
X16989976Y-40312759D01*
X16989977Y-40312756D01*
X17068995Y-40164922D01*
X17175341Y-40035341D01*
X17304922Y-39928995D01*
X17452756Y-39849977D01*
X17452759Y-39849976D01*
X17452761Y-39849975D01*
X17613175Y-39801314D01*
X17613176Y-39801314D01*
X17613179Y-39801313D01*
X17738196Y-39789000D01*
X17821804Y-39789000D01*
X17946821Y-39801313D01*
X17946821Y-39801313D01*
G37*
G36*
X43346821Y-39801313D02*
X43346824Y-39801314D01*
X43346825Y-39801314D01*
X43507239Y-39849975D01*
X43507241Y-39849976D01*
X43507244Y-39849977D01*
X43655078Y-39928995D01*
X43784659Y-40035341D01*
X43891005Y-40164922D01*
X43970023Y-40312756D01*
X43970024Y-40312759D01*
X43970025Y-40312761D01*
X44018686Y-40473175D01*
X44018687Y-40473179D01*
X44035117Y-40640000D01*
X44018687Y-40806821D01*
X44018686Y-40806824D01*
X44018686Y-40806825D01*
X43985145Y-40917396D01*
X43970023Y-40967244D01*
X43891005Y-41115078D01*
X43784659Y-41244659D01*
X43655078Y-41351005D01*
X43507244Y-41430023D01*
X43507241Y-41430024D01*
X43507239Y-41430025D01*
X43346825Y-41478686D01*
X43346824Y-41478686D01*
X43346821Y-41478687D01*
X43221804Y-41491000D01*
X43138196Y-41491000D01*
X43013179Y-41478687D01*
X43013176Y-41478686D01*
X43013175Y-41478686D01*
X42852761Y-41430025D01*
X42852759Y-41430024D01*
X42852756Y-41430023D01*
X42704922Y-41351005D01*
X42575341Y-41244659D01*
X42468995Y-41115078D01*
X42389977Y-40967244D01*
X42374856Y-40917396D01*
X42341314Y-40806825D01*
X42341314Y-40806824D01*
X42341313Y-40806821D01*
X42324883Y-40640000D01*
X42341313Y-40473179D01*
X42341314Y-40473175D01*
X42389975Y-40312761D01*
X42389976Y-40312759D01*
X42389977Y-40312756D01*
X42468995Y-40164922D01*
X42575341Y-40035341D01*
X42704922Y-39928995D01*
X42852756Y-39849977D01*
X42852759Y-39849976D01*
X42852761Y-39849975D01*
X43013175Y-39801314D01*
X43013176Y-39801314D01*
X43013179Y-39801313D01*
X43138196Y-39789000D01*
X43221804Y-39789000D01*
X43346821Y-39801313D01*
X43346821Y-39801313D01*
G37*
G36*
X35726821Y-39801313D02*
X35726824Y-39801314D01*
X35726825Y-39801314D01*
X35887239Y-39849975D01*
X35887241Y-39849976D01*
X35887244Y-39849977D01*
X36035078Y-39928995D01*
X36164659Y-40035341D01*
X36271005Y-40164922D01*
X36350023Y-40312756D01*
X36350024Y-40312759D01*
X36350025Y-40312761D01*
X36398686Y-40473175D01*
X36398687Y-40473179D01*
X36415117Y-40640000D01*
X36398687Y-40806821D01*
X36398686Y-40806824D01*
X36398686Y-40806825D01*
X36365145Y-40917396D01*
X36350023Y-40967244D01*
X36271005Y-41115078D01*
X36164659Y-41244659D01*
X36035078Y-41351005D01*
X35887244Y-41430023D01*
X35887241Y-41430024D01*
X35887239Y-41430025D01*
X35726825Y-41478686D01*
X35726824Y-41478686D01*
X35726821Y-41478687D01*
X35601804Y-41491000D01*
X35518196Y-41491000D01*
X35393179Y-41478687D01*
X35393176Y-41478686D01*
X35393175Y-41478686D01*
X35232761Y-41430025D01*
X35232759Y-41430024D01*
X35232756Y-41430023D01*
X35084922Y-41351005D01*
X34955341Y-41244659D01*
X34848995Y-41115078D01*
X34769977Y-40967244D01*
X34754856Y-40917396D01*
X34721314Y-40806825D01*
X34721314Y-40806824D01*
X34721313Y-40806821D01*
X34704883Y-40640000D01*
X34721313Y-40473179D01*
X34721314Y-40473175D01*
X34769975Y-40312761D01*
X34769976Y-40312759D01*
X34769977Y-40312756D01*
X34848995Y-40164922D01*
X34955341Y-40035341D01*
X35084922Y-39928995D01*
X35232756Y-39849977D01*
X35232759Y-39849976D01*
X35232761Y-39849975D01*
X35393175Y-39801314D01*
X35393176Y-39801314D01*
X35393179Y-39801313D01*
X35518196Y-39789000D01*
X35601804Y-39789000D01*
X35726821Y-39801313D01*
X35726821Y-39801313D01*
G37*
G36*
X10408228Y-39821703D02*
X10563100Y-39885853D01*
X10702481Y-39978985D01*
X10821015Y-40097519D01*
X10914147Y-40236900D01*
X10978297Y-40391772D01*
X11011000Y-40556184D01*
X11011000Y-40723816D01*
X10978297Y-40888228D01*
X10914147Y-41043100D01*
X10821015Y-41182481D01*
X10702481Y-41301015D01*
X10563100Y-41394147D01*
X10408228Y-41458297D01*
X10243816Y-41491000D01*
X10076184Y-41491000D01*
X9911772Y-41458297D01*
X9756900Y-41394147D01*
X9617519Y-41301015D01*
X9498985Y-41182481D01*
X9405853Y-41043100D01*
X9341703Y-40888228D01*
X9309000Y-40723816D01*
X9309000Y-40556184D01*
X9341703Y-40391772D01*
X9405853Y-40236900D01*
X9498985Y-40097519D01*
X9617519Y-39978985D01*
X9756900Y-39885853D01*
X9911772Y-39821703D01*
X10076184Y-39789000D01*
X10243816Y-39789000D01*
X10408228Y-39821703D01*
X10408228Y-39821703D01*
G37*
G36*
X63748228Y-37281703D02*
X63903100Y-37345853D01*
X64042481Y-37438985D01*
X64161015Y-37557519D01*
X64254147Y-37696900D01*
X64318297Y-37851772D01*
X64351000Y-38016184D01*
X64351000Y-38183816D01*
X64318297Y-38348228D01*
X64254147Y-38503100D01*
X64161015Y-38642481D01*
X64042481Y-38761015D01*
X63903100Y-38854147D01*
X63748228Y-38918297D01*
X63583816Y-38951000D01*
X63416184Y-38951000D01*
X63251772Y-38918297D01*
X63096900Y-38854147D01*
X62957519Y-38761015D01*
X62838985Y-38642481D01*
X62745853Y-38503100D01*
X62681703Y-38348228D01*
X62649000Y-38183816D01*
X62649000Y-38016184D01*
X62681703Y-37851772D01*
X62745853Y-37696900D01*
X62838985Y-37557519D01*
X62957519Y-37438985D01*
X63096900Y-37345853D01*
X63251772Y-37281703D01*
X63416184Y-37249000D01*
X63583816Y-37249000D01*
X63748228Y-37281703D01*
X63748228Y-37281703D01*
G37*
G36*
X33268228Y-37281703D02*
X33423100Y-37345853D01*
X33562481Y-37438985D01*
X33681015Y-37557519D01*
X33774147Y-37696900D01*
X33838297Y-37851772D01*
X33871000Y-38016184D01*
X33871000Y-38183816D01*
X33838297Y-38348228D01*
X33774147Y-38503100D01*
X33681015Y-38642481D01*
X33562481Y-38761015D01*
X33423100Y-38854147D01*
X33268228Y-38918297D01*
X33103816Y-38951000D01*
X32936184Y-38951000D01*
X32771772Y-38918297D01*
X32616900Y-38854147D01*
X32477519Y-38761015D01*
X32358985Y-38642481D01*
X32265853Y-38503100D01*
X32201703Y-38348228D01*
X32169000Y-38183816D01*
X32169000Y-38016184D01*
X32201703Y-37851772D01*
X32265853Y-37696900D01*
X32358985Y-37557519D01*
X32477519Y-37438985D01*
X32616900Y-37345853D01*
X32771772Y-37281703D01*
X32936184Y-37249000D01*
X33103816Y-37249000D01*
X33268228Y-37281703D01*
X33268228Y-37281703D01*
G37*
G36*
X58748228Y-37281703D02*
X58903100Y-37345853D01*
X59042481Y-37438985D01*
X59161015Y-37557519D01*
X59254147Y-37696900D01*
X59318297Y-37851772D01*
X59351000Y-38016184D01*
X59351000Y-38183816D01*
X59318297Y-38348228D01*
X59254147Y-38503100D01*
X59161015Y-38642481D01*
X59042481Y-38761015D01*
X58903100Y-38854147D01*
X58748228Y-38918297D01*
X58583816Y-38951000D01*
X58416184Y-38951000D01*
X58251772Y-38918297D01*
X58096900Y-38854147D01*
X57957519Y-38761015D01*
X57838985Y-38642481D01*
X57745853Y-38503100D01*
X57681703Y-38348228D01*
X57649000Y-38183816D01*
X57649000Y-38016184D01*
X57681703Y-37851772D01*
X57745853Y-37696900D01*
X57838985Y-37557519D01*
X57957519Y-37438985D01*
X58096900Y-37345853D01*
X58251772Y-37281703D01*
X58416184Y-37249000D01*
X58583816Y-37249000D01*
X58748228Y-37281703D01*
X58748228Y-37281703D01*
G37*
G36*
X35726821Y-37261313D02*
X35726824Y-37261314D01*
X35726825Y-37261314D01*
X35887239Y-37309975D01*
X35887241Y-37309976D01*
X35887244Y-37309977D01*
X36035078Y-37388995D01*
X36164659Y-37495341D01*
X36271005Y-37624922D01*
X36350023Y-37772756D01*
X36350024Y-37772759D01*
X36350025Y-37772761D01*
X36398686Y-37933175D01*
X36398687Y-37933179D01*
X36415117Y-38100000D01*
X36398687Y-38266821D01*
X36398686Y-38266824D01*
X36398686Y-38266825D01*
X36373993Y-38348228D01*
X36350023Y-38427244D01*
X36271005Y-38575078D01*
X36164659Y-38704659D01*
X36035078Y-38811005D01*
X35887244Y-38890023D01*
X35887241Y-38890024D01*
X35887239Y-38890025D01*
X35726825Y-38938686D01*
X35726824Y-38938686D01*
X35726821Y-38938687D01*
X35601804Y-38951000D01*
X35518196Y-38951000D01*
X35393179Y-38938687D01*
X35393176Y-38938686D01*
X35393175Y-38938686D01*
X35232761Y-38890025D01*
X35232759Y-38890024D01*
X35232756Y-38890023D01*
X35084922Y-38811005D01*
X34955341Y-38704659D01*
X34848995Y-38575078D01*
X34769977Y-38427244D01*
X34746008Y-38348228D01*
X34721314Y-38266825D01*
X34721314Y-38266824D01*
X34721313Y-38266821D01*
X34704883Y-38100000D01*
X34721313Y-37933179D01*
X34721314Y-37933175D01*
X34769975Y-37772761D01*
X34769976Y-37772759D01*
X34769977Y-37772756D01*
X34848995Y-37624922D01*
X34955341Y-37495341D01*
X35084922Y-37388995D01*
X35232756Y-37309977D01*
X35232759Y-37309976D01*
X35232761Y-37309975D01*
X35393175Y-37261314D01*
X35393176Y-37261314D01*
X35393179Y-37261313D01*
X35518196Y-37249000D01*
X35601804Y-37249000D01*
X35726821Y-37261313D01*
X35726821Y-37261313D01*
G37*
G36*
X56731000Y-38951000D02*
X55029000Y-38951000D01*
X55029000Y-37249000D01*
X56731000Y-37249000D01*
X56731000Y-38951000D01*
X56731000Y-38951000D01*
G37*
G36*
X43346821Y-37261313D02*
X43346824Y-37261314D01*
X43346825Y-37261314D01*
X43507239Y-37309975D01*
X43507241Y-37309976D01*
X43507244Y-37309977D01*
X43655078Y-37388995D01*
X43784659Y-37495341D01*
X43891005Y-37624922D01*
X43970023Y-37772756D01*
X43970024Y-37772759D01*
X43970025Y-37772761D01*
X44018686Y-37933175D01*
X44018687Y-37933179D01*
X44035117Y-38100000D01*
X44018687Y-38266821D01*
X44018686Y-38266824D01*
X44018686Y-38266825D01*
X43993993Y-38348228D01*
X43970023Y-38427244D01*
X43891005Y-38575078D01*
X43784659Y-38704659D01*
X43655078Y-38811005D01*
X43507244Y-38890023D01*
X43507241Y-38890024D01*
X43507239Y-38890025D01*
X43346825Y-38938686D01*
X43346824Y-38938686D01*
X43346821Y-38938687D01*
X43221804Y-38951000D01*
X43138196Y-38951000D01*
X43013179Y-38938687D01*
X43013176Y-38938686D01*
X43013175Y-38938686D01*
X42852761Y-38890025D01*
X42852759Y-38890024D01*
X42852756Y-38890023D01*
X42704922Y-38811005D01*
X42575341Y-38704659D01*
X42468995Y-38575078D01*
X42389977Y-38427244D01*
X42366008Y-38348228D01*
X42341314Y-38266825D01*
X42341314Y-38266824D01*
X42341313Y-38266821D01*
X42324883Y-38100000D01*
X42341313Y-37933179D01*
X42341314Y-37933175D01*
X42389975Y-37772761D01*
X42389976Y-37772759D01*
X42389977Y-37772756D01*
X42468995Y-37624922D01*
X42575341Y-37495341D01*
X42704922Y-37388995D01*
X42852756Y-37309977D01*
X42852759Y-37309976D01*
X42852761Y-37309975D01*
X43013175Y-37261314D01*
X43013176Y-37261314D01*
X43013179Y-37261313D01*
X43138196Y-37249000D01*
X43221804Y-37249000D01*
X43346821Y-37261313D01*
X43346821Y-37261313D01*
G37*
G36*
X50966821Y-37261313D02*
X50966824Y-37261314D01*
X50966825Y-37261314D01*
X51127239Y-37309975D01*
X51127241Y-37309976D01*
X51127244Y-37309977D01*
X51275078Y-37388995D01*
X51404659Y-37495341D01*
X51511005Y-37624922D01*
X51590023Y-37772756D01*
X51590024Y-37772759D01*
X51590025Y-37772761D01*
X51638686Y-37933175D01*
X51638687Y-37933179D01*
X51655117Y-38100000D01*
X51638687Y-38266821D01*
X51638686Y-38266824D01*
X51638686Y-38266825D01*
X51613993Y-38348228D01*
X51590023Y-38427244D01*
X51511005Y-38575078D01*
X51404659Y-38704659D01*
X51275078Y-38811005D01*
X51127244Y-38890023D01*
X51127241Y-38890024D01*
X51127239Y-38890025D01*
X50966825Y-38938686D01*
X50966824Y-38938686D01*
X50966821Y-38938687D01*
X50841804Y-38951000D01*
X50758196Y-38951000D01*
X50633179Y-38938687D01*
X50633176Y-38938686D01*
X50633175Y-38938686D01*
X50472761Y-38890025D01*
X50472759Y-38890024D01*
X50472756Y-38890023D01*
X50324922Y-38811005D01*
X50195341Y-38704659D01*
X50088995Y-38575078D01*
X50009977Y-38427244D01*
X49986008Y-38348228D01*
X49961314Y-38266825D01*
X49961314Y-38266824D01*
X49961313Y-38266821D01*
X49944883Y-38100000D01*
X49961313Y-37933179D01*
X49961314Y-37933175D01*
X50009975Y-37772761D01*
X50009976Y-37772759D01*
X50009977Y-37772756D01*
X50088995Y-37624922D01*
X50195341Y-37495341D01*
X50324922Y-37388995D01*
X50472756Y-37309977D01*
X50472759Y-37309976D01*
X50472761Y-37309975D01*
X50633175Y-37261314D01*
X50633176Y-37261314D01*
X50633179Y-37261313D01*
X50758196Y-37249000D01*
X50841804Y-37249000D01*
X50966821Y-37261313D01*
X50966821Y-37261313D01*
G37*
G36*
X48426821Y-37261313D02*
X48426824Y-37261314D01*
X48426825Y-37261314D01*
X48587239Y-37309975D01*
X48587241Y-37309976D01*
X48587244Y-37309977D01*
X48735078Y-37388995D01*
X48864659Y-37495341D01*
X48971005Y-37624922D01*
X49050023Y-37772756D01*
X49050024Y-37772759D01*
X49050025Y-37772761D01*
X49098686Y-37933175D01*
X49098687Y-37933179D01*
X49115117Y-38100000D01*
X49098687Y-38266821D01*
X49098686Y-38266824D01*
X49098686Y-38266825D01*
X49073993Y-38348228D01*
X49050023Y-38427244D01*
X48971005Y-38575078D01*
X48864659Y-38704659D01*
X48735078Y-38811005D01*
X48587244Y-38890023D01*
X48587241Y-38890024D01*
X48587239Y-38890025D01*
X48426825Y-38938686D01*
X48426824Y-38938686D01*
X48426821Y-38938687D01*
X48301804Y-38951000D01*
X48218196Y-38951000D01*
X48093179Y-38938687D01*
X48093176Y-38938686D01*
X48093175Y-38938686D01*
X47932761Y-38890025D01*
X47932759Y-38890024D01*
X47932756Y-38890023D01*
X47784922Y-38811005D01*
X47655341Y-38704659D01*
X47548995Y-38575078D01*
X47469977Y-38427244D01*
X47446008Y-38348228D01*
X47421314Y-38266825D01*
X47421314Y-38266824D01*
X47421313Y-38266821D01*
X47404883Y-38100000D01*
X47421313Y-37933179D01*
X47421314Y-37933175D01*
X47469975Y-37772761D01*
X47469976Y-37772759D01*
X47469977Y-37772756D01*
X47548995Y-37624922D01*
X47655341Y-37495341D01*
X47784922Y-37388995D01*
X47932756Y-37309977D01*
X47932759Y-37309976D01*
X47932761Y-37309975D01*
X48093175Y-37261314D01*
X48093176Y-37261314D01*
X48093179Y-37261313D01*
X48218196Y-37249000D01*
X48301804Y-37249000D01*
X48426821Y-37261313D01*
X48426821Y-37261313D01*
G37*
G36*
X53506821Y-37261313D02*
X53506824Y-37261314D01*
X53506825Y-37261314D01*
X53667239Y-37309975D01*
X53667241Y-37309976D01*
X53667244Y-37309977D01*
X53815078Y-37388995D01*
X53944659Y-37495341D01*
X54051005Y-37624922D01*
X54130023Y-37772756D01*
X54130024Y-37772759D01*
X54130025Y-37772761D01*
X54178686Y-37933175D01*
X54178687Y-37933179D01*
X54195117Y-38100000D01*
X54178687Y-38266821D01*
X54178686Y-38266824D01*
X54178686Y-38266825D01*
X54153993Y-38348228D01*
X54130023Y-38427244D01*
X54051005Y-38575078D01*
X53944659Y-38704659D01*
X53815078Y-38811005D01*
X53667244Y-38890023D01*
X53667241Y-38890024D01*
X53667239Y-38890025D01*
X53506825Y-38938686D01*
X53506824Y-38938686D01*
X53506821Y-38938687D01*
X53381804Y-38951000D01*
X53298196Y-38951000D01*
X53173179Y-38938687D01*
X53173176Y-38938686D01*
X53173175Y-38938686D01*
X53012761Y-38890025D01*
X53012759Y-38890024D01*
X53012756Y-38890023D01*
X52864922Y-38811005D01*
X52735341Y-38704659D01*
X52628995Y-38575078D01*
X52549977Y-38427244D01*
X52526008Y-38348228D01*
X52501314Y-38266825D01*
X52501314Y-38266824D01*
X52501313Y-38266821D01*
X52484883Y-38100000D01*
X52501313Y-37933179D01*
X52501314Y-37933175D01*
X52549975Y-37772761D01*
X52549976Y-37772759D01*
X52549977Y-37772756D01*
X52628995Y-37624922D01*
X52735341Y-37495341D01*
X52864922Y-37388995D01*
X53012756Y-37309977D01*
X53012759Y-37309976D01*
X53012761Y-37309975D01*
X53173175Y-37261314D01*
X53173176Y-37261314D01*
X53173179Y-37261313D01*
X53298196Y-37249000D01*
X53381804Y-37249000D01*
X53506821Y-37261313D01*
X53506821Y-37261313D01*
G37*
G36*
X43346821Y-34721313D02*
X43346824Y-34721314D01*
X43346825Y-34721314D01*
X43507239Y-34769975D01*
X43507241Y-34769976D01*
X43507244Y-34769977D01*
X43655078Y-34848995D01*
X43784659Y-34955341D01*
X43891005Y-35084922D01*
X43970023Y-35232756D01*
X43970024Y-35232759D01*
X43970025Y-35232761D01*
X44018686Y-35393175D01*
X44018687Y-35393179D01*
X44035117Y-35560000D01*
X44018687Y-35726821D01*
X44018686Y-35726824D01*
X44018686Y-35726825D01*
X43993993Y-35808228D01*
X43970023Y-35887244D01*
X43891005Y-36035078D01*
X43784659Y-36164659D01*
X43655078Y-36271005D01*
X43507244Y-36350023D01*
X43507241Y-36350024D01*
X43507239Y-36350025D01*
X43346825Y-36398686D01*
X43346824Y-36398686D01*
X43346821Y-36398687D01*
X43221804Y-36411000D01*
X43138196Y-36411000D01*
X43013179Y-36398687D01*
X43013176Y-36398686D01*
X43013175Y-36398686D01*
X42852761Y-36350025D01*
X42852759Y-36350024D01*
X42852756Y-36350023D01*
X42704922Y-36271005D01*
X42575341Y-36164659D01*
X42468995Y-36035078D01*
X42389977Y-35887244D01*
X42366008Y-35808228D01*
X42341314Y-35726825D01*
X42341314Y-35726824D01*
X42341313Y-35726821D01*
X42324883Y-35560000D01*
X42341313Y-35393179D01*
X42341314Y-35393175D01*
X42389975Y-35232761D01*
X42389976Y-35232759D01*
X42389977Y-35232756D01*
X42468995Y-35084922D01*
X42575341Y-34955341D01*
X42704922Y-34848995D01*
X42852756Y-34769977D01*
X42852759Y-34769976D01*
X42852761Y-34769975D01*
X43013175Y-34721314D01*
X43013176Y-34721314D01*
X43013179Y-34721313D01*
X43138196Y-34709000D01*
X43221804Y-34709000D01*
X43346821Y-34721313D01*
X43346821Y-34721313D01*
G37*
G36*
X35726821Y-34721313D02*
X35726824Y-34721314D01*
X35726825Y-34721314D01*
X35887239Y-34769975D01*
X35887241Y-34769976D01*
X35887244Y-34769977D01*
X36035078Y-34848995D01*
X36164659Y-34955341D01*
X36271005Y-35084922D01*
X36350023Y-35232756D01*
X36350024Y-35232759D01*
X36350025Y-35232761D01*
X36398686Y-35393175D01*
X36398687Y-35393179D01*
X36415117Y-35560000D01*
X36398687Y-35726821D01*
X36398686Y-35726824D01*
X36398686Y-35726825D01*
X36373993Y-35808228D01*
X36350023Y-35887244D01*
X36271005Y-36035078D01*
X36164659Y-36164659D01*
X36035078Y-36271005D01*
X35887244Y-36350023D01*
X35887241Y-36350024D01*
X35887239Y-36350025D01*
X35726825Y-36398686D01*
X35726824Y-36398686D01*
X35726821Y-36398687D01*
X35601804Y-36411000D01*
X35518196Y-36411000D01*
X35393179Y-36398687D01*
X35393176Y-36398686D01*
X35393175Y-36398686D01*
X35232761Y-36350025D01*
X35232759Y-36350024D01*
X35232756Y-36350023D01*
X35084922Y-36271005D01*
X34955341Y-36164659D01*
X34848995Y-36035078D01*
X34769977Y-35887244D01*
X34746008Y-35808228D01*
X34721314Y-35726825D01*
X34721314Y-35726824D01*
X34721313Y-35726821D01*
X34704883Y-35560000D01*
X34721313Y-35393179D01*
X34721314Y-35393175D01*
X34769975Y-35232761D01*
X34769976Y-35232759D01*
X34769977Y-35232756D01*
X34848995Y-35084922D01*
X34955341Y-34955341D01*
X35084922Y-34848995D01*
X35232756Y-34769977D01*
X35232759Y-34769976D01*
X35232761Y-34769975D01*
X35393175Y-34721314D01*
X35393176Y-34721314D01*
X35393179Y-34721313D01*
X35518196Y-34709000D01*
X35601804Y-34709000D01*
X35726821Y-34721313D01*
X35726821Y-34721313D01*
G37*
G36*
X28148228Y-34741703D02*
X28303100Y-34805853D01*
X28442481Y-34898985D01*
X28561015Y-35017519D01*
X28654147Y-35156900D01*
X28718297Y-35311772D01*
X28751000Y-35476184D01*
X28751000Y-35643816D01*
X28718297Y-35808228D01*
X28654147Y-35963100D01*
X28561015Y-36102481D01*
X28442481Y-36221015D01*
X28303100Y-36314147D01*
X28148228Y-36378297D01*
X27983816Y-36411000D01*
X27816184Y-36411000D01*
X27651772Y-36378297D01*
X27496900Y-36314147D01*
X27357519Y-36221015D01*
X27238985Y-36102481D01*
X27145853Y-35963100D01*
X27081703Y-35808228D01*
X27049000Y-35643816D01*
X27049000Y-35476184D01*
X27081703Y-35311772D01*
X27145853Y-35156900D01*
X27238985Y-35017519D01*
X27357519Y-34898985D01*
X27496900Y-34805853D01*
X27651772Y-34741703D01*
X27816184Y-34709000D01*
X27983816Y-34709000D01*
X28148228Y-34741703D01*
X28148228Y-34741703D01*
G37*
G36*
X7786821Y-34721313D02*
X7786824Y-34721314D01*
X7786825Y-34721314D01*
X7947239Y-34769975D01*
X7947241Y-34769976D01*
X7947244Y-34769977D01*
X8095078Y-34848995D01*
X8224659Y-34955341D01*
X8331005Y-35084922D01*
X8410023Y-35232756D01*
X8410024Y-35232759D01*
X8410025Y-35232761D01*
X8458686Y-35393175D01*
X8458687Y-35393179D01*
X8475117Y-35560000D01*
X8458687Y-35726821D01*
X8458686Y-35726824D01*
X8458686Y-35726825D01*
X8433993Y-35808228D01*
X8410023Y-35887244D01*
X8331005Y-36035078D01*
X8224659Y-36164659D01*
X8095078Y-36271005D01*
X7947244Y-36350023D01*
X7947241Y-36350024D01*
X7947239Y-36350025D01*
X7786825Y-36398686D01*
X7786824Y-36398686D01*
X7786821Y-36398687D01*
X7661804Y-36411000D01*
X7578196Y-36411000D01*
X7453179Y-36398687D01*
X7453176Y-36398686D01*
X7453175Y-36398686D01*
X7292761Y-36350025D01*
X7292759Y-36350024D01*
X7292756Y-36350023D01*
X7144922Y-36271005D01*
X7015341Y-36164659D01*
X6908995Y-36035078D01*
X6829977Y-35887244D01*
X6806008Y-35808228D01*
X6781314Y-35726825D01*
X6781314Y-35726824D01*
X6781313Y-35726821D01*
X6764883Y-35560000D01*
X6781313Y-35393179D01*
X6781314Y-35393175D01*
X6829975Y-35232761D01*
X6829976Y-35232759D01*
X6829977Y-35232756D01*
X6908995Y-35084922D01*
X7015341Y-34955341D01*
X7144922Y-34848995D01*
X7292756Y-34769977D01*
X7292759Y-34769976D01*
X7292761Y-34769975D01*
X7453175Y-34721314D01*
X7453176Y-34721314D01*
X7453179Y-34721313D01*
X7578196Y-34709000D01*
X7661804Y-34709000D01*
X7786821Y-34721313D01*
X7786821Y-34721313D01*
G37*
G36*
X10326821Y-34721313D02*
X10326824Y-34721314D01*
X10326825Y-34721314D01*
X10487239Y-34769975D01*
X10487241Y-34769976D01*
X10487244Y-34769977D01*
X10635078Y-34848995D01*
X10764659Y-34955341D01*
X10871005Y-35084922D01*
X10950023Y-35232756D01*
X10950024Y-35232759D01*
X10950025Y-35232761D01*
X10998686Y-35393175D01*
X10998687Y-35393179D01*
X11015117Y-35560000D01*
X10998687Y-35726821D01*
X10998686Y-35726824D01*
X10998686Y-35726825D01*
X10973993Y-35808228D01*
X10950023Y-35887244D01*
X10871005Y-36035078D01*
X10764659Y-36164659D01*
X10635078Y-36271005D01*
X10487244Y-36350023D01*
X10487241Y-36350024D01*
X10487239Y-36350025D01*
X10326825Y-36398686D01*
X10326824Y-36398686D01*
X10326821Y-36398687D01*
X10201804Y-36411000D01*
X10118196Y-36411000D01*
X9993179Y-36398687D01*
X9993176Y-36398686D01*
X9993175Y-36398686D01*
X9832761Y-36350025D01*
X9832759Y-36350024D01*
X9832756Y-36350023D01*
X9684922Y-36271005D01*
X9555341Y-36164659D01*
X9448995Y-36035078D01*
X9369977Y-35887244D01*
X9346008Y-35808228D01*
X9321314Y-35726825D01*
X9321314Y-35726824D01*
X9321313Y-35726821D01*
X9304883Y-35560000D01*
X9321313Y-35393179D01*
X9321314Y-35393175D01*
X9369975Y-35232761D01*
X9369976Y-35232759D01*
X9369977Y-35232756D01*
X9448995Y-35084922D01*
X9555341Y-34955341D01*
X9684922Y-34848995D01*
X9832756Y-34769977D01*
X9832759Y-34769976D01*
X9832761Y-34769975D01*
X9993175Y-34721314D01*
X9993176Y-34721314D01*
X9993179Y-34721313D01*
X10118196Y-34709000D01*
X10201804Y-34709000D01*
X10326821Y-34721313D01*
X10326821Y-34721313D01*
G37*
G36*
X12866821Y-34721313D02*
X12866824Y-34721314D01*
X12866825Y-34721314D01*
X13027239Y-34769975D01*
X13027241Y-34769976D01*
X13027244Y-34769977D01*
X13175078Y-34848995D01*
X13304659Y-34955341D01*
X13411005Y-35084922D01*
X13490023Y-35232756D01*
X13490024Y-35232759D01*
X13490025Y-35232761D01*
X13538686Y-35393175D01*
X13538687Y-35393179D01*
X13555117Y-35560000D01*
X13538687Y-35726821D01*
X13538686Y-35726824D01*
X13538686Y-35726825D01*
X13513993Y-35808228D01*
X13490023Y-35887244D01*
X13411005Y-36035078D01*
X13304659Y-36164659D01*
X13175078Y-36271005D01*
X13027244Y-36350023D01*
X13027241Y-36350024D01*
X13027239Y-36350025D01*
X12866825Y-36398686D01*
X12866824Y-36398686D01*
X12866821Y-36398687D01*
X12741804Y-36411000D01*
X12658196Y-36411000D01*
X12533179Y-36398687D01*
X12533176Y-36398686D01*
X12533175Y-36398686D01*
X12372761Y-36350025D01*
X12372759Y-36350024D01*
X12372756Y-36350023D01*
X12224922Y-36271005D01*
X12095341Y-36164659D01*
X11988995Y-36035078D01*
X11909977Y-35887244D01*
X11886008Y-35808228D01*
X11861314Y-35726825D01*
X11861314Y-35726824D01*
X11861313Y-35726821D01*
X11844883Y-35560000D01*
X11861313Y-35393179D01*
X11861314Y-35393175D01*
X11909975Y-35232761D01*
X11909976Y-35232759D01*
X11909977Y-35232756D01*
X11988995Y-35084922D01*
X12095341Y-34955341D01*
X12224922Y-34848995D01*
X12372756Y-34769977D01*
X12372759Y-34769976D01*
X12372761Y-34769975D01*
X12533175Y-34721314D01*
X12533176Y-34721314D01*
X12533179Y-34721313D01*
X12658196Y-34709000D01*
X12741804Y-34709000D01*
X12866821Y-34721313D01*
X12866821Y-34721313D01*
G37*
G36*
X15406821Y-34721313D02*
X15406824Y-34721314D01*
X15406825Y-34721314D01*
X15567239Y-34769975D01*
X15567241Y-34769976D01*
X15567244Y-34769977D01*
X15715078Y-34848995D01*
X15844659Y-34955341D01*
X15951005Y-35084922D01*
X16030023Y-35232756D01*
X16030024Y-35232759D01*
X16030025Y-35232761D01*
X16078686Y-35393175D01*
X16078687Y-35393179D01*
X16095117Y-35560000D01*
X16078687Y-35726821D01*
X16078686Y-35726824D01*
X16078686Y-35726825D01*
X16053993Y-35808228D01*
X16030023Y-35887244D01*
X15951005Y-36035078D01*
X15844659Y-36164659D01*
X15715078Y-36271005D01*
X15567244Y-36350023D01*
X15567241Y-36350024D01*
X15567239Y-36350025D01*
X15406825Y-36398686D01*
X15406824Y-36398686D01*
X15406821Y-36398687D01*
X15281804Y-36411000D01*
X15198196Y-36411000D01*
X15073179Y-36398687D01*
X15073176Y-36398686D01*
X15073175Y-36398686D01*
X14912761Y-36350025D01*
X14912759Y-36350024D01*
X14912756Y-36350023D01*
X14764922Y-36271005D01*
X14635341Y-36164659D01*
X14528995Y-36035078D01*
X14449977Y-35887244D01*
X14426008Y-35808228D01*
X14401314Y-35726825D01*
X14401314Y-35726824D01*
X14401313Y-35726821D01*
X14384883Y-35560000D01*
X14401313Y-35393179D01*
X14401314Y-35393175D01*
X14449975Y-35232761D01*
X14449976Y-35232759D01*
X14449977Y-35232756D01*
X14528995Y-35084922D01*
X14635341Y-34955341D01*
X14764922Y-34848995D01*
X14912756Y-34769977D01*
X14912759Y-34769976D01*
X14912761Y-34769975D01*
X15073175Y-34721314D01*
X15073176Y-34721314D01*
X15073179Y-34721313D01*
X15198196Y-34709000D01*
X15281804Y-34709000D01*
X15406821Y-34721313D01*
X15406821Y-34721313D01*
G37*
G36*
X25648228Y-34741703D02*
X25803100Y-34805853D01*
X25942481Y-34898985D01*
X26061015Y-35017519D01*
X26154147Y-35156900D01*
X26218297Y-35311772D01*
X26251000Y-35476184D01*
X26251000Y-35643816D01*
X26218297Y-35808228D01*
X26154147Y-35963100D01*
X26061015Y-36102481D01*
X25942481Y-36221015D01*
X25803100Y-36314147D01*
X25648228Y-36378297D01*
X25483816Y-36411000D01*
X25316184Y-36411000D01*
X25151772Y-36378297D01*
X24996900Y-36314147D01*
X24857519Y-36221015D01*
X24738985Y-36102481D01*
X24645853Y-35963100D01*
X24581703Y-35808228D01*
X24549000Y-35643816D01*
X24549000Y-35476184D01*
X24581703Y-35311772D01*
X24645853Y-35156900D01*
X24738985Y-35017519D01*
X24857519Y-34898985D01*
X24996900Y-34805853D01*
X25151772Y-34741703D01*
X25316184Y-34709000D01*
X25483816Y-34709000D01*
X25648228Y-34741703D01*
X25648228Y-34741703D01*
G37*
G36*
X30713643Y-34609781D02*
X30859415Y-34670162D01*
X30990611Y-34757824D01*
X31102176Y-34869389D01*
X31189838Y-35000585D01*
X31250219Y-35146357D01*
X31281000Y-35301107D01*
X31281000Y-35458893D01*
X31250219Y-35613643D01*
X31189838Y-35759415D01*
X31102176Y-35890611D01*
X30990611Y-36002176D01*
X30859415Y-36089838D01*
X30713643Y-36150219D01*
X30558893Y-36181000D01*
X30401107Y-36181000D01*
X30246357Y-36150219D01*
X30100585Y-36089838D01*
X29969389Y-36002176D01*
X29857824Y-35890611D01*
X29770162Y-35759415D01*
X29709781Y-35613643D01*
X29679000Y-35458893D01*
X29679000Y-35301107D01*
X29709781Y-35146357D01*
X29770162Y-35000585D01*
X29857824Y-34869389D01*
X29969389Y-34757824D01*
X30100585Y-34670162D01*
X30246357Y-34609781D01*
X30401107Y-34579000D01*
X30558893Y-34579000D01*
X30713643Y-34609781D01*
X30713643Y-34609781D01*
G37*
G36*
X35726821Y-32181313D02*
X35726824Y-32181314D01*
X35726825Y-32181314D01*
X35887239Y-32229975D01*
X35887241Y-32229976D01*
X35887244Y-32229977D01*
X36035078Y-32308995D01*
X36164659Y-32415341D01*
X36271005Y-32544922D01*
X36350023Y-32692756D01*
X36398687Y-32853179D01*
X36415117Y-33020000D01*
X36398687Y-33186821D01*
X36350023Y-33347244D01*
X36271005Y-33495078D01*
X36164659Y-33624659D01*
X36035078Y-33731005D01*
X35887244Y-33810023D01*
X35887241Y-33810024D01*
X35887239Y-33810025D01*
X35726825Y-33858686D01*
X35726824Y-33858686D01*
X35726821Y-33858687D01*
X35601804Y-33871000D01*
X35518196Y-33871000D01*
X35393179Y-33858687D01*
X35393176Y-33858686D01*
X35393175Y-33858686D01*
X35232761Y-33810025D01*
X35232759Y-33810024D01*
X35232756Y-33810023D01*
X35084922Y-33731005D01*
X34955341Y-33624659D01*
X34848995Y-33495078D01*
X34769977Y-33347244D01*
X34721313Y-33186821D01*
X34704883Y-33020000D01*
X34721313Y-32853179D01*
X34769977Y-32692756D01*
X34848995Y-32544922D01*
X34955341Y-32415341D01*
X35084922Y-32308995D01*
X35232756Y-32229977D01*
X35232759Y-32229976D01*
X35232761Y-32229975D01*
X35393175Y-32181314D01*
X35393176Y-32181314D01*
X35393179Y-32181313D01*
X35518196Y-32169000D01*
X35601804Y-32169000D01*
X35726821Y-32181313D01*
X35726821Y-32181313D01*
G37*
G36*
X43346821Y-32181313D02*
X43346824Y-32181314D01*
X43346825Y-32181314D01*
X43507239Y-32229975D01*
X43507241Y-32229976D01*
X43507244Y-32229977D01*
X43655078Y-32308995D01*
X43784659Y-32415341D01*
X43891005Y-32544922D01*
X43970023Y-32692756D01*
X44018687Y-32853179D01*
X44035117Y-33020000D01*
X44018687Y-33186821D01*
X43970023Y-33347244D01*
X43891005Y-33495078D01*
X43784659Y-33624659D01*
X43655078Y-33731005D01*
X43507244Y-33810023D01*
X43507241Y-33810024D01*
X43507239Y-33810025D01*
X43346825Y-33858686D01*
X43346824Y-33858686D01*
X43346821Y-33858687D01*
X43221804Y-33871000D01*
X43138196Y-33871000D01*
X43013179Y-33858687D01*
X43013176Y-33858686D01*
X43013175Y-33858686D01*
X42852761Y-33810025D01*
X42852759Y-33810024D01*
X42852756Y-33810023D01*
X42704922Y-33731005D01*
X42575341Y-33624659D01*
X42468995Y-33495078D01*
X42389977Y-33347244D01*
X42341313Y-33186821D01*
X42324883Y-33020000D01*
X42341313Y-32853179D01*
X42389977Y-32692756D01*
X42468995Y-32544922D01*
X42575341Y-32415341D01*
X42704922Y-32308995D01*
X42852756Y-32229977D01*
X42852759Y-32229976D01*
X42852761Y-32229975D01*
X43013175Y-32181314D01*
X43013176Y-32181314D01*
X43013179Y-32181313D01*
X43138196Y-32169000D01*
X43221804Y-32169000D01*
X43346821Y-32181313D01*
X43346821Y-32181313D01*
G37*
G36*
X25648228Y-29661703D02*
X25803100Y-29725853D01*
X25942481Y-29818985D01*
X26061015Y-29937519D01*
X26154147Y-30076900D01*
X26218297Y-30231772D01*
X26251000Y-30396184D01*
X26251000Y-30563816D01*
X26218297Y-30728228D01*
X26154147Y-30883100D01*
X26061015Y-31022481D01*
X25942481Y-31141015D01*
X25803100Y-31234147D01*
X25648228Y-31298297D01*
X25483816Y-31331000D01*
X25316184Y-31331000D01*
X25151772Y-31298297D01*
X24996900Y-31234147D01*
X24857519Y-31141015D01*
X24738985Y-31022481D01*
X24645853Y-30883100D01*
X24581703Y-30728228D01*
X24549000Y-30563816D01*
X24549000Y-30396184D01*
X24581703Y-30231772D01*
X24645853Y-30076900D01*
X24738985Y-29937519D01*
X24857519Y-29818985D01*
X24996900Y-29725853D01*
X25151772Y-29661703D01*
X25316184Y-29629000D01*
X25483816Y-29629000D01*
X25648228Y-29661703D01*
X25648228Y-29661703D01*
G37*
G36*
X28148228Y-29661703D02*
X28303100Y-29725853D01*
X28442481Y-29818985D01*
X28561015Y-29937519D01*
X28654147Y-30076900D01*
X28718297Y-30231772D01*
X28751000Y-30396184D01*
X28751000Y-30563816D01*
X28718297Y-30728228D01*
X28654147Y-30883100D01*
X28561015Y-31022481D01*
X28442481Y-31141015D01*
X28303100Y-31234147D01*
X28148228Y-31298297D01*
X27983816Y-31331000D01*
X27816184Y-31331000D01*
X27651772Y-31298297D01*
X27496900Y-31234147D01*
X27357519Y-31141015D01*
X27238985Y-31022481D01*
X27145853Y-30883100D01*
X27081703Y-30728228D01*
X27049000Y-30563816D01*
X27049000Y-30396184D01*
X27081703Y-30231772D01*
X27145853Y-30076900D01*
X27238985Y-29937519D01*
X27357519Y-29818985D01*
X27496900Y-29725853D01*
X27651772Y-29661703D01*
X27816184Y-29629000D01*
X27983816Y-29629000D01*
X28148228Y-29661703D01*
X28148228Y-29661703D01*
G37*
G36*
X35726821Y-29641313D02*
X35726824Y-29641314D01*
X35726825Y-29641314D01*
X35887239Y-29689975D01*
X35887241Y-29689976D01*
X35887244Y-29689977D01*
X36035078Y-29768995D01*
X36164659Y-29875341D01*
X36271005Y-30004922D01*
X36350023Y-30152756D01*
X36350024Y-30152759D01*
X36350025Y-30152761D01*
X36378417Y-30246357D01*
X36398687Y-30313179D01*
X36415117Y-30480000D01*
X36398687Y-30646821D01*
X36398686Y-30646824D01*
X36398686Y-30646825D01*
X36373993Y-30728228D01*
X36350023Y-30807244D01*
X36271005Y-30955078D01*
X36164659Y-31084659D01*
X36035078Y-31191005D01*
X35887244Y-31270023D01*
X35887241Y-31270024D01*
X35887239Y-31270025D01*
X35726825Y-31318686D01*
X35726824Y-31318686D01*
X35726821Y-31318687D01*
X35601804Y-31331000D01*
X35518196Y-31331000D01*
X35393179Y-31318687D01*
X35393176Y-31318686D01*
X35393175Y-31318686D01*
X35232761Y-31270025D01*
X35232759Y-31270024D01*
X35232756Y-31270023D01*
X35084922Y-31191005D01*
X34955341Y-31084659D01*
X34848995Y-30955078D01*
X34769977Y-30807244D01*
X34746008Y-30728228D01*
X34721314Y-30646825D01*
X34721314Y-30646824D01*
X34721313Y-30646821D01*
X34704883Y-30480000D01*
X34721313Y-30313179D01*
X34741583Y-30246357D01*
X34769975Y-30152761D01*
X34769976Y-30152759D01*
X34769977Y-30152756D01*
X34848995Y-30004922D01*
X34955341Y-29875341D01*
X35084922Y-29768995D01*
X35232756Y-29689977D01*
X35232759Y-29689976D01*
X35232761Y-29689975D01*
X35393175Y-29641314D01*
X35393176Y-29641314D01*
X35393179Y-29641313D01*
X35518196Y-29629000D01*
X35601804Y-29629000D01*
X35726821Y-29641313D01*
X35726821Y-29641313D01*
G37*
G36*
X43346821Y-29641313D02*
X43346824Y-29641314D01*
X43346825Y-29641314D01*
X43507239Y-29689975D01*
X43507241Y-29689976D01*
X43507244Y-29689977D01*
X43655078Y-29768995D01*
X43784659Y-29875341D01*
X43891005Y-30004922D01*
X43970023Y-30152756D01*
X43970024Y-30152759D01*
X43970025Y-30152761D01*
X43998417Y-30246357D01*
X44018687Y-30313179D01*
X44035117Y-30480000D01*
X44018687Y-30646821D01*
X44018686Y-30646824D01*
X44018686Y-30646825D01*
X43993993Y-30728228D01*
X43970023Y-30807244D01*
X43891005Y-30955078D01*
X43784659Y-31084659D01*
X43655078Y-31191005D01*
X43507244Y-31270023D01*
X43507241Y-31270024D01*
X43507239Y-31270025D01*
X43346825Y-31318686D01*
X43346824Y-31318686D01*
X43346821Y-31318687D01*
X43221804Y-31331000D01*
X43138196Y-31331000D01*
X43013179Y-31318687D01*
X43013176Y-31318686D01*
X43013175Y-31318686D01*
X42852761Y-31270025D01*
X42852759Y-31270024D01*
X42852756Y-31270023D01*
X42704922Y-31191005D01*
X42575341Y-31084659D01*
X42468995Y-30955078D01*
X42389977Y-30807244D01*
X42366008Y-30728228D01*
X42341314Y-30646825D01*
X42341314Y-30646824D01*
X42341313Y-30646821D01*
X42324883Y-30480000D01*
X42341313Y-30313179D01*
X42361583Y-30246357D01*
X42389975Y-30152761D01*
X42389976Y-30152759D01*
X42389977Y-30152756D01*
X42468995Y-30004922D01*
X42575341Y-29875341D01*
X42704922Y-29768995D01*
X42852756Y-29689977D01*
X42852759Y-29689976D01*
X42852761Y-29689975D01*
X43013175Y-29641314D01*
X43013176Y-29641314D01*
X43013179Y-29641313D01*
X43138196Y-29629000D01*
X43221804Y-29629000D01*
X43346821Y-29641313D01*
X43346821Y-29641313D01*
G37*
G36*
X30713643Y-29709781D02*
X30859415Y-29770162D01*
X30990611Y-29857824D01*
X31102176Y-29969389D01*
X31189838Y-30100585D01*
X31250219Y-30246357D01*
X31281000Y-30401107D01*
X31281000Y-30558893D01*
X31250219Y-30713643D01*
X31189838Y-30859415D01*
X31102176Y-30990611D01*
X30990611Y-31102176D01*
X30859415Y-31189838D01*
X30713643Y-31250219D01*
X30558893Y-31281000D01*
X30401107Y-31281000D01*
X30246357Y-31250219D01*
X30100585Y-31189838D01*
X29969389Y-31102176D01*
X29857824Y-30990611D01*
X29770162Y-30859415D01*
X29709781Y-30713643D01*
X29679000Y-30558893D01*
X29679000Y-30401107D01*
X29709781Y-30246357D01*
X29770162Y-30100585D01*
X29857824Y-29969389D01*
X29969389Y-29857824D01*
X30100585Y-29770162D01*
X30246357Y-29709781D01*
X30401107Y-29679000D01*
X30558893Y-29679000D01*
X30713643Y-29709781D01*
X30713643Y-29709781D01*
G37*
G36*
X58530443Y-27045519D02*
X58596627Y-27052037D01*
X58709853Y-27086384D01*
X58766467Y-27103557D01*
X58853311Y-27149977D01*
X58922991Y-27187222D01*
X58958729Y-27216552D01*
X59060186Y-27299814D01*
X59143448Y-27401271D01*
X59172778Y-27437009D01*
X59172779Y-27437011D01*
X59256443Y-27593533D01*
X59273616Y-27650147D01*
X59307963Y-27763373D01*
X59325359Y-27940000D01*
X59307963Y-28116627D01*
X59273616Y-28229853D01*
X59256443Y-28286467D01*
X59187698Y-28415078D01*
X59172778Y-28442991D01*
X59143448Y-28478729D01*
X59060186Y-28580186D01*
X58958729Y-28663448D01*
X58922991Y-28692778D01*
X58922989Y-28692779D01*
X58766467Y-28776443D01*
X58759069Y-28778687D01*
X58596627Y-28827963D01*
X58530442Y-28834482D01*
X58464260Y-28841000D01*
X58375740Y-28841000D01*
X58309558Y-28834482D01*
X58243373Y-28827963D01*
X58080931Y-28778687D01*
X58073533Y-28776443D01*
X57917011Y-28692779D01*
X57917009Y-28692778D01*
X57881271Y-28663448D01*
X57779814Y-28580186D01*
X57696552Y-28478729D01*
X57667222Y-28442991D01*
X57652302Y-28415078D01*
X57583557Y-28286467D01*
X57566384Y-28229853D01*
X57532037Y-28116627D01*
X57514641Y-27940000D01*
X57532037Y-27763373D01*
X57566384Y-27650147D01*
X57583557Y-27593533D01*
X57667221Y-27437011D01*
X57667222Y-27437009D01*
X57696552Y-27401271D01*
X57779814Y-27299814D01*
X57881271Y-27216552D01*
X57917009Y-27187222D01*
X57986689Y-27149977D01*
X58073533Y-27103557D01*
X58130147Y-27086384D01*
X58243373Y-27052037D01*
X58309557Y-27045519D01*
X58375740Y-27039000D01*
X58464260Y-27039000D01*
X58530443Y-27045519D01*
X58530443Y-27045519D01*
G37*
G36*
X55990443Y-27045519D02*
X56056627Y-27052037D01*
X56169853Y-27086384D01*
X56226467Y-27103557D01*
X56313311Y-27149977D01*
X56382991Y-27187222D01*
X56418729Y-27216552D01*
X56520186Y-27299814D01*
X56603448Y-27401271D01*
X56632778Y-27437009D01*
X56632779Y-27437011D01*
X56716443Y-27593533D01*
X56733616Y-27650147D01*
X56767963Y-27763373D01*
X56785359Y-27940000D01*
X56767963Y-28116627D01*
X56733616Y-28229853D01*
X56716443Y-28286467D01*
X56647698Y-28415078D01*
X56632778Y-28442991D01*
X56603448Y-28478729D01*
X56520186Y-28580186D01*
X56418729Y-28663448D01*
X56382991Y-28692778D01*
X56382989Y-28692779D01*
X56226467Y-28776443D01*
X56219069Y-28778687D01*
X56056627Y-28827963D01*
X55990442Y-28834482D01*
X55924260Y-28841000D01*
X55835740Y-28841000D01*
X55769558Y-28834482D01*
X55703373Y-28827963D01*
X55540931Y-28778687D01*
X55533533Y-28776443D01*
X55377011Y-28692779D01*
X55377009Y-28692778D01*
X55341271Y-28663448D01*
X55239814Y-28580186D01*
X55156552Y-28478729D01*
X55127222Y-28442991D01*
X55112302Y-28415078D01*
X55043557Y-28286467D01*
X55026384Y-28229853D01*
X54992037Y-28116627D01*
X54974641Y-27940000D01*
X54992037Y-27763373D01*
X55026384Y-27650147D01*
X55043557Y-27593533D01*
X55127221Y-27437011D01*
X55127222Y-27437009D01*
X55156552Y-27401271D01*
X55239814Y-27299814D01*
X55341271Y-27216552D01*
X55377009Y-27187222D01*
X55446689Y-27149977D01*
X55533533Y-27103557D01*
X55590147Y-27086384D01*
X55703373Y-27052037D01*
X55769557Y-27045519D01*
X55835740Y-27039000D01*
X55924260Y-27039000D01*
X55990443Y-27045519D01*
X55990443Y-27045519D01*
G37*
G36*
X43346821Y-27101313D02*
X43346824Y-27101314D01*
X43346825Y-27101314D01*
X43507239Y-27149975D01*
X43507241Y-27149976D01*
X43507244Y-27149977D01*
X43655078Y-27228995D01*
X43784659Y-27335341D01*
X43891005Y-27464922D01*
X43970023Y-27612756D01*
X43970024Y-27612759D01*
X43970025Y-27612761D01*
X44015713Y-27763375D01*
X44018687Y-27773179D01*
X44035117Y-27940000D01*
X44018687Y-28106821D01*
X44018686Y-28106824D01*
X44018686Y-28106825D01*
X44015713Y-28116627D01*
X43970023Y-28267244D01*
X43891005Y-28415078D01*
X43784659Y-28544659D01*
X43655078Y-28651005D01*
X43507244Y-28730023D01*
X43507241Y-28730024D01*
X43507239Y-28730025D01*
X43346825Y-28778686D01*
X43346824Y-28778686D01*
X43346821Y-28778687D01*
X43221804Y-28791000D01*
X43138196Y-28791000D01*
X43013179Y-28778687D01*
X43013176Y-28778686D01*
X43013175Y-28778686D01*
X42852761Y-28730025D01*
X42852759Y-28730024D01*
X42852756Y-28730023D01*
X42704922Y-28651005D01*
X42575341Y-28544659D01*
X42468995Y-28415078D01*
X42389977Y-28267244D01*
X42344288Y-28116627D01*
X42341314Y-28106825D01*
X42341314Y-28106824D01*
X42341313Y-28106821D01*
X42324883Y-27940000D01*
X42341313Y-27773179D01*
X42344287Y-27763375D01*
X42389975Y-27612761D01*
X42389976Y-27612759D01*
X42389977Y-27612756D01*
X42468995Y-27464922D01*
X42575341Y-27335341D01*
X42704922Y-27228995D01*
X42852756Y-27149977D01*
X42852759Y-27149976D01*
X42852761Y-27149975D01*
X43013175Y-27101314D01*
X43013176Y-27101314D01*
X43013179Y-27101313D01*
X43138196Y-27089000D01*
X43221804Y-27089000D01*
X43346821Y-27101313D01*
X43346821Y-27101313D01*
G37*
G36*
X7786821Y-27101313D02*
X7786824Y-27101314D01*
X7786825Y-27101314D01*
X7947239Y-27149975D01*
X7947241Y-27149976D01*
X7947244Y-27149977D01*
X8095078Y-27228995D01*
X8224659Y-27335341D01*
X8331005Y-27464922D01*
X8410023Y-27612756D01*
X8410024Y-27612759D01*
X8410025Y-27612761D01*
X8455713Y-27763375D01*
X8458687Y-27773179D01*
X8475117Y-27940000D01*
X8458687Y-28106821D01*
X8458686Y-28106824D01*
X8458686Y-28106825D01*
X8455713Y-28116627D01*
X8410023Y-28267244D01*
X8331005Y-28415078D01*
X8224659Y-28544659D01*
X8095078Y-28651005D01*
X7947244Y-28730023D01*
X7947241Y-28730024D01*
X7947239Y-28730025D01*
X7786825Y-28778686D01*
X7786824Y-28778686D01*
X7786821Y-28778687D01*
X7661804Y-28791000D01*
X7578196Y-28791000D01*
X7453179Y-28778687D01*
X7453176Y-28778686D01*
X7453175Y-28778686D01*
X7292761Y-28730025D01*
X7292759Y-28730024D01*
X7292756Y-28730023D01*
X7144922Y-28651005D01*
X7015341Y-28544659D01*
X6908995Y-28415078D01*
X6829977Y-28267244D01*
X6784288Y-28116627D01*
X6781314Y-28106825D01*
X6781314Y-28106824D01*
X6781313Y-28106821D01*
X6764883Y-27940000D01*
X6781313Y-27773179D01*
X6784287Y-27763375D01*
X6829975Y-27612761D01*
X6829976Y-27612759D01*
X6829977Y-27612756D01*
X6908995Y-27464922D01*
X7015341Y-27335341D01*
X7144922Y-27228995D01*
X7292756Y-27149977D01*
X7292759Y-27149976D01*
X7292761Y-27149975D01*
X7453175Y-27101314D01*
X7453176Y-27101314D01*
X7453179Y-27101313D01*
X7578196Y-27089000D01*
X7661804Y-27089000D01*
X7786821Y-27101313D01*
X7786821Y-27101313D01*
G37*
G36*
X10326821Y-27101313D02*
X10326824Y-27101314D01*
X10326825Y-27101314D01*
X10487239Y-27149975D01*
X10487241Y-27149976D01*
X10487244Y-27149977D01*
X10635078Y-27228995D01*
X10764659Y-27335341D01*
X10871005Y-27464922D01*
X10950023Y-27612756D01*
X10950024Y-27612759D01*
X10950025Y-27612761D01*
X10995713Y-27763375D01*
X10998687Y-27773179D01*
X11015117Y-27940000D01*
X10998687Y-28106821D01*
X10998686Y-28106824D01*
X10998686Y-28106825D01*
X10995713Y-28116627D01*
X10950023Y-28267244D01*
X10871005Y-28415078D01*
X10764659Y-28544659D01*
X10635078Y-28651005D01*
X10487244Y-28730023D01*
X10487241Y-28730024D01*
X10487239Y-28730025D01*
X10326825Y-28778686D01*
X10326824Y-28778686D01*
X10326821Y-28778687D01*
X10201804Y-28791000D01*
X10118196Y-28791000D01*
X9993179Y-28778687D01*
X9993176Y-28778686D01*
X9993175Y-28778686D01*
X9832761Y-28730025D01*
X9832759Y-28730024D01*
X9832756Y-28730023D01*
X9684922Y-28651005D01*
X9555341Y-28544659D01*
X9448995Y-28415078D01*
X9369977Y-28267244D01*
X9324288Y-28116627D01*
X9321314Y-28106825D01*
X9321314Y-28106824D01*
X9321313Y-28106821D01*
X9304883Y-27940000D01*
X9321313Y-27773179D01*
X9324287Y-27763375D01*
X9369975Y-27612761D01*
X9369976Y-27612759D01*
X9369977Y-27612756D01*
X9448995Y-27464922D01*
X9555341Y-27335341D01*
X9684922Y-27228995D01*
X9832756Y-27149977D01*
X9832759Y-27149976D01*
X9832761Y-27149975D01*
X9993175Y-27101314D01*
X9993176Y-27101314D01*
X9993179Y-27101313D01*
X10118196Y-27089000D01*
X10201804Y-27089000D01*
X10326821Y-27101313D01*
X10326821Y-27101313D01*
G37*
G36*
X12866821Y-27101313D02*
X12866824Y-27101314D01*
X12866825Y-27101314D01*
X13027239Y-27149975D01*
X13027241Y-27149976D01*
X13027244Y-27149977D01*
X13175078Y-27228995D01*
X13304659Y-27335341D01*
X13411005Y-27464922D01*
X13490023Y-27612756D01*
X13490024Y-27612759D01*
X13490025Y-27612761D01*
X13535713Y-27763375D01*
X13538687Y-27773179D01*
X13555117Y-27940000D01*
X13538687Y-28106821D01*
X13538686Y-28106824D01*
X13538686Y-28106825D01*
X13535713Y-28116627D01*
X13490023Y-28267244D01*
X13411005Y-28415078D01*
X13304659Y-28544659D01*
X13175078Y-28651005D01*
X13027244Y-28730023D01*
X13027241Y-28730024D01*
X13027239Y-28730025D01*
X12866825Y-28778686D01*
X12866824Y-28778686D01*
X12866821Y-28778687D01*
X12741804Y-28791000D01*
X12658196Y-28791000D01*
X12533179Y-28778687D01*
X12533176Y-28778686D01*
X12533175Y-28778686D01*
X12372761Y-28730025D01*
X12372759Y-28730024D01*
X12372756Y-28730023D01*
X12224922Y-28651005D01*
X12095341Y-28544659D01*
X11988995Y-28415078D01*
X11909977Y-28267244D01*
X11864288Y-28116627D01*
X11861314Y-28106825D01*
X11861314Y-28106824D01*
X11861313Y-28106821D01*
X11844883Y-27940000D01*
X11861313Y-27773179D01*
X11864287Y-27763375D01*
X11909975Y-27612761D01*
X11909976Y-27612759D01*
X11909977Y-27612756D01*
X11988995Y-27464922D01*
X12095341Y-27335341D01*
X12224922Y-27228995D01*
X12372756Y-27149977D01*
X12372759Y-27149976D01*
X12372761Y-27149975D01*
X12533175Y-27101314D01*
X12533176Y-27101314D01*
X12533179Y-27101313D01*
X12658196Y-27089000D01*
X12741804Y-27089000D01*
X12866821Y-27101313D01*
X12866821Y-27101313D01*
G37*
G36*
X35726821Y-27101313D02*
X35726824Y-27101314D01*
X35726825Y-27101314D01*
X35887239Y-27149975D01*
X35887241Y-27149976D01*
X35887244Y-27149977D01*
X36035078Y-27228995D01*
X36164659Y-27335341D01*
X36271005Y-27464922D01*
X36350023Y-27612756D01*
X36350024Y-27612759D01*
X36350025Y-27612761D01*
X36395713Y-27763375D01*
X36398687Y-27773179D01*
X36415117Y-27940000D01*
X36398687Y-28106821D01*
X36398686Y-28106824D01*
X36398686Y-28106825D01*
X36395713Y-28116627D01*
X36350023Y-28267244D01*
X36271005Y-28415078D01*
X36164659Y-28544659D01*
X36035078Y-28651005D01*
X35887244Y-28730023D01*
X35887241Y-28730024D01*
X35887239Y-28730025D01*
X35726825Y-28778686D01*
X35726824Y-28778686D01*
X35726821Y-28778687D01*
X35601804Y-28791000D01*
X35518196Y-28791000D01*
X35393179Y-28778687D01*
X35393176Y-28778686D01*
X35393175Y-28778686D01*
X35232761Y-28730025D01*
X35232759Y-28730024D01*
X35232756Y-28730023D01*
X35084922Y-28651005D01*
X34955341Y-28544659D01*
X34848995Y-28415078D01*
X34769977Y-28267244D01*
X34724288Y-28116627D01*
X34721314Y-28106825D01*
X34721314Y-28106824D01*
X34721313Y-28106821D01*
X34704883Y-27940000D01*
X34721313Y-27773179D01*
X34724287Y-27763375D01*
X34769975Y-27612761D01*
X34769976Y-27612759D01*
X34769977Y-27612756D01*
X34848995Y-27464922D01*
X34955341Y-27335341D01*
X35084922Y-27228995D01*
X35232756Y-27149977D01*
X35232759Y-27149976D01*
X35232761Y-27149975D01*
X35393175Y-27101314D01*
X35393176Y-27101314D01*
X35393179Y-27101313D01*
X35518196Y-27089000D01*
X35601804Y-27089000D01*
X35726821Y-27101313D01*
X35726821Y-27101313D01*
G37*
G36*
X16091000Y-28791000D02*
X14389000Y-28791000D01*
X14389000Y-27089000D01*
X16091000Y-27089000D01*
X16091000Y-28791000D01*
X16091000Y-28791000D01*
G37*
G36*
X11211000Y-26451000D02*
X9109000Y-26451000D01*
X9109000Y-24349000D01*
X11211000Y-24349000D01*
X11211000Y-26451000D01*
X11211000Y-26451000D01*
G37*
G36*
X15322510Y-24352041D02*
X15446032Y-24364207D01*
X15644146Y-24424305D01*
X15826729Y-24521897D01*
X15986765Y-24653235D01*
X16118103Y-24813271D01*
X16215695Y-24995854D01*
X16275793Y-25193968D01*
X16296085Y-25400000D01*
X16275793Y-25606032D01*
X16215695Y-25804146D01*
X16118103Y-25986729D01*
X15986765Y-26146765D01*
X15826729Y-26278103D01*
X15644146Y-26375695D01*
X15446032Y-26435793D01*
X15322510Y-26447959D01*
X15291631Y-26451000D01*
X15188369Y-26451000D01*
X15157490Y-26447959D01*
X15033968Y-26435793D01*
X14835854Y-26375695D01*
X14653271Y-26278103D01*
X14493235Y-26146765D01*
X14361897Y-25986729D01*
X14264305Y-25804146D01*
X14204207Y-25606032D01*
X14183915Y-25400000D01*
X14204207Y-25193968D01*
X14264305Y-24995854D01*
X14361897Y-24813271D01*
X14493235Y-24653235D01*
X14653271Y-24521897D01*
X14835854Y-24424305D01*
X15033968Y-24364207D01*
X15157490Y-24352041D01*
X15188369Y-24349000D01*
X15291631Y-24349000D01*
X15322510Y-24352041D01*
X15322510Y-24352041D01*
G37*
G36*
X31381000Y-26301000D02*
X29579000Y-26301000D01*
X29579000Y-24499000D01*
X31381000Y-24499000D01*
X31381000Y-26301000D01*
X31381000Y-26301000D01*
G37*
G36*
X28050442Y-24505518D02*
X28116627Y-24512037D01*
X28229853Y-24546384D01*
X28286467Y-24563557D01*
X28373311Y-24609977D01*
X28442991Y-24647222D01*
X28478729Y-24676552D01*
X28580186Y-24759814D01*
X28624056Y-24813271D01*
X28692778Y-24897009D01*
X28692779Y-24897011D01*
X28776443Y-25053533D01*
X28793616Y-25110147D01*
X28827963Y-25223373D01*
X28845359Y-25400000D01*
X28827963Y-25576627D01*
X28819044Y-25606028D01*
X28776443Y-25746467D01*
X28745612Y-25804146D01*
X28692778Y-25902991D01*
X28663448Y-25938729D01*
X28580186Y-26040186D01*
X28478729Y-26123448D01*
X28442991Y-26152778D01*
X28442989Y-26152779D01*
X28286467Y-26236443D01*
X28279069Y-26238687D01*
X28116627Y-26287963D01*
X28050443Y-26294481D01*
X27984260Y-26301000D01*
X27895740Y-26301000D01*
X27829557Y-26294481D01*
X27763373Y-26287963D01*
X27600931Y-26238687D01*
X27593533Y-26236443D01*
X27437011Y-26152779D01*
X27437009Y-26152778D01*
X27401271Y-26123448D01*
X27299814Y-26040186D01*
X27216552Y-25938729D01*
X27187222Y-25902991D01*
X27134388Y-25804146D01*
X27103557Y-25746467D01*
X27060956Y-25606028D01*
X27052037Y-25576627D01*
X27034641Y-25400000D01*
X27052037Y-25223373D01*
X27086384Y-25110147D01*
X27103557Y-25053533D01*
X27187221Y-24897011D01*
X27187222Y-24897009D01*
X27255944Y-24813271D01*
X27299814Y-24759814D01*
X27401271Y-24676552D01*
X27437009Y-24647222D01*
X27506689Y-24609977D01*
X27593533Y-24563557D01*
X27650147Y-24546384D01*
X27763373Y-24512037D01*
X27829557Y-24505519D01*
X27895740Y-24499000D01*
X27984260Y-24499000D01*
X28050442Y-24505518D01*
X28050442Y-24505518D01*
G37*
G36*
X25510442Y-24505518D02*
X25576627Y-24512037D01*
X25689853Y-24546384D01*
X25746467Y-24563557D01*
X25833311Y-24609977D01*
X25902991Y-24647222D01*
X25938729Y-24676552D01*
X26040186Y-24759814D01*
X26084056Y-24813271D01*
X26152778Y-24897009D01*
X26152779Y-24897011D01*
X26236443Y-25053533D01*
X26253616Y-25110147D01*
X26287963Y-25223373D01*
X26305359Y-25400000D01*
X26287963Y-25576627D01*
X26279044Y-25606028D01*
X26236443Y-25746467D01*
X26205612Y-25804146D01*
X26152778Y-25902991D01*
X26123448Y-25938729D01*
X26040186Y-26040186D01*
X25938729Y-26123448D01*
X25902991Y-26152778D01*
X25902989Y-26152779D01*
X25746467Y-26236443D01*
X25739069Y-26238687D01*
X25576627Y-26287963D01*
X25510443Y-26294481D01*
X25444260Y-26301000D01*
X25355740Y-26301000D01*
X25289557Y-26294481D01*
X25223373Y-26287963D01*
X25060931Y-26238687D01*
X25053533Y-26236443D01*
X24897011Y-26152779D01*
X24897009Y-26152778D01*
X24861271Y-26123448D01*
X24759814Y-26040186D01*
X24676552Y-25938729D01*
X24647222Y-25902991D01*
X24594388Y-25804146D01*
X24563557Y-25746467D01*
X24520956Y-25606028D01*
X24512037Y-25576627D01*
X24494641Y-25400000D01*
X24512037Y-25223373D01*
X24546384Y-25110147D01*
X24563557Y-25053533D01*
X24647221Y-24897011D01*
X24647222Y-24897009D01*
X24715944Y-24813271D01*
X24759814Y-24759814D01*
X24861271Y-24676552D01*
X24897009Y-24647222D01*
X24966689Y-24609977D01*
X25053533Y-24563557D01*
X25110147Y-24546384D01*
X25223373Y-24512037D01*
X25289557Y-24505519D01*
X25355740Y-24499000D01*
X25444260Y-24499000D01*
X25510442Y-24505518D01*
X25510442Y-24505518D01*
G37*
G36*
X58530442Y-24505518D02*
X58596627Y-24512037D01*
X58709853Y-24546384D01*
X58766467Y-24563557D01*
X58853311Y-24609977D01*
X58922991Y-24647222D01*
X58958729Y-24676552D01*
X59060186Y-24759814D01*
X59104056Y-24813271D01*
X59172778Y-24897009D01*
X59172779Y-24897011D01*
X59256443Y-25053533D01*
X59273616Y-25110147D01*
X59307963Y-25223373D01*
X59325359Y-25400000D01*
X59307963Y-25576627D01*
X59299044Y-25606028D01*
X59256443Y-25746467D01*
X59225612Y-25804146D01*
X59172778Y-25902991D01*
X59143448Y-25938729D01*
X59060186Y-26040186D01*
X58958729Y-26123448D01*
X58922991Y-26152778D01*
X58922989Y-26152779D01*
X58766467Y-26236443D01*
X58759069Y-26238687D01*
X58596627Y-26287963D01*
X58530443Y-26294481D01*
X58464260Y-26301000D01*
X58375740Y-26301000D01*
X58309557Y-26294481D01*
X58243373Y-26287963D01*
X58080931Y-26238687D01*
X58073533Y-26236443D01*
X57917011Y-26152779D01*
X57917009Y-26152778D01*
X57881271Y-26123448D01*
X57779814Y-26040186D01*
X57696552Y-25938729D01*
X57667222Y-25902991D01*
X57614388Y-25804146D01*
X57583557Y-25746467D01*
X57540956Y-25606028D01*
X57532037Y-25576627D01*
X57514641Y-25400000D01*
X57532037Y-25223373D01*
X57566384Y-25110147D01*
X57583557Y-25053533D01*
X57667221Y-24897011D01*
X57667222Y-24897009D01*
X57735944Y-24813271D01*
X57779814Y-24759814D01*
X57881271Y-24676552D01*
X57917009Y-24647222D01*
X57986689Y-24609977D01*
X58073533Y-24563557D01*
X58130147Y-24546384D01*
X58243373Y-24512037D01*
X58309557Y-24505519D01*
X58375740Y-24499000D01*
X58464260Y-24499000D01*
X58530442Y-24505518D01*
X58530442Y-24505518D01*
G37*
G36*
X55990442Y-24505518D02*
X56056627Y-24512037D01*
X56169853Y-24546384D01*
X56226467Y-24563557D01*
X56313311Y-24609977D01*
X56382991Y-24647222D01*
X56418729Y-24676552D01*
X56520186Y-24759814D01*
X56564056Y-24813271D01*
X56632778Y-24897009D01*
X56632779Y-24897011D01*
X56716443Y-25053533D01*
X56733616Y-25110147D01*
X56767963Y-25223373D01*
X56785359Y-25400000D01*
X56767963Y-25576627D01*
X56759044Y-25606028D01*
X56716443Y-25746467D01*
X56685612Y-25804146D01*
X56632778Y-25902991D01*
X56603448Y-25938729D01*
X56520186Y-26040186D01*
X56418729Y-26123448D01*
X56382991Y-26152778D01*
X56382989Y-26152779D01*
X56226467Y-26236443D01*
X56219069Y-26238687D01*
X56056627Y-26287963D01*
X55990443Y-26294481D01*
X55924260Y-26301000D01*
X55835740Y-26301000D01*
X55769557Y-26294481D01*
X55703373Y-26287963D01*
X55540931Y-26238687D01*
X55533533Y-26236443D01*
X55377011Y-26152779D01*
X55377009Y-26152778D01*
X55341271Y-26123448D01*
X55239814Y-26040186D01*
X55156552Y-25938729D01*
X55127222Y-25902991D01*
X55074388Y-25804146D01*
X55043557Y-25746467D01*
X55000956Y-25606028D01*
X54992037Y-25576627D01*
X54974641Y-25400000D01*
X54992037Y-25223373D01*
X55026384Y-25110147D01*
X55043557Y-25053533D01*
X55127221Y-24897011D01*
X55127222Y-24897009D01*
X55195944Y-24813271D01*
X55239814Y-24759814D01*
X55341271Y-24676552D01*
X55377009Y-24647222D01*
X55446689Y-24609977D01*
X55533533Y-24563557D01*
X55590147Y-24546384D01*
X55703373Y-24512037D01*
X55769557Y-24505519D01*
X55835740Y-24499000D01*
X55924260Y-24499000D01*
X55990442Y-24505518D01*
X55990442Y-24505518D01*
G37*
G36*
X35726821Y-24561313D02*
X35726824Y-24561314D01*
X35726825Y-24561314D01*
X35887239Y-24609975D01*
X35887241Y-24609976D01*
X35887244Y-24609977D01*
X36035078Y-24688995D01*
X36164659Y-24795341D01*
X36271005Y-24924922D01*
X36350023Y-25072756D01*
X36350024Y-25072759D01*
X36350025Y-25072761D01*
X36395713Y-25223375D01*
X36398687Y-25233179D01*
X36415117Y-25400000D01*
X36398687Y-25566821D01*
X36398686Y-25566824D01*
X36398686Y-25566825D01*
X36386793Y-25606032D01*
X36350023Y-25727244D01*
X36271005Y-25875078D01*
X36164659Y-26004659D01*
X36035078Y-26111005D01*
X35887244Y-26190023D01*
X35887241Y-26190024D01*
X35887239Y-26190025D01*
X35726825Y-26238686D01*
X35726824Y-26238686D01*
X35726821Y-26238687D01*
X35601804Y-26251000D01*
X35518196Y-26251000D01*
X35393179Y-26238687D01*
X35393176Y-26238686D01*
X35393175Y-26238686D01*
X35232761Y-26190025D01*
X35232759Y-26190024D01*
X35232756Y-26190023D01*
X35084922Y-26111005D01*
X34955341Y-26004659D01*
X34848995Y-25875078D01*
X34769977Y-25727244D01*
X34733208Y-25606032D01*
X34721314Y-25566825D01*
X34721314Y-25566824D01*
X34721313Y-25566821D01*
X34704883Y-25400000D01*
X34721313Y-25233179D01*
X34724287Y-25223375D01*
X34769975Y-25072761D01*
X34769976Y-25072759D01*
X34769977Y-25072756D01*
X34848995Y-24924922D01*
X34955341Y-24795341D01*
X35084922Y-24688995D01*
X35232756Y-24609977D01*
X35232759Y-24609976D01*
X35232761Y-24609975D01*
X35393175Y-24561314D01*
X35393176Y-24561314D01*
X35393179Y-24561313D01*
X35518196Y-24549000D01*
X35601804Y-24549000D01*
X35726821Y-24561313D01*
X35726821Y-24561313D01*
G37*
G36*
X43346821Y-24561313D02*
X43346824Y-24561314D01*
X43346825Y-24561314D01*
X43507239Y-24609975D01*
X43507241Y-24609976D01*
X43507244Y-24609977D01*
X43655078Y-24688995D01*
X43784659Y-24795341D01*
X43891005Y-24924922D01*
X43970023Y-25072756D01*
X43970024Y-25072759D01*
X43970025Y-25072761D01*
X44015713Y-25223375D01*
X44018687Y-25233179D01*
X44035117Y-25400000D01*
X44018687Y-25566821D01*
X44018686Y-25566824D01*
X44018686Y-25566825D01*
X44006793Y-25606032D01*
X43970023Y-25727244D01*
X43891005Y-25875078D01*
X43784659Y-26004659D01*
X43655078Y-26111005D01*
X43507244Y-26190023D01*
X43507241Y-26190024D01*
X43507239Y-26190025D01*
X43346825Y-26238686D01*
X43346824Y-26238686D01*
X43346821Y-26238687D01*
X43221804Y-26251000D01*
X43138196Y-26251000D01*
X43013179Y-26238687D01*
X43013176Y-26238686D01*
X43013175Y-26238686D01*
X42852761Y-26190025D01*
X42852759Y-26190024D01*
X42852756Y-26190023D01*
X42704922Y-26111005D01*
X42575341Y-26004659D01*
X42468995Y-25875078D01*
X42389977Y-25727244D01*
X42353208Y-25606032D01*
X42341314Y-25566825D01*
X42341314Y-25566824D01*
X42341313Y-25566821D01*
X42324883Y-25400000D01*
X42341313Y-25233179D01*
X42344287Y-25223375D01*
X42389975Y-25072761D01*
X42389976Y-25072759D01*
X42389977Y-25072756D01*
X42468995Y-24924922D01*
X42575341Y-24795341D01*
X42704922Y-24688995D01*
X42852756Y-24609977D01*
X42852759Y-24609976D01*
X42852761Y-24609975D01*
X43013175Y-24561314D01*
X43013176Y-24561314D01*
X43013179Y-24561313D01*
X43138196Y-24549000D01*
X43221804Y-24549000D01*
X43346821Y-24561313D01*
X43346821Y-24561313D01*
G37*
G36*
X56781000Y-23761000D02*
X54979000Y-23761000D01*
X54979000Y-21959000D01*
X56781000Y-21959000D01*
X56781000Y-23761000D01*
X56781000Y-23761000D01*
G37*
G36*
X58530443Y-21965519D02*
X58596627Y-21972037D01*
X58709853Y-22006384D01*
X58766467Y-22023557D01*
X58853311Y-22069977D01*
X58922991Y-22107222D01*
X58958729Y-22136552D01*
X59060186Y-22219814D01*
X59140369Y-22317519D01*
X59172778Y-22357009D01*
X59172779Y-22357011D01*
X59256443Y-22513533D01*
X59273616Y-22570147D01*
X59307963Y-22683373D01*
X59325359Y-22860000D01*
X59307963Y-23036627D01*
X59286243Y-23108228D01*
X59256443Y-23206467D01*
X59187698Y-23335078D01*
X59172778Y-23362991D01*
X59143448Y-23398729D01*
X59060186Y-23500186D01*
X58958729Y-23583448D01*
X58922991Y-23612778D01*
X58922989Y-23612779D01*
X58766467Y-23696443D01*
X58759069Y-23698687D01*
X58596627Y-23747963D01*
X58530442Y-23754482D01*
X58464260Y-23761000D01*
X58375740Y-23761000D01*
X58309558Y-23754482D01*
X58243373Y-23747963D01*
X58080931Y-23698687D01*
X58073533Y-23696443D01*
X57917011Y-23612779D01*
X57917009Y-23612778D01*
X57881271Y-23583448D01*
X57779814Y-23500186D01*
X57696552Y-23398729D01*
X57667222Y-23362991D01*
X57652302Y-23335078D01*
X57583557Y-23206467D01*
X57553757Y-23108228D01*
X57532037Y-23036627D01*
X57514641Y-22860000D01*
X57532037Y-22683373D01*
X57566384Y-22570147D01*
X57583557Y-22513533D01*
X57667221Y-22357011D01*
X57667222Y-22357009D01*
X57699631Y-22317519D01*
X57779814Y-22219814D01*
X57881271Y-22136552D01*
X57917009Y-22107222D01*
X57986689Y-22069977D01*
X58073533Y-22023557D01*
X58130147Y-22006384D01*
X58243373Y-21972037D01*
X58309557Y-21965519D01*
X58375740Y-21959000D01*
X58464260Y-21959000D01*
X58530443Y-21965519D01*
X58530443Y-21965519D01*
G37*
G36*
X36411000Y-23711000D02*
X34709000Y-23711000D01*
X34709000Y-22009000D01*
X36411000Y-22009000D01*
X36411000Y-23711000D01*
X36411000Y-23711000D01*
G37*
G36*
X15488228Y-22041703D02*
X15643100Y-22105853D01*
X15782481Y-22198985D01*
X15901015Y-22317519D01*
X15994147Y-22456900D01*
X16058297Y-22611772D01*
X16091000Y-22776184D01*
X16091000Y-22943816D01*
X16058297Y-23108228D01*
X15994147Y-23263100D01*
X15901015Y-23402481D01*
X15782481Y-23521015D01*
X15643100Y-23614147D01*
X15488228Y-23678297D01*
X15323816Y-23711000D01*
X15156184Y-23711000D01*
X14991772Y-23678297D01*
X14836900Y-23614147D01*
X14697519Y-23521015D01*
X14578985Y-23402481D01*
X14485853Y-23263100D01*
X14421703Y-23108228D01*
X14389000Y-22943816D01*
X14389000Y-22776184D01*
X14421703Y-22611772D01*
X14485853Y-22456900D01*
X14578985Y-22317519D01*
X14697519Y-22198985D01*
X14836900Y-22105853D01*
X14991772Y-22041703D01*
X15156184Y-22009000D01*
X15323816Y-22009000D01*
X15488228Y-22041703D01*
X15488228Y-22041703D01*
G37*
G36*
X43346821Y-22021313D02*
X43346824Y-22021314D01*
X43346825Y-22021314D01*
X43507239Y-22069975D01*
X43507241Y-22069976D01*
X43507244Y-22069977D01*
X43655078Y-22148995D01*
X43784659Y-22255341D01*
X43891005Y-22384922D01*
X43970023Y-22532756D01*
X43970024Y-22532759D01*
X43970025Y-22532761D01*
X44015713Y-22683375D01*
X44018687Y-22693179D01*
X44035117Y-22860000D01*
X44018687Y-23026821D01*
X44018686Y-23026824D01*
X44018686Y-23026825D01*
X43993993Y-23108228D01*
X43970023Y-23187244D01*
X43891005Y-23335078D01*
X43784659Y-23464659D01*
X43655078Y-23571005D01*
X43507244Y-23650023D01*
X43507241Y-23650024D01*
X43507239Y-23650025D01*
X43346825Y-23698686D01*
X43346824Y-23698686D01*
X43346821Y-23698687D01*
X43221804Y-23711000D01*
X43138196Y-23711000D01*
X43013179Y-23698687D01*
X43013176Y-23698686D01*
X43013175Y-23698686D01*
X42852761Y-23650025D01*
X42852759Y-23650024D01*
X42852756Y-23650023D01*
X42704922Y-23571005D01*
X42575341Y-23464659D01*
X42468995Y-23335078D01*
X42389977Y-23187244D01*
X42366008Y-23108228D01*
X42341314Y-23026825D01*
X42341314Y-23026824D01*
X42341313Y-23026821D01*
X42324883Y-22860000D01*
X42341313Y-22693179D01*
X42344287Y-22683375D01*
X42389975Y-22532761D01*
X42389976Y-22532759D01*
X42389977Y-22532756D01*
X42468995Y-22384922D01*
X42575341Y-22255341D01*
X42704922Y-22148995D01*
X42852756Y-22069977D01*
X42852759Y-22069976D01*
X42852761Y-22069975D01*
X43013175Y-22021314D01*
X43013176Y-22021314D01*
X43013179Y-22021313D01*
X43138196Y-22009000D01*
X43221804Y-22009000D01*
X43346821Y-22021313D01*
X43346821Y-22021313D01*
G37*
G36*
X7786821Y-22021313D02*
X7786824Y-22021314D01*
X7786825Y-22021314D01*
X7947239Y-22069975D01*
X7947241Y-22069976D01*
X7947244Y-22069977D01*
X8095078Y-22148995D01*
X8224659Y-22255341D01*
X8331005Y-22384922D01*
X8410023Y-22532756D01*
X8410024Y-22532759D01*
X8410025Y-22532761D01*
X8455713Y-22683375D01*
X8458687Y-22693179D01*
X8475117Y-22860000D01*
X8458687Y-23026821D01*
X8458686Y-23026824D01*
X8458686Y-23026825D01*
X8433993Y-23108228D01*
X8410023Y-23187244D01*
X8331005Y-23335078D01*
X8224659Y-23464659D01*
X8095078Y-23571005D01*
X7947244Y-23650023D01*
X7947241Y-23650024D01*
X7947239Y-23650025D01*
X7786825Y-23698686D01*
X7786824Y-23698686D01*
X7786821Y-23698687D01*
X7661804Y-23711000D01*
X7578196Y-23711000D01*
X7453179Y-23698687D01*
X7453176Y-23698686D01*
X7453175Y-23698686D01*
X7292761Y-23650025D01*
X7292759Y-23650024D01*
X7292756Y-23650023D01*
X7144922Y-23571005D01*
X7015341Y-23464659D01*
X6908995Y-23335078D01*
X6829977Y-23187244D01*
X6806008Y-23108228D01*
X6781314Y-23026825D01*
X6781314Y-23026824D01*
X6781313Y-23026821D01*
X6764883Y-22860000D01*
X6781313Y-22693179D01*
X6784287Y-22683375D01*
X6829975Y-22532761D01*
X6829976Y-22532759D01*
X6829977Y-22532756D01*
X6908995Y-22384922D01*
X7015341Y-22255341D01*
X7144922Y-22148995D01*
X7292756Y-22069977D01*
X7292759Y-22069976D01*
X7292761Y-22069975D01*
X7453175Y-22021314D01*
X7453176Y-22021314D01*
X7453179Y-22021313D01*
X7578196Y-22009000D01*
X7661804Y-22009000D01*
X7786821Y-22021313D01*
X7786821Y-22021313D01*
G37*
G36*
X43428228Y-19421703D02*
X43583100Y-19485853D01*
X43722481Y-19578985D01*
X43841015Y-19697519D01*
X43934147Y-19836900D01*
X43998297Y-19991772D01*
X44031000Y-20156184D01*
X44031000Y-20323816D01*
X43998297Y-20488228D01*
X43934147Y-20643100D01*
X43841015Y-20782481D01*
X43722481Y-20901015D01*
X43583100Y-20994147D01*
X43428228Y-21058297D01*
X43263816Y-21091000D01*
X43096184Y-21091000D01*
X42931772Y-21058297D01*
X42776900Y-20994147D01*
X42637519Y-20901015D01*
X42518985Y-20782481D01*
X42425853Y-20643100D01*
X42361703Y-20488228D01*
X42329000Y-20323816D01*
X42329000Y-20156184D01*
X42361703Y-19991772D01*
X42425853Y-19836900D01*
X42518985Y-19697519D01*
X42637519Y-19578985D01*
X42776900Y-19485853D01*
X42931772Y-19421703D01*
X43096184Y-19389000D01*
X43263816Y-19389000D01*
X43428228Y-19421703D01*
X43428228Y-19421703D01*
G37*
G36*
X10623213Y-16529304D02*
X10859922Y-16627352D01*
X11072958Y-16769698D01*
X11254122Y-16950862D01*
X11396468Y-17163898D01*
X11494516Y-17400607D01*
X11544500Y-17651893D01*
X11544500Y-17908107D01*
X11494516Y-18159393D01*
X11396468Y-18396102D01*
X11254122Y-18609138D01*
X11072958Y-18790302D01*
X10859922Y-18932648D01*
X10623213Y-19030696D01*
X10371927Y-19080680D01*
X10115713Y-19080680D01*
X9864427Y-19030696D01*
X9627718Y-18932648D01*
X9414682Y-18790302D01*
X9233518Y-18609138D01*
X9091172Y-18396102D01*
X8993124Y-18159393D01*
X8943140Y-17908107D01*
X8943140Y-17651893D01*
X8993124Y-17400607D01*
X9091172Y-17163898D01*
X9233518Y-16950862D01*
X9414682Y-16769698D01*
X9627718Y-16627352D01*
X9864427Y-16529304D01*
X10115713Y-16479320D01*
X10371927Y-16479320D01*
X10623213Y-16529304D01*
X10623213Y-16529304D01*
G37*
G36*
X20615573Y-16529304D02*
X20852282Y-16627352D01*
X21065318Y-16769698D01*
X21246482Y-16950862D01*
X21388828Y-17163898D01*
X21486876Y-17400607D01*
X21536860Y-17651893D01*
X21536860Y-17908107D01*
X21486876Y-18159393D01*
X21388828Y-18396102D01*
X21246482Y-18609138D01*
X21065318Y-18790302D01*
X20852282Y-18932648D01*
X20615573Y-19030696D01*
X20364287Y-19080680D01*
X20108073Y-19080680D01*
X19856787Y-19030696D01*
X19620078Y-18932648D01*
X19407042Y-18790302D01*
X19225878Y-18609138D01*
X19083532Y-18396102D01*
X18985484Y-18159393D01*
X18935500Y-17908107D01*
X18935500Y-17651893D01*
X18985484Y-17400607D01*
X19083532Y-17163898D01*
X19225878Y-16950862D01*
X19407042Y-16769698D01*
X19620078Y-16627352D01*
X19856787Y-16529304D01*
X20108073Y-16479320D01*
X20364287Y-16479320D01*
X20615573Y-16529304D01*
X20615573Y-16529304D01*
G37*
G36*
X28106821Y-16941313D02*
X28106824Y-16941314D01*
X28106825Y-16941314D01*
X28267239Y-16989975D01*
X28267241Y-16989976D01*
X28267244Y-16989977D01*
X28415078Y-17068995D01*
X28544659Y-17175341D01*
X28651005Y-17304922D01*
X28730023Y-17452756D01*
X28730024Y-17452759D01*
X28730025Y-17452761D01*
X28778686Y-17613175D01*
X28778687Y-17613179D01*
X28795117Y-17780000D01*
X28778687Y-17946821D01*
X28778686Y-17946824D01*
X28778686Y-17946825D01*
X28753993Y-18028228D01*
X28730023Y-18107244D01*
X28651005Y-18255078D01*
X28544659Y-18384659D01*
X28415078Y-18491005D01*
X28267244Y-18570023D01*
X28267241Y-18570024D01*
X28267239Y-18570025D01*
X28106825Y-18618686D01*
X28106824Y-18618686D01*
X28106821Y-18618687D01*
X27981804Y-18631000D01*
X27898196Y-18631000D01*
X27773179Y-18618687D01*
X27773176Y-18618686D01*
X27773175Y-18618686D01*
X27612761Y-18570025D01*
X27612759Y-18570024D01*
X27612756Y-18570023D01*
X27464922Y-18491005D01*
X27335341Y-18384659D01*
X27228995Y-18255078D01*
X27149977Y-18107244D01*
X27126008Y-18028228D01*
X27101314Y-17946825D01*
X27101314Y-17946824D01*
X27101313Y-17946821D01*
X27084883Y-17780000D01*
X27101313Y-17613179D01*
X27101314Y-17613175D01*
X27149975Y-17452761D01*
X27149976Y-17452759D01*
X27149977Y-17452756D01*
X27228995Y-17304922D01*
X27335341Y-17175341D01*
X27464922Y-17068995D01*
X27612756Y-16989977D01*
X27612759Y-16989976D01*
X27612761Y-16989975D01*
X27773175Y-16941314D01*
X27773176Y-16941314D01*
X27773179Y-16941313D01*
X27898196Y-16929000D01*
X27981804Y-16929000D01*
X28106821Y-16941313D01*
X28106821Y-16941313D01*
G37*
G36*
X35808228Y-16961703D02*
X35963100Y-17025853D01*
X36102481Y-17118985D01*
X36221015Y-17237519D01*
X36314147Y-17376900D01*
X36378297Y-17531772D01*
X36411000Y-17696184D01*
X36411000Y-17863816D01*
X36378297Y-18028228D01*
X36314147Y-18183100D01*
X36221015Y-18322481D01*
X36102481Y-18441015D01*
X35963100Y-18534147D01*
X35808228Y-18598297D01*
X35643816Y-18631000D01*
X35476184Y-18631000D01*
X35311772Y-18598297D01*
X35156900Y-18534147D01*
X35017519Y-18441015D01*
X34898985Y-18322481D01*
X34805853Y-18183100D01*
X34741703Y-18028228D01*
X34709000Y-17863816D01*
X34709000Y-17696184D01*
X34741703Y-17531772D01*
X34805853Y-17376900D01*
X34898985Y-17237519D01*
X35017519Y-17118985D01*
X35156900Y-17025853D01*
X35311772Y-16961703D01*
X35476184Y-16929000D01*
X35643816Y-16929000D01*
X35808228Y-16961703D01*
X35808228Y-16961703D01*
G37*
G36*
X15619393Y-14029944D02*
X15856102Y-14127992D01*
X16069138Y-14270338D01*
X16250302Y-14451502D01*
X16392648Y-14664538D01*
X16490696Y-14901247D01*
X16540680Y-15152533D01*
X16540680Y-15408747D01*
X16490696Y-15660033D01*
X16392648Y-15896742D01*
X16250302Y-16109778D01*
X16069138Y-16290942D01*
X15856102Y-16433288D01*
X15619393Y-16531336D01*
X15368107Y-16581320D01*
X15111893Y-16581320D01*
X14860607Y-16531336D01*
X14623898Y-16433288D01*
X14410862Y-16290942D01*
X14229698Y-16109778D01*
X14087352Y-15896742D01*
X13989304Y-15660033D01*
X13939320Y-15408747D01*
X13939320Y-15152533D01*
X13989304Y-14901247D01*
X14087352Y-14664538D01*
X14229698Y-14451502D01*
X14410862Y-14270338D01*
X14623898Y-14127992D01*
X14860607Y-14029944D01*
X15111893Y-13979960D01*
X15368107Y-13979960D01*
X15619393Y-14029944D01*
X15619393Y-14029944D01*
G37*
G36*
X8121313Y-14027404D02*
X8358022Y-14125452D01*
X8571058Y-14267798D01*
X8752222Y-14448962D01*
X8894568Y-14661998D01*
X8992616Y-14898707D01*
X9042600Y-15149993D01*
X9042600Y-15406207D01*
X8992616Y-15657493D01*
X8894568Y-15894202D01*
X8752222Y-16107238D01*
X8571058Y-16288402D01*
X8358022Y-16430748D01*
X8121313Y-16528796D01*
X7870027Y-16578780D01*
X7613813Y-16578780D01*
X7362527Y-16528796D01*
X7125818Y-16430748D01*
X6912782Y-16288402D01*
X6731618Y-16107238D01*
X6589272Y-15894202D01*
X6491224Y-15657493D01*
X6441240Y-15406207D01*
X6441240Y-15149993D01*
X6491224Y-14898707D01*
X6589272Y-14661998D01*
X6731618Y-14448962D01*
X6912782Y-14267798D01*
X7125818Y-14125452D01*
X7362527Y-14027404D01*
X7613813Y-13977420D01*
X7870027Y-13977420D01*
X8121313Y-14027404D01*
X8121313Y-14027404D01*
G37*
G36*
X23117473Y-14027404D02*
X23354182Y-14125452D01*
X23567218Y-14267798D01*
X23748382Y-14448962D01*
X23890728Y-14661998D01*
X23988776Y-14898707D01*
X24038760Y-15149993D01*
X24038760Y-15406207D01*
X23988776Y-15657493D01*
X23890728Y-15894202D01*
X23748382Y-16107238D01*
X23567218Y-16288402D01*
X23354182Y-16430748D01*
X23117473Y-16528796D01*
X22866187Y-16578780D01*
X22609973Y-16578780D01*
X22358687Y-16528796D01*
X22121978Y-16430748D01*
X21908942Y-16288402D01*
X21727778Y-16107238D01*
X21585432Y-15894202D01*
X21487384Y-15657493D01*
X21437400Y-15406207D01*
X21437400Y-15149993D01*
X21487384Y-14898707D01*
X21585432Y-14661998D01*
X21727778Y-14448962D01*
X21908942Y-14267798D01*
X22121978Y-14125452D01*
X22358687Y-14027404D01*
X22609973Y-13977420D01*
X22866187Y-13977420D01*
X23117473Y-14027404D01*
X23117473Y-14027404D01*
G37*
G36*
X43428228Y-14421703D02*
X43583100Y-14485853D01*
X43722481Y-14578985D01*
X43841015Y-14697519D01*
X43934147Y-14836900D01*
X43998297Y-14991772D01*
X44031000Y-15156184D01*
X44031000Y-15323816D01*
X43998297Y-15488228D01*
X43934147Y-15643100D01*
X43841015Y-15782481D01*
X43722481Y-15901015D01*
X43583100Y-15994147D01*
X43428228Y-16058297D01*
X43263816Y-16091000D01*
X43096184Y-16091000D01*
X42931772Y-16058297D01*
X42776900Y-15994147D01*
X42637519Y-15901015D01*
X42518985Y-15782481D01*
X42425853Y-15643100D01*
X42361703Y-15488228D01*
X42329000Y-15323816D01*
X42329000Y-15156184D01*
X42361703Y-14991772D01*
X42425853Y-14836900D01*
X42518985Y-14697519D01*
X42637519Y-14578985D01*
X42776900Y-14485853D01*
X42931772Y-14421703D01*
X43096184Y-14389000D01*
X43263816Y-14389000D01*
X43428228Y-14421703D01*
X43428228Y-14421703D01*
G37*
G36*
X58487420Y-11239143D02*
X58619556Y-11279227D01*
X58619558Y-11279228D01*
X58741338Y-11344320D01*
X58741340Y-11344321D01*
X58741339Y-11344321D01*
X58848078Y-11431918D01*
X58848080Y-11431921D01*
X58935680Y-11538661D01*
X59000772Y-11660441D01*
X59000773Y-11660443D01*
X59040857Y-11792579D01*
X59051000Y-11895568D01*
X59051000Y-12664432D01*
X59040857Y-12767421D01*
X59000773Y-12899557D01*
X59000772Y-12899559D01*
X58935680Y-13021339D01*
X58848080Y-13128080D01*
X58741339Y-13215680D01*
X58619559Y-13280772D01*
X58619557Y-13280773D01*
X58487421Y-13320857D01*
X58350000Y-13334391D01*
X58212580Y-13320857D01*
X58080444Y-13280773D01*
X58080442Y-13280772D01*
X57958662Y-13215680D01*
X57851921Y-13128080D01*
X57764321Y-13021339D01*
X57699229Y-12899559D01*
X57699228Y-12899558D01*
X57659143Y-12767419D01*
X57649000Y-12664432D01*
X57649000Y-11895569D01*
X57659143Y-11792580D01*
X57699227Y-11660444D01*
X57699229Y-11660441D01*
X57764320Y-11538662D01*
X57775883Y-11524573D01*
X57851918Y-11431922D01*
X57881910Y-11407309D01*
X57958661Y-11344320D01*
X58080441Y-11279228D01*
X58080443Y-11279227D01*
X58212579Y-11239143D01*
X58350000Y-11225609D01*
X58487420Y-11239143D01*
X58487420Y-11239143D01*
G37*
G36*
X62987420Y-11239143D02*
X63119556Y-11279227D01*
X63119558Y-11279228D01*
X63241338Y-11344320D01*
X63241340Y-11344321D01*
X63241339Y-11344321D01*
X63348078Y-11431918D01*
X63348080Y-11431921D01*
X63435680Y-11538661D01*
X63500772Y-11660441D01*
X63500773Y-11660443D01*
X63540857Y-11792579D01*
X63551000Y-11895568D01*
X63551000Y-12664432D01*
X63540857Y-12767421D01*
X63500773Y-12899557D01*
X63500772Y-12899559D01*
X63435680Y-13021339D01*
X63348080Y-13128080D01*
X63241339Y-13215680D01*
X63119559Y-13280772D01*
X63119557Y-13280773D01*
X62987421Y-13320857D01*
X62850000Y-13334391D01*
X62712580Y-13320857D01*
X62580444Y-13280773D01*
X62580442Y-13280772D01*
X62458662Y-13215680D01*
X62351921Y-13128080D01*
X62264321Y-13021339D01*
X62199229Y-12899559D01*
X62199228Y-12899558D01*
X62159143Y-12767419D01*
X62149000Y-12664432D01*
X62149000Y-11895569D01*
X62159143Y-11792580D01*
X62199227Y-11660444D01*
X62199229Y-11660441D01*
X62264320Y-11538662D01*
X62275883Y-11524573D01*
X62351918Y-11431922D01*
X62381910Y-11407309D01*
X62458661Y-11344320D01*
X62580441Y-11279228D01*
X62580443Y-11279227D01*
X62712579Y-11239143D01*
X62850000Y-11225609D01*
X62987420Y-11239143D01*
X62987420Y-11239143D01*
G37*
G36*
X29741060Y-6881060D02*
X26138940Y-6881060D01*
X26138940Y-3278940D01*
X29741060Y-3278940D01*
X29741060Y-6881060D01*
X29741060Y-6881060D01*
G37*
G36*
X33246905Y-3288789D02*
X33545350Y-3348153D01*
X33873122Y-3483921D01*
X34168109Y-3681025D01*
X34418975Y-3931891D01*
X34616079Y-4226878D01*
X34751847Y-4554650D01*
X34821060Y-4902611D01*
X34821060Y-5257389D01*
X34751847Y-5605350D01*
X34616079Y-5933122D01*
X34418975Y-6228109D01*
X34168109Y-6478975D01*
X33873122Y-6676079D01*
X33545350Y-6811847D01*
X33246905Y-6871211D01*
X33197390Y-6881060D01*
X32842610Y-6881060D01*
X32793095Y-6871211D01*
X32494650Y-6811847D01*
X32166878Y-6676079D01*
X31871891Y-6478975D01*
X31621025Y-6228109D01*
X31423921Y-5933122D01*
X31288153Y-5605350D01*
X31218940Y-5257389D01*
X31218940Y-4902611D01*
X31288153Y-4554650D01*
X31423921Y-4226878D01*
X31621025Y-3931891D01*
X31871891Y-3681025D01*
X32166878Y-3483921D01*
X32494650Y-3348153D01*
X32793095Y-3288789D01*
X32842610Y-3278940D01*
X33197390Y-3278940D01*
X33246905Y-3288789D01*
X33246905Y-3288789D01*
G37*
G36*
X20620653Y-4032504D02*
X20857362Y-4130552D01*
X21070398Y-4272898D01*
X21251562Y-4454062D01*
X21393908Y-4667098D01*
X21491956Y-4903807D01*
X21541940Y-5155093D01*
X21541940Y-5411307D01*
X21491956Y-5662593D01*
X21393908Y-5899302D01*
X21251562Y-6112338D01*
X21070398Y-6293502D01*
X20857362Y-6435848D01*
X20620653Y-6533896D01*
X20369367Y-6583880D01*
X20113153Y-6583880D01*
X19861867Y-6533896D01*
X19625158Y-6435848D01*
X19412122Y-6293502D01*
X19230958Y-6112338D01*
X19088612Y-5899302D01*
X18990564Y-5662593D01*
X18940580Y-5411307D01*
X18940580Y-5155093D01*
X18990564Y-4903807D01*
X19088612Y-4667098D01*
X19230958Y-4454062D01*
X19412122Y-4272898D01*
X19625158Y-4130552D01*
X19861867Y-4032504D01*
X20113153Y-3982520D01*
X20369367Y-3982520D01*
X20620653Y-4032504D01*
X20620653Y-4032504D01*
G37*
G36*
X10618133Y-4032504D02*
X10854842Y-4130552D01*
X11067878Y-4272898D01*
X11249042Y-4454062D01*
X11391388Y-4667098D01*
X11489436Y-4903807D01*
X11539420Y-5155093D01*
X11539420Y-5411307D01*
X11489436Y-5662593D01*
X11391388Y-5899302D01*
X11249042Y-6112338D01*
X11067878Y-6293502D01*
X10854842Y-6435848D01*
X10618133Y-6533896D01*
X10366847Y-6583880D01*
X10110633Y-6583880D01*
X9859347Y-6533896D01*
X9622638Y-6435848D01*
X9409602Y-6293502D01*
X9228438Y-6112338D01*
X9086092Y-5899302D01*
X8988044Y-5662593D01*
X8938060Y-5411307D01*
X8938060Y-5155093D01*
X8988044Y-4903807D01*
X9086092Y-4667098D01*
X9228438Y-4454062D01*
X9409602Y-4272898D01*
X9622638Y-4130552D01*
X9859347Y-4032504D01*
X10110633Y-3982520D01*
X10366847Y-3982520D01*
X10618133Y-4032504D01*
X10618133Y-4032504D01*
G37*
G36*
X63637420Y-4039143D02*
X63769556Y-4079227D01*
X63769558Y-4079228D01*
X63891338Y-4144320D01*
X63891340Y-4144321D01*
X63891339Y-4144321D01*
X63998078Y-4231918D01*
X63998080Y-4231921D01*
X64085680Y-4338661D01*
X64147362Y-4454062D01*
X64150773Y-4460443D01*
X64190857Y-4592579D01*
X64201000Y-4695568D01*
X64201000Y-5464432D01*
X64190857Y-5567421D01*
X64150773Y-5699557D01*
X64150772Y-5699559D01*
X64085680Y-5821339D01*
X63998080Y-5928080D01*
X63891339Y-6015680D01*
X63769559Y-6080772D01*
X63769557Y-6080773D01*
X63637421Y-6120857D01*
X63500000Y-6134391D01*
X63362580Y-6120857D01*
X63230444Y-6080773D01*
X63230442Y-6080772D01*
X63108662Y-6015680D01*
X63001921Y-5928080D01*
X62914321Y-5821339D01*
X62849229Y-5699559D01*
X62849228Y-5699558D01*
X62809143Y-5567419D01*
X62799000Y-5464432D01*
X62799000Y-4695569D01*
X62809143Y-4592580D01*
X62849227Y-4460444D01*
X62852638Y-4454062D01*
X62914320Y-4338662D01*
X62925883Y-4324573D01*
X63001918Y-4231922D01*
X63031910Y-4207309D01*
X63108661Y-4144320D01*
X63230441Y-4079228D01*
X63230443Y-4079227D01*
X63362579Y-4039143D01*
X63500000Y-4025609D01*
X63637420Y-4039143D01*
X63637420Y-4039143D01*
G37*
G36*
X57837420Y-4039143D02*
X57969556Y-4079227D01*
X57969558Y-4079228D01*
X58091338Y-4144320D01*
X58091340Y-4144321D01*
X58091339Y-4144321D01*
X58198078Y-4231918D01*
X58198080Y-4231921D01*
X58285680Y-4338661D01*
X58347362Y-4454062D01*
X58350773Y-4460443D01*
X58390857Y-4592579D01*
X58401000Y-4695568D01*
X58401000Y-5464432D01*
X58390857Y-5567421D01*
X58350773Y-5699557D01*
X58350772Y-5699559D01*
X58285680Y-5821339D01*
X58198080Y-5928080D01*
X58091339Y-6015680D01*
X57969559Y-6080772D01*
X57969557Y-6080773D01*
X57837421Y-6120857D01*
X57700000Y-6134391D01*
X57562580Y-6120857D01*
X57430444Y-6080773D01*
X57430442Y-6080772D01*
X57308662Y-6015680D01*
X57201921Y-5928080D01*
X57114321Y-5821339D01*
X57049229Y-5699559D01*
X57049228Y-5699558D01*
X57009143Y-5567419D01*
X56999000Y-5464432D01*
X56999000Y-4695569D01*
X57009143Y-4592580D01*
X57049227Y-4460444D01*
X57052638Y-4454062D01*
X57114320Y-4338662D01*
X57125883Y-4324573D01*
X57201918Y-4231922D01*
X57231910Y-4207309D01*
X57308661Y-4144320D01*
X57430441Y-4079228D01*
X57430443Y-4079227D01*
X57562579Y-4039143D01*
X57700000Y-4025609D01*
X57837420Y-4039143D01*
X57837420Y-4039143D01*
G37*
G36*
X67875256Y-891298D02*
X67981579Y-912447D01*
X68282042Y-1036903D01*
X68548852Y-1215180D01*
X68552454Y-1217587D01*
X68782413Y-1447546D01*
X68963098Y-1717960D01*
X69087553Y-2018422D01*
X69151000Y-2337389D01*
X69151000Y-2662611D01*
X69087553Y-2981578D01*
X68963098Y-3282040D01*
X68782413Y-3552454D01*
X68552454Y-3782413D01*
X68552451Y-3782415D01*
X68282042Y-3963097D01*
X67981579Y-4087553D01*
X67875256Y-4108702D01*
X67662611Y-4151000D01*
X67337389Y-4151000D01*
X67124744Y-4108702D01*
X67018421Y-4087553D01*
X66717958Y-3963097D01*
X66447549Y-3782415D01*
X66447546Y-3782413D01*
X66217587Y-3552454D01*
X66036902Y-3282040D01*
X65912447Y-2981578D01*
X65849000Y-2662611D01*
X65849000Y-2337389D01*
X65912447Y-2018422D01*
X66036902Y-1717960D01*
X66217587Y-1447546D01*
X66447546Y-1217587D01*
X66451148Y-1215180D01*
X66717958Y-1036903D01*
X67018421Y-912447D01*
X67124744Y-891298D01*
X67337389Y-849000D01*
X67662611Y-849000D01*
X67875256Y-891298D01*
X67875256Y-891298D01*
G37*
G36*
X2875256Y-891298D02*
X2981579Y-912447D01*
X3282042Y-1036903D01*
X3548852Y-1215180D01*
X3552454Y-1217587D01*
X3782413Y-1447546D01*
X3963098Y-1717960D01*
X4087553Y-2018422D01*
X4151000Y-2337389D01*
X4151000Y-2662611D01*
X4087553Y-2981578D01*
X3963098Y-3282040D01*
X3782413Y-3552454D01*
X3552454Y-3782413D01*
X3552451Y-3782415D01*
X3282042Y-3963097D01*
X2981579Y-4087553D01*
X2875256Y-4108702D01*
X2662611Y-4151000D01*
X2337389Y-4151000D01*
X2124744Y-4108702D01*
X2018421Y-4087553D01*
X1717958Y-3963097D01*
X1447549Y-3782415D01*
X1447546Y-3782413D01*
X1217587Y-3552454D01*
X1036902Y-3282040D01*
X912447Y-2981578D01*
X849000Y-2662611D01*
X849000Y-2337389D01*
X912447Y-2018422D01*
X1036902Y-1717960D01*
X1217587Y-1447546D01*
X1447546Y-1217587D01*
X1451148Y-1215180D01*
X1717958Y-1036903D01*
X2018421Y-912447D01*
X2124744Y-891298D01*
X2337389Y-849000D01*
X2662611Y-849000D01*
X2875256Y-891298D01*
X2875256Y-891298D01*
G37*
M02*
