M48
;DRILL file {KiCad 5.0.2+dfsg1-1~bpo9+1} date Sat 16 Feb 2019 10:45:03 PM CET
;FORMAT={-:-/ absolute / metric / decimal}
FMAT,2
METRIC,TZ
T1C0.600
T2C0.800
T3C0.900
T4C1.000
T5C1.200
T6C1.397
%
G90
G05
T2
X144.78Y-107.95
X144.78Y-115.57
X147.32Y-107.95
X147.32Y-115.57
X149.86Y-107.95
X149.86Y-115.57
X152.4Y-107.95
X152.4Y-115.57
X177.8Y-93.258
X177.8Y-95.758
X190.5Y-101.6
X190.5Y-104.14
X190.5Y-106.68
X190.5Y-109.22
X198.12Y-101.6
X198.12Y-104.14
X198.12Y-106.68
X198.12Y-109.22
X143.51Y-97.79
X153.67Y-97.79
X190.246Y-96.052
X190.246Y-98.552
X165.1Y-105.41
X165.1Y-110.31
X143.002Y-119.126
X153.162Y-119.126
X158.75Y-104.18
X158.75Y-106.68
X158.75Y-109.26
X158.75Y-111.76
X163.576Y-84.074
X163.576Y-94.234
X181.61Y-121.92
X191.77Y-121.92
X170.18Y-99.06
X170.18Y-101.6
X170.18Y-104.14
X170.18Y-106.68
X170.18Y-109.22
X170.18Y-111.76
X170.18Y-114.3
X170.18Y-116.84
X170.18Y-119.38
X170.18Y-121.92
X177.8Y-99.06
X177.8Y-101.6
X177.8Y-104.14
X177.8Y-106.68
X177.8Y-109.22
X177.8Y-111.76
X177.8Y-114.3
X177.8Y-116.84
X177.8Y-119.38
X177.8Y-121.92
T3
X195.58Y-120.65
X198.12Y-120.65
T4
X159.004Y-94.234
X159.004Y-96.774
X159.004Y-99.314
X183.134Y-101.854
X183.134Y-104.394
X183.134Y-106.934
X185.674Y-101.854
X185.674Y-104.394
X185.674Y-106.934
T5
X143.51Y-102.87
X153.67Y-102.87
T6
X141.092Y-88.087
X143.594Y-90.589
X148.59Y-88.09
X153.586Y-90.589
X156.088Y-88.087
T1
X191.77Y-80.93G85X191.77Y-81.63
G05
X192.42Y-88.13G85X192.42Y-88.83
G05
X196.92Y-88.13G85X196.92Y-88.83
G05
X197.57Y-80.93G85X197.57Y-81.63
G05
T2
X169.952Y-85.054G85X169.952Y-87.254
G05
X175.852Y-83.354G85X173.652Y-83.354
G05
X176.052Y-89.154G85X173.452Y-89.154
G05
T0
M30
